<svg width="129" height="62" viewBox="0 0 129 62" fill="none" xmlns="http://www.w3.org/2000/svg">
<rect width="129" height="62" fill="#FF6F00"/>
<path d="M41.9663 39.9266L39.121 46.8366C39.0194 47.0399 38.8669 47.1415 38.6637 47.1415C38.596 47.1415 38.5282 47.133 38.4605 47.1161C38.325 47.0483 38.2318 46.9552 38.181 46.8366C38.1302 46.7181 38.1302 46.591 38.181 46.4556L41.1025 39.3169C40.9162 39.2492 40.7469 39.2237 40.5944 39.2407C40.4759 39.2915 40.4081 39.3169 40.3912 39.3169C40.2557 39.3677 40.1287 39.3677 40.0101 39.3169C39.8916 39.2661 39.7984 39.1814 39.7307 39.0629C39.6799 38.9443 39.6714 38.8257 39.7053 38.7072C39.7561 38.5717 39.8408 38.4701 39.9593 38.4023C40.0779 38.3346 40.188 38.2922 40.2896 38.2753C40.5944 38.1737 41.111 37.9366 41.8393 37.564L51.2643 14.5475C51.3151 14.412 51.3998 14.3189 51.5184 14.2681C51.6539 14.2173 51.7893 14.2173 51.9248 14.2681C52.0603 14.3358 52.1535 14.429 52.2043 14.5475C52.2551 14.6661 52.2551 14.7931 52.2043 14.9286L43.2111 36.8273C43.516 36.6748 43.8462 36.497 44.2019 36.2938C46.2512 35.1929 48.961 33.4739 52.3313 31.1367C54.9734 29.189 57.5138 26.8941 59.9527 24.252C62.4084 21.593 64.4238 19.2389 65.9989 17.1896C67.5909 15.1403 68.4293 14.0394 68.514 13.887C68.5986 13.7685 68.7087 13.7007 68.8442 13.6838C68.9797 13.6499 69.1067 13.6753 69.2253 13.76C69.3438 13.8447 69.4116 13.9548 69.4285 14.0903C69.4455 14.2257 69.4201 14.3528 69.3523 14.4713C69.2676 14.6237 68.4208 15.7415 66.8119 17.8247C65.2029 19.9079 63.1536 22.2959 60.664 24.9888C58.1913 27.6647 55.6085 29.985 52.9156 31.9496C50.2566 33.8126 48.0125 35.2776 46.1834 36.3446C44.7269 37.1914 43.5414 37.8434 42.6268 38.3007L42.3474 38.9358C43.0756 39.5286 43.8886 40.35 44.7862 41.4001C45.9209 42.755 47.2928 44.1437 48.9017 45.5664C50.5107 46.9721 52.4245 48.0306 54.6431 48.742C56.8787 49.4363 59.4869 49.4109 62.4677 48.6657C62.6032 48.6319 62.7302 48.6488 62.8488 48.7166C62.9673 48.7843 63.0435 48.8859 63.0774 49.0214C63.1113 49.1569 63.0943 49.2839 63.0266 49.4025C62.9758 49.521 62.8742 49.6057 62.7217 49.6565C61.1975 50.063 59.724 50.2662 58.3014 50.2662C55.7778 50.2662 53.3729 49.6142 51.0865 48.3101C49.5792 47.4125 48.2497 46.4132 47.098 45.3124C45.9463 44.1946 44.9217 43.1191 44.024 42.086C43.2958 41.2561 42.6353 40.5617 42.0425 40.0028L41.9663 39.9266ZM77.4817 30.4507C76.4317 32.6525 75.4155 34.8118 74.4332 36.9289C73.0106 39.9943 71.952 42.4332 71.2576 44.2454C70.6987 45.7527 70.2584 46.9975 69.9366 47.9798C69.6318 48.9452 69.4116 49.6904 69.2761 50.2154C69.1406 50.7574 69.0559 51.1384 69.022 51.3586C69.0051 51.5957 69.0051 51.7312 69.022 51.7651C69.039 51.8836 69.0136 51.9937 68.9458 52.0953C68.895 52.2139 68.8103 52.2986 68.6918 52.3494C68.641 52.3663 68.5817 52.3748 68.514 52.3748C68.3107 52.3748 68.1498 52.2647 68.0313 52.0445C67.8111 51.3163 68.5732 48.598 70.3177 43.8897C71.0121 42.0775 72.0706 39.6217 73.4932 36.5224C74.4078 34.5239 75.3562 32.5 76.3385 30.4507C75.3732 30.4677 74.4163 30.5185 73.4678 30.6032C70.9613 30.8233 68.8696 31.0858 67.1929 31.3907C65.5332 31.6956 64.6609 31.8649 64.5763 31.8988C64.5255 31.9157 64.4831 31.9242 64.4492 31.9242C64.3307 31.9242 64.2291 31.8903 64.1444 31.8226C64.0597 31.7548 64.0004 31.6617 63.9666 31.5431C63.9327 31.3907 63.9496 31.2637 64.0174 31.1621C64.0851 31.0435 64.1952 30.9673 64.3476 30.9334C64.4323 30.8826 65.3215 30.7048 67.0151 30.3999C68.7257 30.0781 70.8596 29.8072 73.417 29.587C74.5518 29.4854 75.695 29.4346 76.8466 29.4346C77.2192 28.6555 77.6003 27.8679 77.9898 27.0719C79.548 23.854 80.8859 21.1273 82.0037 18.8917C83.1215 16.6392 83.7228 15.4367 83.8075 15.2843C83.8752 15.1488 83.9683 15.0641 84.0869 15.0302C84.2224 14.9794 84.3579 14.9879 84.4934 15.0556C84.6119 15.1234 84.6881 15.225 84.722 15.3605C84.7728 15.479 84.7728 15.6061 84.722 15.7415C84.6373 15.894 84.0361 17.088 82.9183 19.3236C81.8005 21.5592 80.4625 24.2859 78.9044 27.5038C78.5995 28.1474 78.2862 28.791 77.9644 29.4346C79.0483 29.4515 80.1323 29.5108 81.2162 29.6124C84.8406 29.9342 88.0669 29.9426 90.8953 29.6378C91.5558 28.2151 92.2248 26.7925 92.9023 25.3698C94.6975 21.6269 96.2302 18.4852 97.5005 15.9448C98.7876 13.3874 99.4735 12.0325 99.5582 11.8801C99.626 11.7446 99.7191 11.6599 99.8377 11.626C99.9732 11.5752 100.109 11.5837 100.244 11.6514C100.363 11.7192 100.439 11.8208 100.473 11.9563C100.524 12.0748 100.515 12.2019 100.447 12.3373C100.363 12.4898 99.6852 13.8362 98.415 16.3767C97.1617 18.9171 95.6375 22.0503 93.8422 25.7763C93.2494 27.0296 92.6651 28.2744 92.0893 29.5108C94.5281 29.2059 96.3065 28.8672 97.4242 28.4946C97.5597 28.4607 97.6868 28.4777 97.8053 28.5454C97.9239 28.5962 98.0086 28.6894 98.0594 28.8248C98.0932 28.9603 98.0763 29.0958 98.0086 29.2313C97.9577 29.3499 97.8646 29.4261 97.7291 29.46C96.4758 29.8664 94.4265 30.239 91.5812 30.5778C90.582 32.7287 89.6166 34.8711 88.6851 37.0051C87.0254 40.765 85.7636 43.932 84.8998 46.5064C84.2901 48.4032 83.799 50.0122 83.4264 51.3332C83.0538 52.6712 82.7659 53.772 82.5626 54.6358C82.3594 55.4995 82.2154 56.1685 82.1308 56.6427C82.063 57.117 82.0207 57.4472 82.0037 57.6335C82.0037 57.8368 82.0037 57.9468 82.0037 57.9638V57.9384L81.013 58.1416C80.996 58.1077 80.9876 57.9807 80.9876 57.7605C80.9876 57.5573 81.0214 57.2016 81.0892 56.6936C81.1739 56.2024 81.3178 55.508 81.521 54.6104C81.7243 53.7297 82.0207 52.595 82.4102 51.2062C82.7997 49.8343 83.3078 48.1661 83.9345 46.2015C84.7982 43.5933 86.06 40.4093 87.7197 36.6494C88.6004 34.6679 89.4896 32.6863 90.3872 30.7048C87.6605 30.9588 84.5696 30.9334 81.1146 30.6286C79.8952 30.51 78.6842 30.4507 77.4817 30.4507Z" fill="#111035"/>
<path d="M41.9663 39.9266L42.5478 39.3451L41.6755 38.4727L41.2058 39.6135L41.9663 39.9266ZM39.121 46.8366L39.8566 47.2044L39.87 47.1775L39.8815 47.1498L39.121 46.8366ZM38.4605 47.1161L38.0927 47.8517L38.1734 47.8921L38.261 47.914L38.4605 47.1161ZM38.181 46.8366L38.937 46.5126L38.181 46.8366ZM38.181 46.4556L37.4199 46.144L37.4152 46.1553L37.4109 46.1668L38.181 46.4556ZM41.1025 39.3169L41.8637 39.6284L42.1878 38.8364L41.3836 38.544L41.1025 39.3169ZM40.5944 39.2407L40.5036 38.4233L40.3825 38.4367L40.2705 38.4847L40.5944 39.2407ZM40.3912 39.3169V38.4945H40.2421L40.1024 38.5468L40.3912 39.3169ZM40.0101 39.3169L39.6862 40.0728L40.0101 39.3169ZM39.7307 39.0629L38.9747 39.3868L38.9933 39.4301L39.0166 39.4709L39.7307 39.0629ZM39.7053 38.7072L38.9352 38.4184L38.9236 38.4494L38.9145 38.4812L39.7053 38.7072ZM40.2896 38.2753L40.4248 39.0866L40.4884 39.076L40.5497 39.0555L40.2896 38.2753ZM41.8393 37.564L42.2139 38.2962L42.485 38.1575L42.6004 37.8757L41.8393 37.564ZM51.2643 14.5475L52.0254 14.8592L52.0301 14.8478L52.0344 14.8363L51.2643 14.5475ZM51.5184 14.2681L51.2296 13.498L51.2118 13.5047L51.1944 13.5121L51.5184 14.2681ZM51.9248 14.2681L52.2926 13.5325L52.254 13.5132L52.2136 13.498L51.9248 14.2681ZM52.2043 14.9286L52.9651 15.241L52.9699 15.2293L52.9744 15.2174L52.2043 14.9286ZM43.2111 36.8273L42.4503 36.5148L41.6171 38.5438L43.5789 37.5629L43.2111 36.8273ZM44.2019 36.2938L43.8127 35.5692L43.8032 35.5743L43.7938 35.5797L44.2019 36.2938ZM52.3313 31.1367L52.8 31.8125L52.8098 31.8057L52.8193 31.7987L52.3313 31.1367ZM59.9527 24.252L59.3485 23.694L59.3483 23.6942L59.9527 24.252ZM65.9989 17.1896L65.3494 16.685L65.3468 16.6884L65.9989 17.1896ZM68.514 13.887L67.8447 13.409L67.8176 13.4469L67.795 13.4876L68.514 13.887ZM68.8442 13.6838L68.9462 14.4999L68.9955 14.4937L69.0437 14.4817L68.8442 13.6838ZM69.3523 14.4713L68.6382 14.0632L68.6334 14.0719L69.3523 14.4713ZM60.664 24.9888L60.0601 24.4305L60.0599 24.4306L60.664 24.9888ZM52.9156 31.9496L53.3875 32.6232L53.394 32.6186L53.4003 32.614L52.9156 31.9496ZM46.1834 36.3446L46.5968 37.0556L46.5978 37.055L46.1834 36.3446ZM42.6268 38.3007L42.259 37.5651L41.9935 37.6978L41.874 37.9695L42.6268 38.3007ZM42.3474 38.9358L41.5946 38.6046L41.3422 39.1781L41.8282 39.5737L42.3474 38.9358ZM44.7862 41.4001L45.4167 40.872L45.4113 40.8657L44.7862 41.4001ZM48.9017 45.5664L48.3569 46.1825L48.3606 46.1857L48.9017 45.5664ZM54.6431 48.742L54.392 49.5252L54.3992 49.5274L54.6431 48.742ZM62.4677 48.6657L62.2682 47.8679L62.4677 48.6657ZM63.0774 49.0214L62.2795 49.2209L63.0774 49.0214ZM63.0266 49.4025L62.3125 48.9944L62.2892 49.0353L62.2707 49.0785L63.0266 49.4025ZM62.7217 49.6565L62.9336 50.4512L62.958 50.4447L62.9818 50.4368L62.7217 49.6565ZM51.0865 48.3101L50.6657 49.0167L50.6723 49.0207L50.679 49.0245L51.0865 48.3101ZM47.098 45.3124L46.5252 45.9025L46.5297 45.9069L47.098 45.3124ZM44.024 42.086L44.6449 41.5466L44.6422 41.5435L44.024 42.086ZM42.0425 40.0028L41.4609 40.5844L41.4695 40.5929L41.4783 40.6012L42.0425 40.0028ZM41.2058 39.6135L38.3605 46.5235L39.8815 47.1498L42.7268 40.2397L41.2058 39.6135ZM38.3854 46.4688C38.3833 46.4729 38.4059 46.4265 38.4742 46.381C38.5477 46.332 38.6214 46.319 38.6637 46.319V47.9639C38.9092 47.9639 39.1608 47.9002 39.3867 47.7496C39.6074 47.6024 39.757 47.4036 39.8566 47.2044L38.3854 46.4688ZM38.6637 46.319C38.6652 46.319 38.6645 46.3193 38.6599 46.3182L38.261 47.914C38.392 47.9467 38.5267 47.9639 38.6637 47.9639V46.319ZM38.8283 46.3805C38.828 46.3803 38.846 46.3893 38.8705 46.4138C38.8963 46.4396 38.9203 46.4737 38.937 46.5126L37.4251 47.1606C37.5655 47.4882 37.8151 47.7129 38.0927 47.8517L38.8283 46.3805ZM38.937 46.5126C38.9547 46.5541 38.9653 46.6028 38.9653 46.6524C38.9653 46.7003 38.9555 46.7324 38.9511 46.7443L37.4109 46.1668C37.2956 46.4745 37.2804 46.8229 37.4251 47.1606L38.937 46.5126ZM38.9422 46.7671L41.8637 39.6284L40.3414 39.0054L37.4199 46.144L38.9422 46.7671ZM41.3836 38.544C41.112 38.4452 40.813 38.3889 40.5036 38.4233L40.6853 40.0581C40.6807 40.0586 40.7205 40.0531 40.8215 40.0898L41.3836 38.544ZM40.2705 38.4847C40.2154 38.5084 40.1822 38.5217 40.1659 38.5278C40.1569 38.5312 40.1625 38.5288 40.1771 38.5244C40.1843 38.5222 40.2025 38.5169 40.2276 38.5115C40.2406 38.5087 40.2599 38.505 40.2839 38.5017C40.3063 38.4986 40.344 38.4945 40.3912 38.4945V40.1393C40.5318 40.1393 40.6473 40.1006 40.6498 40.0999C40.6855 40.0892 40.7186 40.0772 40.7435 40.0679C40.7949 40.0486 40.855 40.0238 40.9184 39.9966L40.2705 38.4847ZM40.1024 38.5468C40.1143 38.5424 40.1465 38.5326 40.1943 38.5326C40.2439 38.5326 40.2926 38.5432 40.3341 38.561L39.6862 40.0728C40.0238 40.2176 40.3723 40.2024 40.68 40.087L40.1024 38.5468ZM40.3341 38.561C40.3568 38.5707 40.3818 38.586 40.4046 38.6067C40.427 38.6271 40.4395 38.6455 40.4448 38.6548L39.0166 39.4709C39.1675 39.735 39.3932 39.9473 39.6862 40.0728L40.3341 38.561ZM40.4866 38.7389C40.4943 38.7567 40.5037 38.7868 40.5066 38.8264C40.5094 38.8666 40.5045 38.9035 40.4961 38.9331L38.9145 38.4812C38.8261 38.7905 38.8531 39.1031 38.9747 39.3868L40.4866 38.7389ZM40.4754 38.996C40.4714 39.0066 40.4608 39.0294 40.4387 39.0559C40.4162 39.0829 40.3905 39.1032 40.3674 39.1164L39.5513 37.6883C39.2557 37.8572 39.049 38.1149 38.9352 38.4184L40.4754 38.996ZM40.3674 39.1164C40.396 39.1001 40.4154 39.0915 40.426 39.0874C40.4366 39.0833 40.4359 39.0847 40.4248 39.0866L40.1544 37.4641C39.9312 37.5013 39.7284 37.587 39.5513 37.6883L40.3674 39.1164ZM40.5497 39.0555C40.9208 38.9318 41.488 38.6675 42.2139 38.2962L41.4647 36.8318C40.734 37.2057 40.2681 37.4155 40.0295 37.4951L40.5497 39.0555ZM42.6004 37.8757L52.0254 14.8592L50.5032 14.2359L41.0782 37.2523L42.6004 37.8757ZM52.0344 14.8363C52.0286 14.8517 52.0119 14.8881 51.9745 14.9293C51.9356 14.9721 51.8886 15.0042 51.8423 15.024L51.1944 13.5121C50.8435 13.6625 50.6133 13.9414 50.4942 14.2588L52.0344 14.8363ZM51.8071 15.0382C51.7889 15.045 51.759 15.0524 51.7216 15.0524C51.6842 15.0524 51.6543 15.045 51.6361 15.0382L52.2136 13.498C51.8919 13.3774 51.5513 13.3774 51.2296 13.498L51.8071 15.0382ZM51.557 15.0037C51.5573 15.0039 51.5393 14.9948 51.5148 14.9703C51.489 14.9445 51.465 14.9105 51.4483 14.8715L52.9602 14.2236C52.8198 13.8959 52.5702 13.6713 52.2926 13.5325L51.557 15.0037ZM51.4483 14.8715C51.4306 14.83 51.42 14.7813 51.42 14.7317C51.42 14.6839 51.4298 14.6517 51.4342 14.6398L52.9744 15.2174C53.0897 14.9097 53.1049 14.5612 52.9602 14.2236L51.4483 14.8715ZM51.4435 14.6162L42.4503 36.5148L43.9719 37.1397L52.9651 15.241L51.4435 14.6162ZM43.5789 37.5629C43.8998 37.4024 44.2436 37.2172 44.6099 37.0078L43.7938 35.5797C43.4488 35.7768 43.1322 35.9472 42.8433 36.0916L43.5789 37.5629ZM44.5911 37.0183C46.6808 35.8957 49.4202 34.1563 52.8 31.8125L51.8626 30.4608C48.5018 32.7915 45.8215 34.4901 43.8127 35.5692L44.5911 37.0183ZM52.8193 31.7987C55.5071 29.8173 58.0861 27.4867 60.557 24.8099L59.3483 23.6942C56.9416 26.3015 54.4396 28.5607 51.8433 30.4747L52.8193 31.7987ZM60.5568 24.81C63.0233 22.1394 65.0562 19.7658 66.651 17.6908L65.3468 16.6884C63.7915 18.712 61.7935 21.0467 59.3485 23.694L60.5568 24.81ZM66.6484 17.6942C67.4449 16.6689 68.0544 15.8789 68.476 15.3253C68.6865 15.0488 68.8521 14.8288 68.9714 14.6669C69.0728 14.5292 69.18 14.3817 69.2329 14.2864L67.795 13.4876C67.8056 13.4685 67.7763 13.5158 67.6469 13.6915C67.5354 13.8429 67.376 14.0548 67.1674 14.3287C66.7506 14.8759 66.145 15.661 65.3494 16.685L66.6484 17.6942ZM69.1832 14.3651C69.1699 14.3837 69.1406 14.4172 69.0911 14.4477C69.0404 14.4789 68.9885 14.4946 68.9462 14.4999L68.7422 12.8677C68.3621 12.9152 68.0529 13.1175 67.8447 13.409L69.1832 14.3651ZM69.0437 14.4817C69.0027 14.4919 68.9448 14.4969 68.8798 14.4839C68.8158 14.4711 68.7708 14.4461 68.7473 14.4292L69.7033 13.0907C69.3984 12.8729 69.0253 12.7908 68.6447 12.8859L69.0437 14.4817ZM68.7473 14.4292C68.7286 14.4159 68.6951 14.3867 68.6646 14.3371C68.6334 14.2864 68.6177 14.2345 68.6124 14.1923L70.2446 13.9882C70.1971 13.6082 69.9948 13.2989 69.7033 13.0907L68.7473 14.4292ZM68.6124 14.1923C68.6105 14.1771 68.6101 14.1536 68.6157 14.1258C68.6213 14.0981 68.6306 14.0766 68.6382 14.0633L70.0664 14.8794C70.2224 14.6063 70.2836 14.3003 70.2446 13.9882L68.6124 14.1923ZM68.6334 14.0719C68.6435 14.0537 68.6131 14.1025 68.4827 14.2803C68.37 14.434 68.2089 14.6491 67.9981 14.9274C67.5771 15.4832 66.965 16.281 66.161 17.322L67.4628 18.3274C68.2677 17.2853 68.8835 16.4826 69.3092 15.9206C69.5219 15.6399 69.6889 15.4169 69.8091 15.253C69.9116 15.1133 70.0188 14.9652 70.0712 14.8707L68.6334 14.0719ZM66.161 17.322C64.5713 19.3801 62.5391 21.7491 60.0601 24.4305L61.2679 25.5471C63.7681 22.8427 65.8345 20.4356 67.4628 18.3274L66.161 17.322ZM60.0599 24.4306C57.6201 27.0709 55.0769 29.3548 52.4309 31.2852L53.4003 32.614C56.1401 30.6152 58.7624 28.2585 61.268 25.5469L60.0599 24.4306ZM52.4437 31.276C49.7946 33.132 47.571 34.583 45.769 35.6342L46.5978 37.055C48.454 35.9722 50.7186 34.4931 53.3875 32.6232L52.4437 31.276ZM45.7701 35.6336C44.3203 36.4765 43.1515 37.1189 42.259 37.5651L42.9946 39.0363C43.9312 38.568 45.1336 37.9063 46.5968 37.0556L45.7701 35.6336ZM41.874 37.9695L41.5946 38.6046L43.1001 39.2671L43.3796 38.6319L41.874 37.9695ZM41.8282 39.5737C42.5048 40.1244 43.282 40.9062 44.161 41.9345L45.4113 40.8657C44.4951 39.7938 43.6465 38.9328 42.8665 38.298L41.8282 39.5737ZM44.1557 41.9281C45.3216 43.3203 46.7235 44.7383 48.3569 46.1825L49.4465 44.9503C47.862 43.5492 46.5202 42.1896 45.4167 40.872L44.1557 41.9281ZM48.3606 46.1857C50.0614 47.6717 52.0763 48.7827 54.392 49.5251L54.8942 47.9588C52.7726 47.2786 50.9599 46.2725 49.4428 44.947L48.3606 46.1857ZM54.3992 49.5274C56.817 50.2784 59.5848 50.2342 62.6672 49.4636L62.2682 47.8679C59.389 48.5877 56.9404 48.5943 54.8871 47.9565L54.3992 49.5274ZM62.6672 49.4636C62.6433 49.4696 62.6042 49.4747 62.5559 49.4683C62.5072 49.4618 62.4676 49.446 62.4407 49.4306L63.2568 48.0025C62.9495 47.8269 62.6042 47.7839 62.2682 47.8679L62.6672 49.4636ZM62.4407 49.4306C62.4099 49.413 62.3711 49.3826 62.3369 49.337C62.303 49.2918 62.2865 49.2488 62.2795 49.2209L63.8753 48.8219C63.7884 48.4745 63.575 48.1843 63.2568 48.0025L62.4407 49.4306ZM62.2795 49.2209C62.2735 49.197 62.2684 49.1579 62.2749 49.1096C62.2814 49.061 62.2971 49.0213 62.3125 48.9944L63.7407 49.8105C63.9163 49.5032 63.9593 49.1579 63.8753 48.8219L62.2795 49.2209ZM62.2707 49.0785C62.2977 49.0154 62.3395 48.9616 62.3858 48.9231C62.4286 48.8873 62.4609 48.8765 62.4617 48.8763L62.9818 50.4368C63.2981 50.3313 63.6172 50.1122 63.7825 49.7264L62.2707 49.0785ZM62.5098 48.8618C61.0473 49.2519 59.6452 49.4438 58.3014 49.4438V51.0887C59.8028 51.0887 61.3477 50.8741 62.9336 50.4512L62.5098 48.8618ZM58.3014 49.4438C55.927 49.4438 53.6618 48.8321 51.494 47.5957L50.679 49.0245C53.084 50.3962 55.6287 51.0887 58.3014 51.0887V49.4438ZM51.5073 47.6034C50.0479 46.7344 48.7689 45.7718 47.6663 44.7178L46.5297 45.9069C47.7304 47.0546 49.1104 48.0905 50.6657 49.0167L51.5073 47.6034ZM47.6708 44.7222C46.5331 43.6179 45.5249 42.5594 44.6449 41.5466L43.4032 42.6254C44.3185 43.6788 45.3596 44.7712 46.5252 45.9025L47.6708 44.7222ZM44.6422 41.5435C43.9024 40.7005 43.2236 39.9861 42.6067 39.4044L41.4783 40.6012C42.0469 41.1374 42.6892 41.8117 43.4059 42.6285L44.6422 41.5435ZM42.624 39.4213L42.5478 39.3451L41.3847 40.5082L41.4609 40.5844L42.624 39.4213ZM77.4817 30.4507V29.6283H76.9628L76.7394 30.0967L77.4817 30.4507ZM74.4332 36.9289L75.1792 37.2751L75.1792 37.275L74.4332 36.9289ZM71.2576 44.2454L70.4896 43.9511L70.4865 43.9594L71.2576 44.2454ZM69.9366 47.9798L69.155 47.7238L69.1523 47.7322L69.9366 47.9798ZM69.2761 50.2154L68.4797 50.0099L68.4782 50.0159L69.2761 50.2154ZM69.022 51.3586L68.2092 51.2336L68.2041 51.2666L68.2017 51.3L69.022 51.3586ZM69.022 51.7651L69.8362 51.6488L69.8173 51.5167L69.7577 51.3973L69.022 51.7651ZM68.9458 52.0953L68.2615 51.6391L68.2196 51.702L68.1899 51.7714L68.9458 52.0953ZM68.6918 52.3494L68.9519 53.1296L68.9843 53.1188L69.0158 53.1053L68.6918 52.3494ZM68.0313 52.0445L67.244 52.2825L67.2679 52.3617L67.3071 52.4345L68.0313 52.0445ZM70.3177 43.8897L69.5496 43.5954L69.5465 43.604L70.3177 43.8897ZM73.4932 36.5224L74.2407 36.8655L74.2411 36.8646L73.4932 36.5224ZM76.3385 30.4507L77.0802 30.8062L77.6559 29.6051L76.3241 29.6284L76.3385 30.4507ZM73.4678 30.6032L73.5398 31.4224L73.541 31.4223L73.4678 30.6032ZM67.1929 31.3907L67.0458 30.5815L67.0444 30.5818L67.1929 31.3907ZM64.5763 31.8988L64.8363 32.679L64.8593 32.6714L64.8817 32.6624L64.5763 31.8988ZM64.1444 31.8226L63.6306 32.4648L64.1444 31.8226ZM63.9666 31.5431L63.1637 31.7215L63.169 31.7455L63.1758 31.7691L63.9666 31.5431ZM64.0174 31.1621L64.7017 31.6183L64.7174 31.5947L64.7314 31.5701L64.0174 31.1621ZM64.3476 30.9334L64.526 31.7363L64.6563 31.7073L64.7708 31.6387L64.3476 30.9334ZM67.0151 30.3999L67.1608 31.2094L67.1671 31.2082L67.0151 30.3999ZM73.417 29.587L73.4876 30.4064L73.4904 30.4061L73.417 29.587ZM76.8466 29.4346V30.257H77.3649L77.5886 29.7894L76.8466 29.4346ZM77.9898 27.0719L78.7286 27.4334L78.7301 27.4304L77.9898 27.0719ZM82.0037 18.8917L82.7393 19.2595L82.7404 19.2573L82.0037 18.8917ZM83.8075 15.2843L84.5264 15.6837L84.5351 15.6681L84.5431 15.6521L83.8075 15.2843ZM84.0869 15.0302L84.3128 15.821L84.3447 15.8119L84.3757 15.8003L84.0869 15.0302ZM84.4934 15.0556L84.9014 14.3415L84.8816 14.3302L84.8612 14.32L84.4934 15.0556ZM84.722 15.3605L83.9241 15.5599L83.9401 15.6239L83.9661 15.6845L84.722 15.3605ZM84.722 15.7415L85.441 16.141L85.4706 16.0875L85.4921 16.0303L84.722 15.7415ZM78.9044 27.5038L78.1641 27.1454L78.1611 27.1517L78.9044 27.5038ZM77.9644 29.4346L77.2288 29.0668L76.644 30.2365L77.9516 30.2569L77.9644 29.4346ZM81.2162 29.6124L81.1394 30.4312L81.1435 30.4316L81.2162 29.6124ZM90.8953 29.6378L90.9834 30.4555L91.4455 30.4057L91.6413 29.9841L90.8953 29.6378ZM92.9023 25.3698L92.1607 25.0142L92.1597 25.0162L92.9023 25.3698ZM97.5005 15.9448L96.7658 15.575L96.7649 15.577L97.5005 15.9448ZM99.5582 11.8801L100.277 12.2795L100.286 12.2639L100.294 12.2479L99.5582 11.8801ZM99.8377 11.626L100.064 12.4168L100.095 12.4077L100.126 12.3961L99.8377 11.626ZM100.244 11.6514L100.652 10.9373L100.632 10.926L100.612 10.9158L100.244 11.6514ZM100.473 11.9563L99.6749 12.1557L99.6909 12.2197L99.7168 12.2803L100.473 11.9563ZM100.447 12.3373L101.166 12.7368L101.175 12.7211L101.183 12.7052L100.447 12.3373ZM98.415 16.3767L97.6794 16.0088L97.6775 16.0128L98.415 16.3767ZM93.8422 25.7763L93.1013 25.4193L93.0987 25.4247L93.8422 25.7763ZM92.0893 29.5108L91.3438 29.1635L90.7161 30.5113L92.1913 30.3269L92.0893 29.5108ZM97.4242 28.4946L97.2248 27.6967L97.1941 27.7044L97.1642 27.7144L97.4242 28.4946ZM97.8053 28.5454L97.3973 29.2595L97.4381 29.2828L97.4813 29.3013L97.8053 28.5454ZM98.0594 28.8248L98.8572 28.6254L98.8459 28.5799L98.8294 28.5361L98.0594 28.8248ZM98.0086 29.2313L97.2729 28.8635L97.2621 28.8851L97.2526 28.9073L98.0086 29.2313ZM97.7291 29.46L97.5296 28.6621L97.5022 28.6689L97.4754 28.6776L97.7291 29.46ZM91.5812 30.5778L91.484 29.7611L91.0286 29.8153L90.8353 30.2312L91.5812 30.5778ZM88.6851 37.0051L89.4375 37.3372L89.4389 37.3341L88.6851 37.0051ZM84.8998 46.5064L84.1201 46.2447L84.1169 46.2547L84.8998 46.5064ZM83.4264 51.3332L82.6348 51.11L82.6341 51.1126L83.4264 51.3332ZM82.1308 56.6427L81.3211 56.4982L81.3186 56.5123L81.3166 56.5264L82.1308 56.6427ZM82.0037 57.6335L81.1847 57.5591L81.1813 57.5962V57.6335H82.0037ZM82.0037 57.9384H82.8262V56.9301L81.8385 57.1327L82.0037 57.9384ZM81.013 58.1416L80.2773 58.5094L80.5597 59.0741L81.1782 58.9473L81.013 58.1416ZM81.0892 56.6936L80.2787 56.5538L80.276 56.5693L80.2739 56.5849L81.0892 56.6936ZM81.521 54.6104L80.7197 54.4255L80.7189 54.4288L81.521 54.6104ZM82.4102 51.2062L81.619 50.9815L81.6183 50.9841L82.4102 51.2062ZM83.9345 46.2015L83.1537 45.9429L83.1509 45.9516L83.9345 46.2015ZM87.7197 36.6494L86.9682 36.3154L86.9674 36.3173L87.7197 36.6494ZM90.3872 30.7048L91.1364 31.0441L91.7205 29.7546L90.3109 29.8859L90.3872 30.7048ZM81.1146 30.6286L81.035 31.4472L81.0423 31.4478L81.1146 30.6286ZM76.7394 30.0967C75.6882 32.3009 74.6707 34.4629 73.6872 36.5827L75.1792 37.275C76.1603 35.1607 77.1752 33.004 78.2241 30.8048L76.7394 30.0967ZM73.6872 36.5827C72.2615 39.6547 71.1939 42.1131 70.4897 43.9511L72.0256 44.5396C72.7101 42.7532 73.7596 40.334 75.1792 37.2751L73.6872 36.5827ZM70.4865 43.9594C69.9257 45.4719 69.4814 46.7276 69.155 47.7238L70.7182 48.2359C71.0354 47.2675 71.4718 46.0335 72.0288 44.5313L70.4865 43.9594ZM69.1523 47.7322C68.8462 48.7018 68.6208 49.4635 68.4797 50.0099L70.0724 50.4209C70.2024 49.9173 70.4174 49.1886 70.7209 48.2275L69.1523 47.7322ZM68.4782 50.0159C68.343 50.5568 68.2495 50.9715 68.2092 51.2336L69.8349 51.4837C69.8623 51.3054 69.9382 50.958 70.074 50.4149L68.4782 50.0159ZM68.2017 51.3C68.1927 51.4259 68.1869 51.5415 68.1869 51.6381C68.1869 51.6853 68.1882 51.7431 68.1942 51.8025C68.1969 51.83 68.209 51.9781 68.2864 52.1329L69.7577 51.3973C69.7802 51.4424 69.7943 51.4814 69.8028 51.5082C69.8116 51.5358 69.8172 51.5589 69.8207 51.5753C69.8275 51.607 69.83 51.6301 69.8309 51.6388C69.8319 51.6489 69.832 51.6541 69.832 51.6525C69.8319 51.6513 69.8318 51.6467 69.8318 51.6381C69.8318 51.6203 69.8324 51.5931 69.8341 51.5547C69.8358 51.5169 69.8385 51.4712 69.8424 51.4172L68.2017 51.3ZM68.2079 51.8814C68.2029 51.8464 68.2029 51.8012 68.2143 51.7516C68.2257 51.7024 68.2448 51.6642 68.2615 51.6391L69.6301 52.5516C69.8077 52.2852 69.8824 51.972 69.8362 51.6488L68.2079 51.8814ZM68.1899 51.7714C68.2025 51.7419 68.2255 51.7034 68.2627 51.6662C68.2998 51.629 68.3384 51.6061 68.3678 51.5935L69.0158 53.1053C69.3284 52.9713 69.5678 52.732 69.7018 52.4193L68.1899 51.7714ZM68.4317 51.5692C68.4582 51.5603 68.4793 51.5562 68.4929 51.5543C68.5064 51.5523 68.5139 51.5524 68.514 51.5524V53.1972C68.6478 53.1972 68.7984 53.1808 68.9519 53.1296L68.4317 51.5692ZM68.514 51.5524C68.5383 51.5524 68.5707 51.5558 68.6075 51.5669C68.6445 51.5781 68.6778 51.5947 68.7053 51.6135C68.7595 51.6506 68.7695 51.6808 68.7554 51.6546L67.3071 52.4345C67.5299 52.8482 67.9336 53.1972 68.514 53.1972V51.5524ZM68.8185 51.8065C68.8227 51.8204 68.7956 51.6803 68.8628 51.253C68.9234 50.8672 69.0432 50.3466 69.2296 49.6817C69.6018 48.3544 70.2195 46.522 71.0889 44.1754L69.5465 43.604C68.6715 45.9657 68.0359 47.8466 67.6458 49.2376C67.4512 49.9318 67.3127 50.5216 67.2379 50.9975C67.1696 51.4317 67.1298 51.9046 67.244 52.2825L68.8185 51.8065ZM71.0857 44.184C71.7707 42.3961 72.8208 39.9588 74.2407 36.8655L72.7458 36.1793C71.3204 39.2847 70.2534 41.7589 69.5497 43.5954L71.0857 44.184ZM74.2411 36.8646C75.1535 34.8707 76.0999 32.8513 77.0802 30.8062L75.5969 30.0952C74.6126 32.1488 73.662 34.1771 72.7454 36.1802L74.2411 36.8646ZM76.3241 29.6284C75.3394 29.6457 74.3629 29.6975 73.3947 29.784L73.541 31.4223C74.4696 31.3394 75.4069 31.2896 76.353 31.273L76.3241 29.6284ZM73.3959 29.7839C70.8747 30.0053 68.7561 30.2706 67.0458 30.5815L67.34 32.1999C68.9832 31.9011 71.0478 31.6413 73.5398 31.4224L73.3959 29.7839ZM67.0444 30.5818C66.2137 30.7344 65.5774 30.8535 65.1372 30.939C64.9175 30.9817 64.7432 31.0166 64.6166 31.0435C64.5537 31.0568 64.4981 31.0692 64.4525 31.0801C64.4296 31.0856 64.3466 31.1049 64.2708 31.1352L64.8817 32.6624C64.8271 32.6842 64.7899 32.6908 64.8373 32.6794C64.8622 32.6734 64.9015 32.6645 64.9583 32.6525C65.0709 32.6286 65.2342 32.5958 65.4507 32.5537C65.8827 32.4698 66.5124 32.3519 67.3415 32.1996L67.0444 30.5818ZM64.3162 31.1186C64.3164 31.1185 64.3188 31.1177 64.3233 31.1164C64.3278 31.1152 64.3352 31.1134 64.3451 31.1114C64.3633 31.1077 64.3996 31.1018 64.4492 31.1018V32.7466C64.6075 32.7466 64.7445 32.7096 64.8363 32.679L64.3162 31.1186ZM64.4492 31.1018C64.469 31.1018 64.5027 31.1047 64.5442 31.1186C64.5866 31.1327 64.6257 31.1544 64.6582 31.1804L63.6306 32.4648C63.875 32.6603 64.1625 32.7466 64.4492 32.7466V31.1018ZM64.6582 31.1804C64.6878 31.204 64.7122 31.232 64.7303 31.2604C64.7478 31.2879 64.755 31.3091 64.7574 31.3172L63.1758 31.7691C63.2499 32.0284 63.3948 32.2762 63.6306 32.4648L64.6582 31.1804ZM64.7694 31.3647C64.769 31.3628 64.7758 31.3917 64.7691 31.4422C64.7618 31.4967 64.7408 31.5596 64.7017 31.6183L63.3331 30.7059C63.1086 31.0425 63.0955 31.4146 63.1637 31.7215L64.7694 31.3647ZM64.7314 31.5701C64.7056 31.6153 64.6669 31.659 64.6189 31.6922C64.5732 31.7238 64.5367 31.7339 64.526 31.7363L64.1692 30.1306C63.8264 30.2067 63.503 30.4045 63.3033 30.754L64.7314 31.5701ZM64.7708 31.6387C64.674 31.6967 64.5913 31.7141 64.6453 31.6985C64.6618 31.6938 64.6949 31.6851 64.75 31.6722C64.8584 31.6467 65.02 31.6123 65.2393 31.5684C65.676 31.4811 66.3155 31.3615 67.1608 31.2094L66.8694 29.5905C66.0211 29.7432 65.3692 29.865 64.9167 29.9555C64.6914 30.0005 64.509 30.0391 64.374 30.0708C64.3074 30.0865 64.2438 30.1024 64.1888 30.1183C64.1714 30.1233 64.0424 30.1574 63.9245 30.2282L64.7708 31.6387ZM67.1671 31.2082C68.8414 30.8932 70.946 30.6252 73.4876 30.4064L73.3465 28.7676C70.7733 28.9891 68.6099 29.263 66.863 29.5917L67.1671 31.2082ZM73.4904 30.4061C74.6005 30.3067 75.7192 30.257 76.8466 30.257V28.6121C75.6707 28.6121 74.5031 28.664 73.3437 28.7678L73.4904 30.4061ZM77.5886 29.7894C77.9601 29.0126 78.3401 28.2273 78.7286 27.4334L77.2511 26.7104C76.8605 27.5086 76.4784 28.2984 76.1047 29.0797L77.5886 29.7894ZM78.7301 27.4304C80.2873 24.2144 81.6236 21.491 82.7393 19.2595L81.2681 18.5239C80.1483 20.7636 78.8087 23.4937 77.2496 26.7135L78.7301 27.4304ZM82.7404 19.2573C83.2992 18.1312 83.7286 17.2684 84.0286 16.6682C84.1787 16.3681 84.296 16.1345 84.3809 15.9669C84.4233 15.8831 84.4571 15.8168 84.4826 15.7674C84.4953 15.7427 84.5055 15.7231 84.5134 15.7081C84.5173 15.7006 84.5204 15.6948 84.5228 15.6904C84.5239 15.6882 84.5248 15.6866 84.5255 15.6854C84.5261 15.6841 84.5264 15.6836 84.5264 15.6837L83.0885 14.8849C82.9916 15.0594 82.3763 16.2907 81.267 18.5261L82.7404 19.2573ZM84.5431 15.6521C84.5405 15.6572 84.5235 15.6894 84.4814 15.7277C84.4363 15.7686 84.3778 15.8024 84.3128 15.821L83.861 14.2394C83.4715 14.3507 83.2173 14.6255 83.0718 14.9165L84.5431 15.6521ZM84.3757 15.8003C84.3422 15.8129 84.2943 15.8228 84.2388 15.8193C84.1843 15.8159 84.1451 15.801 84.1256 15.7912L84.8612 14.32C84.5319 14.1554 84.1588 14.1249 83.7981 14.2601L84.3757 15.8003ZM84.0853 15.7697C84.0545 15.7521 84.0157 15.7217 83.9815 15.6761C83.9476 15.6309 83.9311 15.5879 83.9241 15.5599L85.5199 15.161C85.433 14.8136 85.2196 14.5234 84.9014 14.3415L84.0853 15.7697ZM83.9661 15.6845C83.9483 15.643 83.9377 15.5943 83.9377 15.5447C83.9377 15.4968 83.9475 15.4646 83.9519 15.4528L85.4921 16.0303C85.6075 15.7226 85.6227 15.3742 85.478 15.0365L83.9661 15.6845ZM84.0031 15.3421C83.9069 15.5152 83.2925 16.7361 82.1827 18.9558L83.6539 19.6914C84.7797 17.4399 85.3677 16.2727 85.441 16.141L84.0031 15.3421ZM82.1827 18.9558C81.0628 21.1955 79.7232 23.9256 78.1642 27.1454L79.6446 27.8622C81.2018 24.6463 82.5382 21.9229 83.6539 19.6914L82.1827 18.9558ZM78.1611 27.1517C77.8588 27.79 77.548 28.4283 77.2288 29.0668L78.7 29.8024C79.0244 29.1536 79.3403 28.5048 79.6477 27.8559L78.1611 27.1517ZM77.9516 30.2569C79.0141 30.2735 80.0767 30.3316 81.1394 30.4312L81.293 28.7935C80.1879 28.6899 79.0826 28.6295 77.9773 28.6122L77.9516 30.2569ZM81.1435 30.4316C84.8074 30.7569 88.0893 30.7674 90.9834 30.4555L90.8072 28.8201C88.0446 29.1178 84.8738 29.1115 81.2889 28.7932L81.1435 30.4316ZM91.6413 29.9841C92.3006 28.5639 92.9685 27.1437 93.6448 25.7234L92.1597 25.0162C91.4811 26.4413 90.811 27.8664 90.1493 29.2915L91.6413 29.9841ZM93.6438 25.7255C95.4379 21.985 96.9685 18.8476 98.2361 16.3126L96.7649 15.577C95.4919 18.1228 93.9571 21.2688 92.1607 25.0142L93.6438 25.7255ZM98.2351 16.3145C98.8786 15.036 99.3715 14.0586 99.714 13.382C99.8853 13.0436 100.019 12.7812 100.114 12.5942C100.162 12.5007 100.2 12.4268 100.228 12.3723C100.243 12.345 100.254 12.3233 100.263 12.3067C100.267 12.2985 100.27 12.292 100.273 12.2871C100.274 12.2847 100.275 12.2828 100.276 12.2814C100.277 12.28 100.277 12.2794 100.277 12.2795L98.8393 11.4807C98.7438 11.6525 98.0452 13.0332 96.7658 15.575L98.2351 16.3145ZM100.294 12.2479C100.291 12.253 100.274 12.2852 100.232 12.3235C100.187 12.3644 100.129 12.3982 100.064 12.4168L99.6117 10.8352C99.2223 10.9465 98.9681 11.2213 98.8226 11.5123L100.294 12.2479ZM100.126 12.3961C100.093 12.4087 100.045 12.4186 99.9896 12.4151C99.9351 12.4117 99.8959 12.3968 99.8763 12.387L100.612 10.9158C100.283 10.7512 99.9096 10.7207 99.5489 10.8559L100.126 12.3961ZM99.8361 12.3655C99.8053 12.3479 99.7665 12.3175 99.7323 12.2719C99.6983 12.2267 99.6819 12.1837 99.6749 12.1557L101.271 11.7568C101.184 11.4094 100.97 11.1192 100.652 10.9373L99.8361 12.3655ZM99.7168 12.2803C99.6918 12.2218 99.6794 12.1536 99.6839 12.0858C99.6882 12.0217 99.7059 11.9813 99.7118 11.9695L101.183 12.7052C101.338 12.3951 101.392 12.0129 101.229 11.6323L99.7168 12.2803ZM99.7284 11.9379C99.6323 12.111 98.9414 13.4849 97.6794 16.0089L99.1506 16.7445C99.7857 15.4744 100.272 14.5034 100.61 13.8311C100.78 13.4949 100.911 13.2341 101.006 13.0483C101.053 12.9553 101.091 12.882 101.119 12.8279C101.133 12.8007 101.144 12.7793 101.152 12.763C101.157 12.7548 101.16 12.7485 101.163 12.7437C101.165 12.7387 101.166 12.7367 101.166 12.7368L99.7284 11.9379ZM97.6775 16.0128C96.4227 18.5563 94.8972 21.692 93.1013 25.4193L94.5831 26.1333C96.3777 22.4087 97.9008 19.2779 99.1526 16.7405L97.6775 16.0128ZM93.0987 25.4247C92.5053 26.6794 91.9203 27.9257 91.3438 29.1635L92.8349 29.858C93.41 28.6232 93.9936 27.3798 94.5857 26.128L93.0987 25.4247ZM92.1913 30.3269C94.6391 30.0209 96.4851 29.6745 97.6843 29.2748L97.1642 27.7144C96.1278 28.0598 94.4172 28.3909 91.9873 28.6947L92.1913 30.3269ZM97.6237 29.2925C97.5998 29.2984 97.5607 29.3035 97.5124 29.2971C97.4638 29.2906 97.4242 29.2749 97.3973 29.2595L98.2134 27.8313C97.9061 27.6557 97.5608 27.6127 97.2248 27.6967L97.6237 29.2925ZM97.4813 29.3013C97.4351 29.2815 97.3881 29.2494 97.3492 29.2066C97.3118 29.1654 97.2951 29.129 97.2893 29.1136L98.8294 28.5361C98.7104 28.2187 98.4801 27.9398 98.1293 27.7895L97.4813 29.3013ZM97.2615 29.0243C97.2544 28.9958 97.2516 28.9614 97.256 28.9261C97.2603 28.8917 97.2697 28.8701 97.2729 28.8635L98.7442 29.5991C98.8917 29.3041 98.9429 28.968 98.8572 28.6254L97.2615 29.0243ZM97.2526 28.9073C97.2755 28.854 97.3167 28.7925 97.3798 28.7409C97.441 28.6908 97.4985 28.6699 97.5296 28.6621L97.9286 30.2578C98.2895 30.1676 98.6031 29.9318 98.7645 29.5553L97.2526 28.9073ZM97.4754 28.6776C96.3039 29.0576 94.3231 29.4231 91.484 29.7611L91.6784 31.3944C94.53 31.055 96.6477 30.6753 97.9828 30.2423L97.4754 28.6776ZM90.8353 30.2312C89.8335 32.3879 88.8655 34.5361 87.9314 36.6761L89.4389 37.3341C90.3678 35.2061 91.3305 33.0695 92.3271 30.9243L90.8353 30.2312ZM87.9327 36.673C86.2674 40.4455 84.9948 43.6377 84.1201 46.2447L85.6796 46.768C86.5323 44.2264 87.7833 41.0844 89.4375 37.3372L87.9327 36.673ZM84.1169 46.2547C83.5053 48.1572 83.011 49.7762 82.6348 51.11L84.2179 51.5565C84.587 50.2481 85.0749 48.6493 85.6828 46.758L84.1169 46.2547ZM82.6341 51.1126C82.26 52.456 81.9688 53.5686 81.7621 54.4474L83.3632 54.8242C83.5629 53.9755 83.8476 52.8864 84.2187 51.5538L82.6341 51.1126ZM81.7621 54.4474C81.5577 55.3158 81.4098 56.0019 81.3211 56.4982L82.9404 56.7873C83.0211 56.3352 83.1611 55.6833 83.3632 54.8242L81.7621 54.4474ZM81.3166 56.5264C81.249 56.9997 81.2038 57.3492 81.1847 57.5591L82.8228 57.708C82.8376 57.5453 82.877 57.2342 82.9449 56.7591L81.3166 56.5264ZM81.1813 57.6335C81.1813 57.6339 81.1813 57.6343 81.1813 57.6347C81.1813 57.6351 81.1813 57.6355 81.1813 57.6359C81.1813 57.6363 81.1813 57.6367 81.1813 57.6371C81.1813 57.6375 81.1813 57.6379 81.1813 57.6383C81.1813 57.6387 81.1813 57.6391 81.1813 57.6394C81.1813 57.6398 81.1813 57.6402 81.1813 57.6406C81.1813 57.641 81.1813 57.6414 81.1813 57.6418C81.1813 57.6422 81.1813 57.6426 81.1813 57.643C81.1813 57.6434 81.1813 57.6438 81.1813 57.6442C81.1813 57.6445 81.1813 57.6449 81.1813 57.6453C81.1813 57.6457 81.1813 57.6461 81.1813 57.6465C81.1813 57.6469 81.1813 57.6473 81.1813 57.6477C81.1813 57.648 81.1813 57.6484 81.1813 57.6488C81.1813 57.6492 81.1813 57.6496 81.1813 57.65C81.1813 57.6504 81.1813 57.6508 81.1813 57.6511C81.1813 57.6515 81.1813 57.6519 81.1813 57.6523C81.1813 57.6527 81.1813 57.6531 81.1813 57.6535C81.1813 57.6538 81.1813 57.6542 81.1813 57.6546C81.1813 57.655 81.1813 57.6554 81.1813 57.6558C81.1813 57.6561 81.1813 57.6565 81.1813 57.6569C81.1813 57.6573 81.1813 57.6577 81.1813 57.6581C81.1813 57.6584 81.1813 57.6588 81.1813 57.6592C81.1813 57.6596 81.1813 57.66 81.1813 57.6603C81.1813 57.6607 81.1813 57.6611 81.1813 57.6615C81.1813 57.6619 81.1813 57.6622 81.1813 57.6626C81.1813 57.663 81.1813 57.6634 81.1813 57.6638C81.1813 57.6641 81.1813 57.6645 81.1813 57.6649C81.1813 57.6653 81.1813 57.6657 81.1813 57.666C81.1813 57.6664 81.1813 57.6668 81.1813 57.6672C81.1813 57.6675 81.1813 57.6679 81.1813 57.6683C81.1813 57.6687 81.1813 57.669 81.1813 57.6694C81.1813 57.6698 81.1813 57.6702 81.1813 57.6705C81.1813 57.6709 81.1813 57.6713 81.1813 57.6717C81.1813 57.672 81.1813 57.6724 81.1813 57.6728C81.1813 57.6732 81.1813 57.6735 81.1813 57.6739C81.1813 57.6743 81.1813 57.6746 81.1813 57.675C81.1813 57.6754 81.1813 57.6758 81.1813 57.6761C81.1813 57.6765 81.1813 57.6769 81.1813 57.6772C81.1813 57.6776 81.1813 57.678 81.1813 57.6783C81.1813 57.6787 81.1813 57.6791 81.1813 57.6794C81.1813 57.6798 81.1813 57.6802 81.1813 57.6806C81.1813 57.6809 81.1813 57.6813 81.1813 57.6817C81.1813 57.682 81.1813 57.6824 81.1813 57.6828C81.1813 57.6831 81.1813 57.6835 81.1813 57.6839C81.1813 57.6842 81.1813 57.6846 81.1813 57.685C81.1813 57.6853 81.1813 57.6857 81.1813 57.686C81.1813 57.6864 81.1813 57.6868 81.1813 57.6871C81.1813 57.6875 81.1813 57.6879 81.1813 57.6882C81.1813 57.6886 81.1813 57.689 81.1813 57.6893C81.1813 57.6897 81.1813 57.69 81.1813 57.6904C81.1813 57.6908 81.1813 57.6911 81.1813 57.6915C81.1813 57.6918 81.1813 57.6922 81.1813 57.6926C81.1813 57.6929 81.1813 57.6933 81.1813 57.6936C81.1813 57.694 81.1813 57.6944 81.1813 57.6947C81.1813 57.6951 81.1813 57.6954 81.1813 57.6958C81.1813 57.6962 81.1813 57.6965 81.1813 57.6969C81.1813 57.6972 81.1813 57.6976 81.1813 57.6979C81.1813 57.6983 81.1813 57.6986 81.1813 57.699C81.1813 57.6994 81.1813 57.6997 81.1813 57.7001C81.1813 57.7004 81.1813 57.7008 81.1813 57.7011C81.1813 57.7015 81.1813 57.7018 81.1813 57.7022C81.1813 57.7025 81.1813 57.7029 81.1813 57.7033C81.1813 57.7036 81.1813 57.704 81.1813 57.7043C81.1813 57.7047 81.1813 57.705 81.1813 57.7054C81.1813 57.7057 81.1813 57.7061 81.1813 57.7064C81.1813 57.7068 81.1813 57.7071 81.1813 57.7075C81.1813 57.7078 81.1813 57.7082 81.1813 57.7085C81.1813 57.7089 81.1813 57.7092 81.1813 57.7096C81.1813 57.7099 81.1813 57.7103 81.1813 57.7106C81.1813 57.711 81.1813 57.7113 81.1813 57.7117C81.1813 57.712 81.1813 57.7124 81.1813 57.7127C81.1813 57.713 81.1813 57.7134 81.1813 57.7137C81.1813 57.7141 81.1813 57.7144 81.1813 57.7148C81.1813 57.7151 81.1813 57.7155 81.1813 57.7158C81.1813 57.7162 81.1813 57.7165 81.1813 57.7168C81.1813 57.7172 81.1813 57.7175 81.1813 57.7179C81.1813 57.7182 81.1813 57.7186 81.1813 57.7189C81.1813 57.7192 81.1813 57.7196 81.1813 57.7199C81.1813 57.7203 81.1813 57.7206 81.1813 57.7209C81.1813 57.7213 81.1813 57.7216 81.1813 57.722C81.1813 57.7223 81.1813 57.7226 81.1813 57.723C81.1813 57.7233 81.1813 57.7237 81.1813 57.724C81.1813 57.7243 81.1813 57.7247 81.1813 57.725C81.1813 57.7254 81.1813 57.7257 81.1813 57.726C81.1813 57.7264 81.1813 57.7267 81.1813 57.727C81.1813 57.7274 81.1813 57.7277 81.1813 57.728C81.1813 57.7284 81.1813 57.7287 81.1813 57.7291C81.1813 57.7294 81.1813 57.7297 81.1813 57.7301C81.1813 57.7304 81.1813 57.7307 81.1813 57.7311C81.1813 57.7314 81.1813 57.7317 81.1813 57.7321C81.1813 57.7324 81.1813 57.7327 81.1813 57.7331C81.1813 57.7334 81.1813 57.7337 81.1813 57.7341C81.1813 57.7344 81.1813 57.7347 81.1813 57.735C81.1813 57.7354 81.1813 57.7357 81.1813 57.736C81.1813 57.7364 81.1813 57.7367 81.1813 57.737C81.1813 57.7374 81.1813 57.7377 81.1813 57.738C81.1813 57.7383 81.1813 57.7387 81.1813 57.739C81.1813 57.7393 81.1813 57.7397 81.1813 57.74C81.1813 57.7403 81.1813 57.7406 81.1813 57.741C81.1813 57.7413 81.1813 57.7416 81.1813 57.7419C81.1813 57.7423 81.1813 57.7426 81.1813 57.7429C81.1813 57.7432 81.1813 57.7436 81.1813 57.7439C81.1813 57.7442 81.1813 57.7445 81.1813 57.7449C81.1813 57.7452 81.1813 57.7455 81.1813 57.7458C81.1813 57.7462 81.1813 57.7465 81.1813 57.7468C81.1813 57.7471 81.1813 57.7475 81.1813 57.7478C81.1813 57.7481 81.1813 57.7484 81.1813 57.7487C81.1813 57.7491 81.1813 57.7494 81.1813 57.7497C81.1813 57.75 81.1813 57.7503 81.1813 57.7507C81.1813 57.751 81.1813 57.7513 81.1813 57.7516C81.1813 57.7519 81.1813 57.7523 81.1813 57.7526C81.1813 57.7529 81.1813 57.7532 81.1813 57.7535C81.1813 57.7538 81.1813 57.7542 81.1813 57.7545C81.1813 57.7548 81.1813 57.7551 81.1813 57.7554C81.1813 57.7557 81.1813 57.7561 81.1813 57.7564C81.1813 57.7567 81.1813 57.757 81.1813 57.7573C81.1813 57.7576 81.1813 57.7579 81.1813 57.7583C81.1813 57.7586 81.1813 57.7589 81.1813 57.7592C81.1813 57.7595 81.1813 57.7598 81.1813 57.7601C81.1813 57.7604 81.1813 57.7608 81.1813 57.7611C81.1813 57.7614 81.1813 57.7617 81.1813 57.762C81.1813 57.7623 81.1813 57.7626 81.1813 57.7629C81.1813 57.7632 81.1813 57.7636 81.1813 57.7639C81.1813 57.7642 81.1813 57.7645 81.1813 57.7648C81.1813 57.7651 81.1813 57.7654 81.1813 57.7657C81.1813 57.766 81.1813 57.7663 81.1813 57.7666C81.1813 57.7669 81.1813 57.7673 81.1813 57.7676C81.1813 57.7679 81.1813 57.7682 81.1813 57.7685C81.1813 57.7688 81.1813 57.7691 81.1813 57.7694C81.1813 57.7697 81.1813 57.77 81.1813 57.7703C81.1813 57.7706 81.1813 57.7709 81.1813 57.7712C81.1813 57.7715 81.1813 57.7718 81.1813 57.7721C81.1813 57.7724 81.1813 57.7727 81.1813 57.773C81.1813 57.7733 81.1813 57.7737 81.1813 57.774C81.1813 57.7743 81.1813 57.7746 81.1813 57.7749C81.1813 57.7752 81.1813 57.7755 81.1813 57.7758C81.1813 57.7761 81.1813 57.7764 81.1813 57.7767C81.1813 57.777 81.1813 57.7773 81.1813 57.7776C81.1813 57.7779 81.1813 57.7782 81.1813 57.7785C81.1813 57.7787 81.1813 57.779 81.1813 57.7793C81.1813 57.7796 81.1813 57.7799 81.1813 57.7802C81.1813 57.7805 81.1813 57.7808 81.1813 57.7811C81.1813 57.7814 81.1813 57.7817 81.1813 57.782C81.1813 57.7823 81.1813 57.7826 81.1813 57.7829C81.1813 57.7832 81.1813 57.7835 81.1813 57.7838C81.1813 57.7841 81.1813 57.7844 81.1813 57.7847C81.1813 57.785 81.1813 57.7852 81.1813 57.7855C81.1813 57.7858 81.1813 57.7861 81.1813 57.7864C81.1813 57.7867 81.1813 57.787 81.1813 57.7873C81.1813 57.7876 81.1813 57.7879 81.1813 57.7882C81.1813 57.7885 81.1813 57.7887 81.1813 57.789C81.1813 57.7893 81.1813 57.7896 81.1813 57.7899C81.1813 57.7902 81.1813 57.7905 81.1813 57.7908C81.1813 57.7911 81.1813 57.7913 81.1813 57.7916C81.1813 57.7919 81.1813 57.7922 81.1813 57.7925C81.1813 57.7928 81.1813 57.7931 81.1813 57.7933C81.1813 57.7936 81.1813 57.7939 81.1813 57.7942C81.1813 57.7945 81.1813 57.7948 81.1813 57.7951C81.1813 57.7953 81.1813 57.7956 81.1813 57.7959C81.1813 57.7962 81.1813 57.7965 81.1813 57.7968C81.1813 57.797 81.1813 57.7973 81.1813 57.7976C81.1813 57.7979 81.1813 57.7982 81.1813 57.7985C81.1813 57.7987 81.1813 57.799 81.1813 57.7993C81.1813 57.7996 81.1813 57.7999 81.1813 57.8001C81.1813 57.8004 81.1813 57.8007 81.1813 57.801C81.1813 57.8013 81.1813 57.8015 81.1813 57.8018C81.1813 57.8021 81.1813 57.8024 81.1813 57.8027C81.1813 57.8029 81.1813 57.8032 81.1813 57.8035C81.1813 57.8038 81.1813 57.804 81.1813 57.8043C81.1813 57.8046 81.1813 57.8049 81.1813 57.8052C81.1813 57.8054 81.1813 57.8057 81.1813 57.806C81.1813 57.8063 81.1813 57.8065 81.1813 57.8068C81.1813 57.8071 81.1813 57.8074 81.1813 57.8076C81.1813 57.8079 81.1813 57.8082 81.1813 57.8085C81.1813 57.8087 81.1813 57.809 81.1813 57.8093C81.1813 57.8095 81.1813 57.8098 81.1813 57.8101C81.1813 57.8104 81.1813 57.8106 81.1813 57.8109C81.1813 57.8112 81.1813 57.8114 81.1813 57.8117C81.1813 57.812 81.1813 57.8123 81.1813 57.8125C81.1813 57.8128 81.1813 57.8131 81.1813 57.8133C81.1813 57.8136 81.1813 57.8139 81.1813 57.8141C81.1813 57.8144 81.1813 57.8147 81.1813 57.8149C81.1813 57.8152 81.1813 57.8155 81.1813 57.8157C81.1813 57.816 81.1813 57.8163 81.1813 57.8165C81.1813 57.8168 81.1813 57.8171 81.1813 57.8173C81.1813 57.8176 81.1813 57.8179 81.1813 57.8181C81.1813 57.8184 81.1813 57.8187 81.1813 57.8189C81.1813 57.8192 81.1813 57.8195 81.1813 57.8197C81.1813 57.82 81.1813 57.8202 81.1813 57.8205C81.1813 57.8208 81.1813 57.821 81.1813 57.8213C81.1813 57.8216 81.1813 57.8218 81.1813 57.8221C81.1813 57.8223 81.1813 57.8226 81.1813 57.8229C81.1813 57.8231 81.1813 57.8234 81.1813 57.8236C81.1813 57.8239 81.1813 57.8242 81.1813 57.8244C81.1813 57.8247 81.1813 57.8249 81.1813 57.8252C81.1813 57.8255 81.1813 57.8257 81.1813 57.826C81.1813 57.8262 81.1813 57.8265 81.1813 57.8267C81.1813 57.827 81.1813 57.8273 81.1813 57.8275C81.1813 57.8278 81.1813 57.828 81.1813 57.8283C81.1813 57.8285 81.1813 57.8288 81.1813 57.829C81.1813 57.8293 81.1813 57.8296 81.1813 57.8298C81.1813 57.8301 81.1813 57.8303 81.1813 57.8306C81.1813 57.8308 81.1813 57.8311 81.1813 57.8313C81.1813 57.8316 81.1813 57.8318 81.1813 57.8321C81.1813 57.8323 81.1813 57.8326 81.1813 57.8328C81.1813 57.8331 81.1813 57.8333 81.1813 57.8336C81.1813 57.8338 81.1813 57.8341 81.1813 57.8343C81.1813 57.8346 81.1813 57.8348 81.1813 57.8351C81.1813 57.8353 81.1813 57.8356 81.1813 57.8358C81.1813 57.8361 81.1813 57.8363 81.1813 57.8366C81.1813 57.8368 81.1813 57.8371 81.1813 57.8373C81.1813 57.8376 81.1813 57.8378 81.1813 57.8381C81.1813 57.8383 81.1813 57.8386 81.1813 57.8388C81.1813 57.8391 81.1813 57.8393 81.1813 57.8395C81.1813 57.8398 81.1813 57.84 81.1813 57.8403C81.1813 57.8405 81.1813 57.8408 81.1813 57.841C81.1813 57.8412 81.1813 57.8415 81.1813 57.8417C81.1813 57.842 81.1813 57.8422 81.1813 57.8425C81.1813 57.8427 81.1813 57.8429 81.1813 57.8432C81.1813 57.8434 81.1813 57.8437 81.1813 57.8439C81.1813 57.8442 81.1813 57.8444 81.1813 57.8446C81.1813 57.8449 81.1813 57.8451 81.1813 57.8453C81.1813 57.8456 81.1813 57.8458 81.1813 57.8461C81.1813 57.8463 81.1813 57.8465 81.1813 57.8468C81.1813 57.847 81.1813 57.8473 81.1813 57.8475C81.1813 57.8477 81.1813 57.848 81.1813 57.8482C81.1813 57.8484 81.1813 57.8487 81.1813 57.8489C81.1813 57.8491 81.1813 57.8494 81.1813 57.8496C81.1813 57.8499 81.1813 57.8501 81.1813 57.8503C81.1813 57.8506 81.1813 57.8508 81.1813 57.851C81.1813 57.8513 81.1813 57.8515 81.1813 57.8517C81.1813 57.852 81.1813 57.8522 81.1813 57.8524C81.1813 57.8527 81.1813 57.8529 81.1813 57.8531C81.1813 57.8533 81.1813 57.8536 81.1813 57.8538C81.1813 57.854 81.1813 57.8543 81.1813 57.8545C81.1813 57.8547 81.1813 57.855 81.1813 57.8552C81.1813 57.8554 81.1813 57.8556 81.1813 57.8559C81.1813 57.8561 81.1813 57.8563 81.1813 57.8566C81.1813 57.8568 81.1813 57.857 81.1813 57.8572C81.1813 57.8575 81.1813 57.8577 81.1813 57.8579C81.1813 57.8581 81.1813 57.8584 81.1813 57.8586C81.1813 57.8588 81.1813 57.859 81.1813 57.8593C81.1813 57.8595 81.1813 57.8597 81.1813 57.8599C81.1813 57.8602 81.1813 57.8604 81.1813 57.8606C81.1813 57.8608 81.1813 57.8611 81.1813 57.8613C81.1813 57.8615 81.1813 57.8617 81.1813 57.862C81.1813 57.8622 81.1813 57.8624 81.1813 57.8626C81.1813 57.8628 81.1813 57.8631 81.1813 57.8633C81.1813 57.8635 81.1813 57.8637 81.1813 57.8639C81.1813 57.8642 81.1813 57.8644 81.1813 57.8646C81.1813 57.8648 81.1813 57.865 81.1813 57.8653C81.1813 57.8655 81.1813 57.8657 81.1813 57.8659C81.1813 57.8661 81.1813 57.8664 81.1813 57.8666C81.1813 57.8668 81.1813 57.867 81.1813 57.8672C81.1813 57.8674 81.1813 57.8677 81.1813 57.8679C81.1813 57.8681 81.1813 57.8683 81.1813 57.8685C81.1813 57.8687 81.1813 57.8689 81.1813 57.8692C81.1813 57.8694 81.1813 57.8696 81.1813 57.8698C81.1813 57.87 81.1813 57.8702 81.1813 57.8704C81.1813 57.8707 81.1813 57.8709 81.1813 57.8711C81.1813 57.8713 81.1813 57.8715 81.1813 57.8717C81.1813 57.8719 81.1813 57.8721 81.1813 57.8723C81.1813 57.8726 81.1813 57.8728 81.1813 57.873C81.1813 57.8732 81.1813 57.8734 81.1813 57.8736C81.1813 57.8738 81.1813 57.874 81.1813 57.8742C81.1813 57.8744 81.1813 57.8746 81.1813 57.8749C81.1813 57.8751 81.1813 57.8753 81.1813 57.8755C81.1813 57.8757 81.1813 57.8759 81.1813 57.8761C81.1813 57.8763 81.1813 57.8765 81.1813 57.8767C81.1813 57.8769 81.1813 57.8771 81.1813 57.8773C81.1813 57.8775 81.1813 57.8777 81.1813 57.8779C81.1813 57.8782 81.1813 57.8784 81.1813 57.8786C81.1813 57.8788 81.1813 57.879 81.1813 57.8792C81.1813 57.8794 81.1813 57.8796 81.1813 57.8798C81.1813 57.88 81.1813 57.8802 81.1813 57.8804C81.1813 57.8806 81.1813 57.8808 81.1813 57.881C81.1813 57.8812 81.1813 57.8814 81.1813 57.8816C81.1813 57.8818 81.1813 57.882 81.1813 57.8822C81.1813 57.8824 81.1813 57.8826 81.1813 57.8828C81.1813 57.883 81.1813 57.8832 81.1813 57.8834C81.1813 57.8836 81.1813 57.8838 81.1813 57.884C81.1813 57.8842 81.1813 57.8844 81.1813 57.8846C81.1813 57.8848 81.1813 57.885 81.1813 57.8852C81.1813 57.8853 81.1813 57.8855 81.1813 57.8857C81.1813 57.8859 81.1813 57.8861 81.1813 57.8863C81.1813 57.8865 81.1813 57.8867 81.1813 57.8869C81.1813 57.8871 81.1813 57.8873 81.1813 57.8875C81.1813 57.8877 81.1813 57.8879 81.1813 57.8881C81.1813 57.8883 81.1813 57.8884 81.1813 57.8886C81.1813 57.8888 81.1813 57.889 81.1813 57.8892C81.1813 57.8894 81.1813 57.8896 81.1813 57.8898C81.1813 57.89 81.1813 57.8902 81.1813 57.8904C81.1813 57.8905 81.1813 57.8907 81.1813 57.8909C81.1813 57.8911 81.1813 57.8913 81.1813 57.8915C81.1813 57.8917 81.1813 57.8919 81.1813 57.892C81.1813 57.8922 81.1813 57.8924 81.1813 57.8926C81.1813 57.8928 81.1813 57.893 81.1813 57.8932C81.1813 57.8934 81.1813 57.8935 81.1813 57.8937C81.1813 57.8939 81.1813 57.8941 81.1813 57.8943C81.1813 57.8945 81.1813 57.8946 81.1813 57.8948C81.1813 57.895 81.1813 57.8952 81.1813 57.8954C81.1813 57.8956 81.1813 57.8957 81.1813 57.8959C81.1813 57.8961 81.1813 57.8963 81.1813 57.8965C81.1813 57.8967 81.1813 57.8968 81.1813 57.897C81.1813 57.8972 81.1813 57.8974 81.1813 57.8976C81.1813 57.8977 81.1813 57.8979 81.1813 57.8981C81.1813 57.8983 81.1813 57.8985 81.1813 57.8986C81.1813 57.8988 81.1813 57.899 81.1813 57.8992C81.1813 57.8994 81.1813 57.8995 81.1813 57.8997C81.1813 57.8999 81.1813 57.9001 81.1813 57.9002C81.1813 57.9004 81.1813 57.9006 81.1813 57.9008C81.1813 57.9009 81.1813 57.9011 81.1813 57.9013C81.1813 57.9015 81.1813 57.9016 81.1813 57.9018C81.1813 57.902 81.1813 57.9022 81.1813 57.9023C81.1813 57.9025 81.1813 57.9027 81.1813 57.9029C81.1813 57.903 81.1813 57.9032 81.1813 57.9034C81.1813 57.9035 81.1813 57.9037 81.1813 57.9039C81.1813 57.9041 81.1813 57.9042 81.1813 57.9044C81.1813 57.9046 81.1813 57.9047 81.1813 57.9049C81.1813 57.9051 81.1813 57.9053 81.1813 57.9054C81.1813 57.9056 81.1813 57.9058 81.1813 57.9059C81.1813 57.9061 81.1813 57.9063 81.1813 57.9064C81.1813 57.9066 81.1813 57.9068 81.1813 57.9069C81.1813 57.9071 81.1813 57.9073 81.1813 57.9074C81.1813 57.9076 81.1813 57.9078 81.1813 57.9079C81.1813 57.9081 81.1813 57.9083 81.1813 57.9084C81.1813 57.9086 81.1813 57.9088 81.1813 57.9089C81.1813 57.9091 81.1813 57.9093 81.1813 57.9094C81.1813 57.9096 81.1813 57.9098 81.1813 57.9099C81.1813 57.9101 81.1813 57.9102 81.1813 57.9104C81.1813 57.9106 81.1813 57.9107 81.1813 57.9109C81.1813 57.9111 81.1813 57.9112 81.1813 57.9114C81.1813 57.9115 81.1813 57.9117 81.1813 57.9119C81.1813 57.912 81.1813 57.9122 81.1813 57.9123C81.1813 57.9125 81.1813 57.9127 81.1813 57.9128C81.1813 57.913 81.1813 57.9131 81.1813 57.9133C81.1813 57.9135 81.1813 57.9136 81.1813 57.9138C81.1813 57.9139 81.1813 57.9141 81.1813 57.9142C81.1813 57.9144 81.1813 57.9146 81.1813 57.9147C81.1813 57.9149 81.1813 57.915 81.1813 57.9152C81.1813 57.9153 81.1813 57.9155 81.1813 57.9156C81.1813 57.9158 81.1813 57.9159 81.1813 57.9161C81.1813 57.9163 81.1813 57.9164 81.1813 57.9166C81.1813 57.9167 81.1813 57.9169 81.1813 57.917C81.1813 57.9172 81.1813 57.9173 81.1813 57.9175C81.1813 57.9176 81.1813 57.9178 81.1813 57.9179C81.1813 57.9181 81.1813 57.9182 81.1813 57.9184C81.1813 57.9185 81.1813 57.9187 81.1813 57.9188C81.1813 57.919 81.1813 57.9191 81.1813 57.9193C81.1813 57.9194 81.1813 57.9196 81.1813 57.9197C81.1813 57.9199 81.1813 57.92 81.1813 57.9202C81.1813 57.9203 81.1813 57.9205 81.1813 57.9206C81.1813 57.9208 81.1813 57.9209 81.1813 57.9211C81.1813 57.9212 81.1813 57.9213 81.1813 57.9215C81.1813 57.9216 81.1813 57.9218 81.1813 57.9219C81.1813 57.9221 81.1813 57.9222 81.1813 57.9224C81.1813 57.9225 81.1813 57.9226 81.1813 57.9228C81.1813 57.9229 81.1813 57.9231 81.1813 57.9232C81.1813 57.9234 81.1813 57.9235 81.1813 57.9236C81.1813 57.9238 81.1813 57.9239 81.1813 57.9241C81.1813 57.9242 81.1813 57.9243 81.1813 57.9245C81.1813 57.9246 81.1813 57.9248 81.1813 57.9249C81.1813 57.925 81.1813 57.9252 81.1813 57.9253C81.1813 57.9255 81.1813 57.9256 81.1813 57.9257C81.1813 57.9259 81.1813 57.926 81.1813 57.9262C81.1813 57.9263 81.1813 57.9264 81.1813 57.9266C81.1813 57.9267 81.1813 57.9268 81.1813 57.927C81.1813 57.9271 81.1813 57.9272 81.1813 57.9274C81.1813 57.9275 81.1813 57.9277 81.1813 57.9278C81.1813 57.9279 81.1813 57.9281 81.1813 57.9282C81.1813 57.9283 81.1813 57.9285 81.1813 57.9286C81.1813 57.9287 81.1813 57.9289 81.1813 57.929C81.1813 57.9291 81.1813 57.9293 81.1813 57.9294C81.1813 57.9295 81.1813 57.9297 81.1813 57.9298C81.1813 57.9299 81.1813 57.93 81.1813 57.9302C81.1813 57.9303 81.1813 57.9304 81.1813 57.9306C81.1813 57.9307 81.1813 57.9308 81.1813 57.931C81.1813 57.9311 81.1813 57.9312 81.1813 57.9313C81.1813 57.9315 81.1813 57.9316 81.1813 57.9317C81.1813 57.9319 81.1813 57.932 81.1813 57.9321C81.1813 57.9322 81.1813 57.9324 81.1813 57.9325C81.1813 57.9326 81.1813 57.9327 81.1813 57.9329C81.1813 57.933 81.1813 57.9331 81.1813 57.9332C81.1813 57.9334 81.1813 57.9335 81.1813 57.9336C81.1813 57.9337 81.1813 57.9339 81.1813 57.934C81.1813 57.9341 81.1813 57.9342 81.1813 57.9344C81.1813 57.9345 81.1813 57.9346 81.1813 57.9347C81.1813 57.9348 81.1813 57.935 81.1813 57.9351C81.1813 57.9352 81.1813 57.9353 81.1813 57.9354C81.1813 57.9356 81.1813 57.9357 81.1813 57.9358C81.1813 57.9359 81.1813 57.936 81.1813 57.9362C81.1813 57.9363 81.1813 57.9364 81.1813 57.9365C81.1813 57.9366 81.1813 57.9368 81.1813 57.9369C81.1813 57.937 81.1813 57.9371 81.1813 57.9372C81.1813 57.9373 81.1813 57.9375 81.1813 57.9376C81.1813 57.9377 81.1813 57.9378 81.1813 57.9379C81.1813 57.938 81.1813 57.9382 81.1813 57.9383C81.1813 57.9384 81.1813 57.9385 81.1813 57.9386C81.1813 57.9387 81.1813 57.9388 81.1813 57.939C81.1813 57.9391 81.1813 57.9392 81.1813 57.9393C81.1813 57.9394 81.1813 57.9395 81.1813 57.9396C81.1813 57.9397 81.1813 57.9399 81.1813 57.94C81.1813 57.9401 81.1813 57.9402 81.1813 57.9403C81.1813 57.9404 81.1813 57.9405 81.1813 57.9406C81.1813 57.9407 81.1813 57.9408 81.1813 57.941C81.1813 57.9411 81.1813 57.9412 81.1813 57.9413C81.1813 57.9414 81.1813 57.9415 81.1813 57.9416C81.1813 57.9417 81.1813 57.9418 81.1813 57.9419C81.1813 57.942 81.1813 57.9421 81.1813 57.9422C81.1813 57.9424 81.1813 57.9425 81.1813 57.9426C81.1813 57.9427 81.1813 57.9428 81.1813 57.9429C81.1813 57.943 81.1813 57.9431 81.1813 57.9432C81.1813 57.9433 81.1813 57.9434 81.1813 57.9435C81.1813 57.9436 81.1813 57.9437 81.1813 57.9438C81.1813 57.9439 81.1813 57.944 81.1813 57.9441C81.1813 57.9442 81.1813 57.9443 81.1813 57.9444C81.1813 57.9445 81.1813 57.9446 81.1813 57.9447C81.1813 57.9448 81.1813 57.9449 81.1813 57.945C81.1813 57.9451 81.1813 57.9452 81.1813 57.9453C81.1813 57.9454 81.1813 57.9455 81.1813 57.9456C81.1813 57.9457 81.1813 57.9458 81.1813 57.9459C81.1813 57.946 81.1813 57.9461 81.1813 57.9462C81.1813 57.9463 81.1813 57.9464 81.1813 57.9465C81.1813 57.9466 81.1813 57.9467 81.1813 57.9468C81.1813 57.9469 81.1813 57.947 81.1813 57.9471C81.1813 57.9472 81.1813 57.9473 81.1813 57.9474C81.1813 57.9475 81.1813 57.9475 81.1813 57.9476C81.1813 57.9477 81.1813 57.9478 81.1813 57.9479C81.1813 57.948 81.1813 57.9481 81.1813 57.9482C81.1813 57.9483 81.1813 57.9484 81.1813 57.9485C81.1813 57.9486 81.1813 57.9487 81.1813 57.9487C81.1813 57.9488 81.1813 57.9489 81.1813 57.949C81.1813 57.9491 81.1813 57.9492 81.1813 57.9493C81.1813 57.9494 81.1813 57.9495 81.1813 57.9496C81.1813 57.9496 81.1813 57.9497 81.1813 57.9498C81.1813 57.9499 81.1813 57.95 81.1813 57.9501C81.1813 57.9502 81.1813 57.9503 81.1813 57.9503C81.1813 57.9504 81.1813 57.9505 81.1813 57.9506C81.1813 57.9507 81.1813 57.9508 81.1813 57.9509C81.1813 57.9509 81.1813 57.951 81.1813 57.9511C81.1813 57.9512 81.1813 57.9513 81.1813 57.9514C81.1813 57.9514 81.1813 57.9515 81.1813 57.9516C81.1813 57.9517 81.1813 57.9518 81.1813 57.9519C81.1813 57.9519 81.1813 57.952 81.1813 57.9521C81.1813 57.9522 81.1813 57.9523 81.1813 57.9523C81.1813 57.9524 81.1813 57.9525 81.1813 57.9526C81.1813 57.9527 81.1813 57.9527 81.1813 57.9528C81.1813 57.9529 81.1813 57.953 81.1813 57.9531C81.1813 57.9531 81.1813 57.9532 81.1813 57.9533C81.1813 57.9534 81.1813 57.9535 81.1813 57.9535C81.1813 57.9536 81.1813 57.9537 81.1813 57.9538C81.1813 57.9538 81.1813 57.9539 81.1813 57.954C81.1813 57.9541 81.1813 57.9541 81.1813 57.9542C81.1813 57.9543 81.1813 57.9544 81.1813 57.9544C81.1813 57.9545 81.1813 57.9546 81.1813 57.9547C81.1813 57.9547 81.1813 57.9548 81.1813 57.9549C81.1813 57.955 81.1813 57.955 81.1813 57.9551C81.1813 57.9552 81.1813 57.9552 81.1813 57.9553C81.1813 57.9554 81.1813 57.9555 81.1813 57.9555C81.1813 57.9556 81.1813 57.9557 81.1813 57.9557C81.1813 57.9558 81.1813 57.9559 81.1813 57.9559C81.1813 57.956 81.1813 57.9561 81.1813 57.9562C81.1813 57.9562 81.1813 57.9563 81.1813 57.9564C81.1813 57.9564 81.1813 57.9565 81.1813 57.9566C81.1813 57.9566 81.1813 57.9567 81.1813 57.9568C81.1813 57.9568 81.1813 57.9569 81.1813 57.957C81.1813 57.957 81.1813 57.9571 81.1813 57.9572C81.1813 57.9572 81.1813 57.9573 81.1813 57.9573C81.1813 57.9574 81.1813 57.9575 81.1813 57.9575C81.1813 57.9576 81.1813 57.9577 81.1813 57.9577C81.1813 57.9578 81.1813 57.9579 81.1813 57.9579C81.1813 57.958 81.1813 57.958 81.1813 57.9581C81.1813 57.9582 81.1813 57.9582 81.1813 57.9583C81.1813 57.9583 81.1813 57.9584 81.1813 57.9585C81.1813 57.9585 81.1813 57.9586 81.1813 57.9586C81.1813 57.9587 81.1813 57.9588 81.1813 57.9588C81.1813 57.9589 81.1813 57.9589 81.1813 57.959C81.1813 57.9591 81.1813 57.9591 81.1813 57.9592C81.1813 57.9592 81.1813 57.9593 81.1813 57.9593C81.1813 57.9594 81.1813 57.9595 81.1813 57.9595C81.1813 57.9596 81.1813 57.9596 81.1813 57.9597C81.1813 57.9597 81.1813 57.9598 81.1813 57.9598C81.1813 57.9599 81.1813 57.96 81.1813 57.96C81.1813 57.9601 81.1813 57.9601 81.1813 57.9602C81.1813 57.9602 81.1813 57.9603 81.1813 57.9603C81.1813 57.9604 81.1813 57.9604 81.1813 57.9605C81.1813 57.9605 81.1813 57.9606 81.1813 57.9606C81.1813 57.9607 81.1813 57.9607 81.1813 57.9608C81.1813 57.9608 81.1813 57.9609 81.1813 57.9609C81.1813 57.961 81.1813 57.961 81.1813 57.9611C81.1813 57.9611 81.1813 57.9612 81.1813 57.9612C81.1813 57.9613 81.1813 57.9613 81.1813 57.9614C81.1813 57.9614 81.1813 57.9615 81.1813 57.9615C81.1813 57.9616 81.1813 57.9616 81.1813 57.9616C81.1813 57.9617 81.1813 57.9617 81.1813 57.9618C81.1813 57.9618 81.1813 57.9619 81.1813 57.9619C81.1813 57.962 81.1813 57.962 81.1813 57.9621C81.1813 57.9621 81.1813 57.9621 81.1813 57.9622C81.1813 57.9622 81.1813 57.9623 81.1813 57.9623C81.1813 57.9624 81.1813 57.9624 81.1813 57.9624C81.1813 57.9625 81.1813 57.9625 81.1813 57.9626C81.1813 57.9626 81.1813 57.9626 81.1813 57.9627C81.1813 57.9627 81.1813 57.9628 81.1813 57.9628C81.1813 57.9628 81.1813 57.9629 81.1813 57.9629C81.1813 57.963 81.1813 57.963 81.1813 57.963C81.1813 57.9631 81.1813 57.9631 81.1813 57.9631C81.1813 57.9632 81.1813 57.9632 81.1813 57.9633C81.1813 57.9633 81.1813 57.9633 81.1813 57.9634C81.1813 57.9634 81.1813 57.9634 81.1813 57.9635C81.1813 57.9635 81.1813 57.9635 81.1813 57.9636C81.1813 57.9636 81.1813 57.9636 81.1813 57.9637C81.1813 57.9637 81.1813 57.9637 81.1813 57.9638H82.8262C82.8262 57.9637 82.8262 57.9637 82.8262 57.9637C82.8262 57.9636 82.8262 57.9636 82.8262 57.9636C82.8262 57.9635 82.8262 57.9635 82.8262 57.9635C82.8262 57.9634 82.8262 57.9634 82.8262 57.9634C82.8262 57.9633 82.8262 57.9633 82.8262 57.9633C82.8262 57.9632 82.8262 57.9632 82.8262 57.9631C82.8262 57.9631 82.8262 57.9631 82.8262 57.963C82.8262 57.963 82.8262 57.963 82.8262 57.9629C82.8262 57.9629 82.8262 57.9628 82.8262 57.9628C82.8262 57.9628 82.8262 57.9627 82.8262 57.9627C82.8262 57.9626 82.8262 57.9626 82.8262 57.9626C82.8262 57.9625 82.8262 57.9625 82.8262 57.9624C82.8262 57.9624 82.8262 57.9624 82.8262 57.9623C82.8262 57.9623 82.8262 57.9622 82.8262 57.9622C82.8262 57.9621 82.8262 57.9621 82.8262 57.9621C82.8262 57.962 82.8262 57.962 82.8262 57.9619C82.8262 57.9619 82.8262 57.9618 82.8262 57.9618C82.8262 57.9617 82.8262 57.9617 82.8262 57.9616C82.8262 57.9616 82.8262 57.9616 82.8262 57.9615C82.8262 57.9615 82.8262 57.9614 82.8262 57.9614C82.8262 57.9613 82.8262 57.9613 82.8262 57.9612C82.8262 57.9612 82.8262 57.9611 82.8262 57.9611C82.8262 57.961 82.8262 57.961 82.8262 57.9609C82.8262 57.9609 82.8262 57.9608 82.8262 57.9608C82.8262 57.9607 82.8262 57.9607 82.8262 57.9606C82.8262 57.9606 82.8262 57.9605 82.8262 57.9605C82.8262 57.9604 82.8262 57.9604 82.8262 57.9603C82.8262 57.9603 82.8262 57.9602 82.8262 57.9602C82.8262 57.9601 82.8262 57.9601 82.8262 57.96C82.8262 57.96 82.8262 57.9599 82.8262 57.9598C82.8262 57.9598 82.8262 57.9597 82.8262 57.9597C82.8262 57.9596 82.8262 57.9596 82.8262 57.9595C82.8262 57.9595 82.8262 57.9594 82.8262 57.9593C82.8262 57.9593 82.8262 57.9592 82.8262 57.9592C82.8262 57.9591 82.8262 57.9591 82.8262 57.959C82.8262 57.9589 82.8262 57.9589 82.8262 57.9588C82.8262 57.9588 82.8262 57.9587 82.8262 57.9586C82.8262 57.9586 82.8262 57.9585 82.8262 57.9585C82.8262 57.9584 82.8262 57.9583 82.8262 57.9583C82.8262 57.9582 82.8262 57.9582 82.8262 57.9581C82.8262 57.958 82.8262 57.958 82.8262 57.9579C82.8262 57.9579 82.8262 57.9578 82.8262 57.9577C82.8262 57.9577 82.8262 57.9576 82.8262 57.9575C82.8262 57.9575 82.8262 57.9574 82.8262 57.9573C82.8262 57.9573 82.8262 57.9572 82.8262 57.9572C82.8262 57.9571 82.8262 57.957 82.8262 57.957C82.8262 57.9569 82.8262 57.9568 82.8262 57.9568C82.8262 57.9567 82.8262 57.9566 82.8262 57.9566C82.8262 57.9565 82.8262 57.9564 82.8262 57.9564C82.8262 57.9563 82.8262 57.9562 82.8262 57.9562C82.8262 57.9561 82.8262 57.956 82.8262 57.9559C82.8262 57.9559 82.8262 57.9558 82.8262 57.9557C82.8262 57.9557 82.8262 57.9556 82.8262 57.9555C82.8262 57.9555 82.8262 57.9554 82.8262 57.9553C82.8262 57.9552 82.8262 57.9552 82.8262 57.9551C82.8262 57.955 82.8262 57.955 82.8262 57.9549C82.8262 57.9548 82.8262 57.9547 82.8262 57.9547C82.8262 57.9546 82.8262 57.9545 82.8262 57.9544C82.8262 57.9544 82.8262 57.9543 82.8262 57.9542C82.8262 57.9541 82.8262 57.9541 82.8262 57.954C82.8262 57.9539 82.8262 57.9538 82.8262 57.9538C82.8262 57.9537 82.8262 57.9536 82.8262 57.9535C82.8262 57.9535 82.8262 57.9534 82.8262 57.9533C82.8262 57.9532 82.8262 57.9531 82.8262 57.9531C82.8262 57.953 82.8262 57.9529 82.8262 57.9528C82.8262 57.9527 82.8262 57.9527 82.8262 57.9526C82.8262 57.9525 82.8262 57.9524 82.8262 57.9523C82.8262 57.9523 82.8262 57.9522 82.8262 57.9521C82.8262 57.952 82.8262 57.9519 82.8262 57.9519C82.8262 57.9518 82.8262 57.9517 82.8262 57.9516C82.8262 57.9515 82.8262 57.9514 82.8262 57.9514C82.8262 57.9513 82.8262 57.9512 82.8262 57.9511C82.8262 57.951 82.8262 57.9509 82.8262 57.9509C82.8262 57.9508 82.8262 57.9507 82.8262 57.9506C82.8262 57.9505 82.8262 57.9504 82.8262 57.9503C82.8262 57.9503 82.8262 57.9502 82.8262 57.9501C82.8262 57.95 82.8262 57.9499 82.8262 57.9498C82.8262 57.9497 82.8262 57.9496 82.8262 57.9496C82.8262 57.9495 82.8262 57.9494 82.8262 57.9493C82.8262 57.9492 82.8262 57.9491 82.8262 57.949C82.8262 57.9489 82.8262 57.9488 82.8262 57.9487C82.8262 57.9487 82.8262 57.9486 82.8262 57.9485C82.8262 57.9484 82.8262 57.9483 82.8262 57.9482C82.8262 57.9481 82.8262 57.948 82.8262 57.9479C82.8262 57.9478 82.8262 57.9477 82.8262 57.9476C82.8262 57.9475 82.8262 57.9475 82.8262 57.9474C82.8262 57.9473 82.8262 57.9472 82.8262 57.9471C82.8262 57.947 82.8262 57.9469 82.8262 57.9468C82.8262 57.9467 82.8262 57.9466 82.8262 57.9465C82.8262 57.9464 82.8262 57.9463 82.8262 57.9462C82.8262 57.9461 82.8262 57.946 82.8262 57.9459C82.8262 57.9458 82.8262 57.9457 82.8262 57.9456C82.8262 57.9455 82.8262 57.9454 82.8262 57.9453C82.8262 57.9452 82.8262 57.9451 82.8262 57.945C82.8262 57.9449 82.8262 57.9448 82.8262 57.9447C82.8262 57.9446 82.8262 57.9445 82.8262 57.9444C82.8262 57.9443 82.8262 57.9442 82.8262 57.9441C82.8262 57.944 82.8262 57.9439 82.8262 57.9438C82.8262 57.9437 82.8262 57.9436 82.8262 57.9435C82.8262 57.9434 82.8262 57.9433 82.8262 57.9432C82.8262 57.9431 82.8262 57.943 82.8262 57.9429C82.8262 57.9428 82.8262 57.9427 82.8262 57.9426C82.8262 57.9425 82.8262 57.9424 82.8262 57.9422C82.8262 57.9421 82.8262 57.942 82.8262 57.9419C82.8262 57.9418 82.8262 57.9417 82.8262 57.9416C82.8262 57.9415 82.8262 57.9414 82.8262 57.9413C82.8262 57.9412 82.8262 57.9411 82.8262 57.941C82.8262 57.9408 82.8262 57.9407 82.8262 57.9406C82.8262 57.9405 82.8262 57.9404 82.8262 57.9403C82.8262 57.9402 82.8262 57.9401 82.8262 57.94C82.8262 57.9399 82.8262 57.9397 82.8262 57.9396C82.8262 57.9395 82.8262 57.9394 82.8262 57.9393C82.8262 57.9392 82.8262 57.9391 82.8262 57.939C82.8262 57.9388 82.8262 57.9387 82.8262 57.9386C82.8262 57.9385 82.8262 57.9384 82.8262 57.9383C82.8262 57.9382 82.8262 57.938 82.8262 57.9379C82.8262 57.9378 82.8262 57.9377 82.8262 57.9376C82.8262 57.9375 82.8262 57.9373 82.8262 57.9372C82.8262 57.9371 82.8262 57.937 82.8262 57.9369C82.8262 57.9368 82.8262 57.9366 82.8262 57.9365C82.8262 57.9364 82.8262 57.9363 82.8262 57.9362C82.8262 57.936 82.8262 57.9359 82.8262 57.9358C82.8262 57.9357 82.8262 57.9356 82.8262 57.9354C82.8262 57.9353 82.8262 57.9352 82.8262 57.9351C82.8262 57.935 82.8262 57.9348 82.8262 57.9347C82.8262 57.9346 82.8262 57.9345 82.8262 57.9344C82.8262 57.9342 82.8262 57.9341 82.8262 57.934C82.8262 57.9339 82.8262 57.9337 82.8262 57.9336C82.8262 57.9335 82.8262 57.9334 82.8262 57.9332C82.8262 57.9331 82.8262 57.933 82.8262 57.9329C82.8262 57.9327 82.8262 57.9326 82.8262 57.9325C82.8262 57.9324 82.8262 57.9322 82.8262 57.9321C82.8262 57.932 82.8262 57.9319 82.8262 57.9317C82.8262 57.9316 82.8262 57.9315 82.8262 57.9313C82.8262 57.9312 82.8262 57.9311 82.8262 57.931C82.8262 57.9308 82.8262 57.9307 82.8262 57.9306C82.8262 57.9304 82.8262 57.9303 82.8262 57.9302C82.8262 57.93 82.8262 57.9299 82.8262 57.9298C82.8262 57.9297 82.8262 57.9295 82.8262 57.9294C82.8262 57.9293 82.8262 57.9291 82.8262 57.929C82.8262 57.9289 82.8262 57.9287 82.8262 57.9286C82.8262 57.9285 82.8262 57.9283 82.8262 57.9282C82.8262 57.9281 82.8262 57.9279 82.8262 57.9278C82.8262 57.9277 82.8262 57.9275 82.8262 57.9274C82.8262 57.9272 82.8262 57.9271 82.8262 57.927C82.8262 57.9268 82.8262 57.9267 82.8262 57.9266C82.8262 57.9264 82.8262 57.9263 82.8262 57.9262C82.8262 57.926 82.8262 57.9259 82.8262 57.9257C82.8262 57.9256 82.8262 57.9255 82.8262 57.9253C82.8262 57.9252 82.8262 57.925 82.8262 57.9249C82.8262 57.9248 82.8262 57.9246 82.8262 57.9245C82.8262 57.9243 82.8262 57.9242 82.8262 57.9241C82.8262 57.9239 82.8262 57.9238 82.8262 57.9236C82.8262 57.9235 82.8262 57.9234 82.8262 57.9232C82.8262 57.9231 82.8262 57.9229 82.8262 57.9228C82.8262 57.9226 82.8262 57.9225 82.8262 57.9224C82.8262 57.9222 82.8262 57.9221 82.8262 57.9219C82.8262 57.9218 82.8262 57.9216 82.8262 57.9215C82.8262 57.9213 82.8262 57.9212 82.8262 57.9211C82.8262 57.9209 82.8262 57.9208 82.8262 57.9206C82.8262 57.9205 82.8262 57.9203 82.8262 57.9202C82.8262 57.92 82.8262 57.9199 82.8262 57.9197C82.8262 57.9196 82.8262 57.9194 82.8262 57.9193C82.8262 57.9191 82.8262 57.919 82.8262 57.9188C82.8262 57.9187 82.8262 57.9185 82.8262 57.9184C82.8262 57.9182 82.8262 57.9181 82.8262 57.9179C82.8262 57.9178 82.8262 57.9176 82.8262 57.9175C82.8262 57.9173 82.8262 57.9172 82.8262 57.917C82.8262 57.9169 82.8262 57.9167 82.8262 57.9166C82.8262 57.9164 82.8262 57.9163 82.8262 57.9161C82.8262 57.9159 82.8262 57.9158 82.8262 57.9156C82.8262 57.9155 82.8262 57.9153 82.8262 57.9152C82.8262 57.915 82.8262 57.9149 82.8262 57.9147C82.8262 57.9146 82.8262 57.9144 82.8262 57.9142C82.8262 57.9141 82.8262 57.9139 82.8262 57.9138C82.8262 57.9136 82.8262 57.9135 82.8262 57.9133C82.8262 57.9131 82.8262 57.913 82.8262 57.9128C82.8262 57.9127 82.8262 57.9125 82.8262 57.9123C82.8262 57.9122 82.8262 57.912 82.8262 57.9119C82.8262 57.9117 82.8262 57.9115 82.8262 57.9114C82.8262 57.9112 82.8262 57.9111 82.8262 57.9109C82.8262 57.9107 82.8262 57.9106 82.8262 57.9104C82.8262 57.9102 82.8262 57.9101 82.8262 57.9099C82.8262 57.9098 82.8262 57.9096 82.8262 57.9094C82.8262 57.9093 82.8262 57.9091 82.8262 57.9089C82.8262 57.9088 82.8262 57.9086 82.8262 57.9084C82.8262 57.9083 82.8262 57.9081 82.8262 57.9079C82.8262 57.9078 82.8262 57.9076 82.8262 57.9074C82.8262 57.9073 82.8262 57.9071 82.8262 57.9069C82.8262 57.9068 82.8262 57.9066 82.8262 57.9064C82.8262 57.9063 82.8262 57.9061 82.8262 57.9059C82.8262 57.9058 82.8262 57.9056 82.8262 57.9054C82.8262 57.9053 82.8262 57.9051 82.8262 57.9049C82.8262 57.9047 82.8262 57.9046 82.8262 57.9044C82.8262 57.9042 82.8262 57.9041 82.8262 57.9039C82.8262 57.9037 82.8262 57.9035 82.8262 57.9034C82.8262 57.9032 82.8262 57.903 82.8262 57.9029C82.8262 57.9027 82.8262 57.9025 82.8262 57.9023C82.8262 57.9022 82.8262 57.902 82.8262 57.9018C82.8262 57.9016 82.8262 57.9015 82.8262 57.9013C82.8262 57.9011 82.8262 57.9009 82.8262 57.9008C82.8262 57.9006 82.8262 57.9004 82.8262 57.9002C82.8262 57.9001 82.8262 57.8999 82.8262 57.8997C82.8262 57.8995 82.8262 57.8994 82.8262 57.8992C82.8262 57.899 82.8262 57.8988 82.8262 57.8986C82.8262 57.8985 82.8262 57.8983 82.8262 57.8981C82.8262 57.8979 82.8262 57.8977 82.8262 57.8976C82.8262 57.8974 82.8262 57.8972 82.8262 57.897C82.8262 57.8968 82.8262 57.8967 82.8262 57.8965C82.8262 57.8963 82.8262 57.8961 82.8262 57.8959C82.8262 57.8957 82.8262 57.8956 82.8262 57.8954C82.8262 57.8952 82.8262 57.895 82.8262 57.8948C82.8262 57.8946 82.8262 57.8945 82.8262 57.8943C82.8262 57.8941 82.8262 57.8939 82.8262 57.8937C82.8262 57.8935 82.8262 57.8934 82.8262 57.8932C82.8262 57.893 82.8262 57.8928 82.8262 57.8926C82.8262 57.8924 82.8262 57.8922 82.8262 57.892C82.8262 57.8919 82.8262 57.8917 82.8262 57.8915C82.8262 57.8913 82.8262 57.8911 82.8262 57.8909C82.8262 57.8907 82.8262 57.8905 82.8262 57.8904C82.8262 57.8902 82.8262 57.89 82.8262 57.8898C82.8262 57.8896 82.8262 57.8894 82.8262 57.8892C82.8262 57.889 82.8262 57.8888 82.8262 57.8886C82.8262 57.8884 82.8262 57.8883 82.8262 57.8881C82.8262 57.8879 82.8262 57.8877 82.8262 57.8875C82.8262 57.8873 82.8262 57.8871 82.8262 57.8869C82.8262 57.8867 82.8262 57.8865 82.8262 57.8863C82.8262 57.8861 82.8262 57.8859 82.8262 57.8857C82.8262 57.8855 82.8262 57.8853 82.8262 57.8852C82.8262 57.885 82.8262 57.8848 82.8262 57.8846C82.8262 57.8844 82.8262 57.8842 82.8262 57.884C82.8262 57.8838 82.8262 57.8836 82.8262 57.8834C82.8262 57.8832 82.8262 57.883 82.8262 57.8828C82.8262 57.8826 82.8262 57.8824 82.8262 57.8822C82.8262 57.882 82.8262 57.8818 82.8262 57.8816C82.8262 57.8814 82.8262 57.8812 82.8262 57.881C82.8262 57.8808 82.8262 57.8806 82.8262 57.8804C82.8262 57.8802 82.8262 57.88 82.8262 57.8798C82.8262 57.8796 82.8262 57.8794 82.8262 57.8792C82.8262 57.879 82.8262 57.8788 82.8262 57.8786C82.8262 57.8784 82.8262 57.8782 82.8262 57.8779C82.8262 57.8777 82.8262 57.8775 82.8262 57.8773C82.8262 57.8771 82.8262 57.8769 82.8262 57.8767C82.8262 57.8765 82.8262 57.8763 82.8262 57.8761C82.8262 57.8759 82.8262 57.8757 82.8262 57.8755C82.8262 57.8753 82.8262 57.8751 82.8262 57.8749C82.8262 57.8746 82.8262 57.8744 82.8262 57.8742C82.8262 57.874 82.8262 57.8738 82.8262 57.8736C82.8262 57.8734 82.8262 57.8732 82.8262 57.873C82.8262 57.8728 82.8262 57.8726 82.8262 57.8723C82.8262 57.8721 82.8262 57.8719 82.8262 57.8717C82.8262 57.8715 82.8262 57.8713 82.8262 57.8711C82.8262 57.8709 82.8262 57.8707 82.8262 57.8704C82.8262 57.8702 82.8262 57.87 82.8262 57.8698C82.8262 57.8696 82.8262 57.8694 82.8262 57.8692C82.8262 57.8689 82.8262 57.8687 82.8262 57.8685C82.8262 57.8683 82.8262 57.8681 82.8262 57.8679C82.8262 57.8677 82.8262 57.8674 82.8262 57.8672C82.8262 57.867 82.8262 57.8668 82.8262 57.8666C82.8262 57.8664 82.8262 57.8661 82.8262 57.8659C82.8262 57.8657 82.8262 57.8655 82.8262 57.8653C82.8262 57.865 82.8262 57.8648 82.8262 57.8646C82.8262 57.8644 82.8262 57.8642 82.8262 57.8639C82.8262 57.8637 82.8262 57.8635 82.8262 57.8633C82.8262 57.8631 82.8262 57.8628 82.8262 57.8626C82.8262 57.8624 82.8262 57.8622 82.8262 57.862C82.8262 57.8617 82.8262 57.8615 82.8262 57.8613C82.8262 57.8611 82.8262 57.8608 82.8262 57.8606C82.8262 57.8604 82.8262 57.8602 82.8262 57.8599C82.8262 57.8597 82.8262 57.8595 82.8262 57.8593C82.8262 57.859 82.8262 57.8588 82.8262 57.8586C82.8262 57.8584 82.8262 57.8581 82.8262 57.8579C82.8262 57.8577 82.8262 57.8575 82.8262 57.8572C82.8262 57.857 82.8262 57.8568 82.8262 57.8566C82.8262 57.8563 82.8262 57.8561 82.8262 57.8559C82.8262 57.8556 82.8262 57.8554 82.8262 57.8552C82.8262 57.855 82.8262 57.8547 82.8262 57.8545C82.8262 57.8543 82.8262 57.854 82.8262 57.8538C82.8262 57.8536 82.8262 57.8533 82.8262 57.8531C82.8262 57.8529 82.8262 57.8527 82.8262 57.8524C82.8262 57.8522 82.8262 57.852 82.8262 57.8517C82.8262 57.8515 82.8262 57.8513 82.8262 57.851C82.8262 57.8508 82.8262 57.8506 82.8262 57.8503C82.8262 57.8501 82.8262 57.8499 82.8262 57.8496C82.8262 57.8494 82.8262 57.8491 82.8262 57.8489C82.8262 57.8487 82.8262 57.8484 82.8262 57.8482C82.8262 57.848 82.8262 57.8477 82.8262 57.8475C82.8262 57.8473 82.8262 57.847 82.8262 57.8468C82.8262 57.8465 82.8262 57.8463 82.8262 57.8461C82.8262 57.8458 82.8262 57.8456 82.8262 57.8453C82.8262 57.8451 82.8262 57.8449 82.8262 57.8446C82.8262 57.8444 82.8262 57.8442 82.8262 57.8439C82.8262 57.8437 82.8262 57.8434 82.8262 57.8432C82.8262 57.8429 82.8262 57.8427 82.8262 57.8425C82.8262 57.8422 82.8262 57.842 82.8262 57.8417C82.8262 57.8415 82.8262 57.8412 82.8262 57.841C82.8262 57.8408 82.8262 57.8405 82.8262 57.8403C82.8262 57.84 82.8262 57.8398 82.8262 57.8395C82.8262 57.8393 82.8262 57.8391 82.8262 57.8388C82.8262 57.8386 82.8262 57.8383 82.8262 57.8381C82.8262 57.8378 82.8262 57.8376 82.8262 57.8373C82.8262 57.8371 82.8262 57.8368 82.8262 57.8366C82.8262 57.8363 82.8262 57.8361 82.8262 57.8358C82.8262 57.8356 82.8262 57.8353 82.8262 57.8351C82.8262 57.8348 82.8262 57.8346 82.8262 57.8343C82.8262 57.8341 82.8262 57.8338 82.8262 57.8336C82.8262 57.8333 82.8262 57.8331 82.8262 57.8328C82.8262 57.8326 82.8262 57.8323 82.8262 57.8321C82.8262 57.8318 82.8262 57.8316 82.8262 57.8313C82.8262 57.8311 82.8262 57.8308 82.8262 57.8306C82.8262 57.8303 82.8262 57.8301 82.8262 57.8298C82.8262 57.8296 82.8262 57.8293 82.8262 57.829C82.8262 57.8288 82.8262 57.8285 82.8262 57.8283C82.8262 57.828 82.8262 57.8278 82.8262 57.8275C82.8262 57.8273 82.8262 57.827 82.8262 57.8267C82.8262 57.8265 82.8262 57.8262 82.8262 57.826C82.8262 57.8257 82.8262 57.8255 82.8262 57.8252C82.8262 57.8249 82.8262 57.8247 82.8262 57.8244C82.8262 57.8242 82.8262 57.8239 82.8262 57.8236C82.8262 57.8234 82.8262 57.8231 82.8262 57.8229C82.8262 57.8226 82.8262 57.8223 82.8262 57.8221C82.8262 57.8218 82.8262 57.8216 82.8262 57.8213C82.8262 57.821 82.8262 57.8208 82.8262 57.8205C82.8262 57.8202 82.8262 57.82 82.8262 57.8197C82.8262 57.8195 82.8262 57.8192 82.8262 57.8189C82.8262 57.8187 82.8262 57.8184 82.8262 57.8181C82.8262 57.8179 82.8262 57.8176 82.8262 57.8173C82.8262 57.8171 82.8262 57.8168 82.8262 57.8165C82.8262 57.8163 82.8262 57.816 82.8262 57.8157C82.8262 57.8155 82.8262 57.8152 82.8262 57.8149C82.8262 57.8147 82.8262 57.8144 82.8262 57.8141C82.8262 57.8139 82.8262 57.8136 82.8262 57.8133C82.8262 57.8131 82.8262 57.8128 82.8262 57.8125C82.8262 57.8123 82.8262 57.812 82.8262 57.8117C82.8262 57.8114 82.8262 57.8112 82.8262 57.8109C82.8262 57.8106 82.8262 57.8104 82.8262 57.8101C82.8262 57.8098 82.8262 57.8095 82.8262 57.8093C82.8262 57.809 82.8262 57.8087 82.8262 57.8085C82.8262 57.8082 82.8262 57.8079 82.8262 57.8076C82.8262 57.8074 82.8262 57.8071 82.8262 57.8068C82.8262 57.8065 82.8262 57.8063 82.8262 57.806C82.8262 57.8057 82.8262 57.8054 82.8262 57.8052C82.8262 57.8049 82.8262 57.8046 82.8262 57.8043C82.8262 57.804 82.8262 57.8038 82.8262 57.8035C82.8262 57.8032 82.8262 57.8029 82.8262 57.8027C82.8262 57.8024 82.8262 57.8021 82.8262 57.8018C82.8262 57.8015 82.8262 57.8013 82.8262 57.801C82.8262 57.8007 82.8262 57.8004 82.8262 57.8001C82.8262 57.7999 82.8262 57.7996 82.8262 57.7993C82.8262 57.799 82.8262 57.7987 82.8262 57.7985C82.8262 57.7982 82.8262 57.7979 82.8262 57.7976C82.8262 57.7973 82.8262 57.797 82.8262 57.7968C82.8262 57.7965 82.8262 57.7962 82.8262 57.7959C82.8262 57.7956 82.8262 57.7953 82.8262 57.7951C82.8262 57.7948 82.8262 57.7945 82.8262 57.7942C82.8262 57.7939 82.8262 57.7936 82.8262 57.7933C82.8262 57.7931 82.8262 57.7928 82.8262 57.7925C82.8262 57.7922 82.8262 57.7919 82.8262 57.7916C82.8262 57.7913 82.8262 57.7911 82.8262 57.7908C82.8262 57.7905 82.8262 57.7902 82.8262 57.7899C82.8262 57.7896 82.8262 57.7893 82.8262 57.789C82.8262 57.7887 82.8262 57.7885 82.8262 57.7882C82.8262 57.7879 82.8262 57.7876 82.8262 57.7873C82.8262 57.787 82.8262 57.7867 82.8262 57.7864C82.8262 57.7861 82.8262 57.7858 82.8262 57.7855C82.8262 57.7852 82.8262 57.785 82.8262 57.7847C82.8262 57.7844 82.8262 57.7841 82.8262 57.7838C82.8262 57.7835 82.8262 57.7832 82.8262 57.7829C82.8262 57.7826 82.8262 57.7823 82.8262 57.782C82.8262 57.7817 82.8262 57.7814 82.8262 57.7811C82.8262 57.7808 82.8262 57.7805 82.8262 57.7802C82.8262 57.7799 82.8262 57.7796 82.8262 57.7793C82.8262 57.779 82.8262 57.7787 82.8262 57.7785C82.8262 57.7782 82.8262 57.7779 82.8262 57.7776C82.8262 57.7773 82.8262 57.777 82.8262 57.7767C82.8262 57.7764 82.8262 57.7761 82.8262 57.7758C82.8262 57.7755 82.8262 57.7752 82.8262 57.7749C82.8262 57.7746 82.8262 57.7743 82.8262 57.774C82.8262 57.7737 82.8262 57.7733 82.8262 57.773C82.8262 57.7727 82.8262 57.7724 82.8262 57.7721C82.8262 57.7718 82.8262 57.7715 82.8262 57.7712C82.8262 57.7709 82.8262 57.7706 82.8262 57.7703C82.8262 57.77 82.8262 57.7697 82.8262 57.7694C82.8262 57.7691 82.8262 57.7688 82.8262 57.7685C82.8262 57.7682 82.8262 57.7679 82.8262 57.7676C82.8262 57.7673 82.8262 57.7669 82.8262 57.7666C82.8262 57.7663 82.8262 57.766 82.8262 57.7657C82.8262 57.7654 82.8262 57.7651 82.8262 57.7648C82.8262 57.7645 82.8262 57.7642 82.8262 57.7639C82.8262 57.7636 82.8262 57.7632 82.8262 57.7629C82.8262 57.7626 82.8262 57.7623 82.8262 57.762C82.8262 57.7617 82.8262 57.7614 82.8262 57.7611C82.8262 57.7608 82.8262 57.7604 82.8262 57.7601C82.8262 57.7598 82.8262 57.7595 82.8262 57.7592C82.8262 57.7589 82.8262 57.7586 82.8262 57.7583C82.8262 57.7579 82.8262 57.7576 82.8262 57.7573C82.8262 57.757 82.8262 57.7567 82.8262 57.7564C82.8262 57.7561 82.8262 57.7557 82.8262 57.7554C82.8262 57.7551 82.8262 57.7548 82.8262 57.7545C82.8262 57.7542 82.8262 57.7538 82.8262 57.7535C82.8262 57.7532 82.8262 57.7529 82.8262 57.7526C82.8262 57.7523 82.8262 57.7519 82.8262 57.7516C82.8262 57.7513 82.8262 57.751 82.8262 57.7507C82.8262 57.7503 82.8262 57.75 82.8262 57.7497C82.8262 57.7494 82.8262 57.7491 82.8262 57.7487C82.8262 57.7484 82.8262 57.7481 82.8262 57.7478C82.8262 57.7475 82.8262 57.7471 82.8262 57.7468C82.8262 57.7465 82.8262 57.7462 82.8262 57.7458C82.8262 57.7455 82.8262 57.7452 82.8262 57.7449C82.8262 57.7445 82.8262 57.7442 82.8262 57.7439C82.8262 57.7436 82.8262 57.7432 82.8262 57.7429C82.8262 57.7426 82.8262 57.7423 82.8262 57.7419C82.8262 57.7416 82.8262 57.7413 82.8262 57.741C82.8262 57.7406 82.8262 57.7403 82.8262 57.74C82.8262 57.7397 82.8262 57.7393 82.8262 57.739C82.8262 57.7387 82.8262 57.7383 82.8262 57.738C82.8262 57.7377 82.8262 57.7374 82.8262 57.737C82.8262 57.7367 82.8262 57.7364 82.8262 57.736C82.8262 57.7357 82.8262 57.7354 82.8262 57.735C82.8262 57.7347 82.8262 57.7344 82.8262 57.7341C82.8262 57.7337 82.8262 57.7334 82.8262 57.7331C82.8262 57.7327 82.8262 57.7324 82.8262 57.7321C82.8262 57.7317 82.8262 57.7314 82.8262 57.7311C82.8262 57.7307 82.8262 57.7304 82.8262 57.7301C82.8262 57.7297 82.8262 57.7294 82.8262 57.7291C82.8262 57.7287 82.8262 57.7284 82.8262 57.728C82.8262 57.7277 82.8262 57.7274 82.8262 57.727C82.8262 57.7267 82.8262 57.7264 82.8262 57.726C82.8262 57.7257 82.8262 57.7254 82.8262 57.725C82.8262 57.7247 82.8262 57.7243 82.8262 57.724C82.8262 57.7237 82.8262 57.7233 82.8262 57.723C82.8262 57.7226 82.8262 57.7223 82.8262 57.722C82.8262 57.7216 82.8262 57.7213 82.8262 57.7209C82.8262 57.7206 82.8262 57.7203 82.8262 57.7199C82.8262 57.7196 82.8262 57.7192 82.8262 57.7189C82.8262 57.7186 82.8262 57.7182 82.8262 57.7179C82.8262 57.7175 82.8262 57.7172 82.8262 57.7168C82.8262 57.7165 82.8262 57.7162 82.8262 57.7158C82.8262 57.7155 82.8262 57.7151 82.8262 57.7148C82.8262 57.7144 82.8262 57.7141 82.8262 57.7137C82.8262 57.7134 82.8262 57.713 82.8262 57.7127C82.8262 57.7124 82.8262 57.712 82.8262 57.7117C82.8262 57.7113 82.8262 57.711 82.8262 57.7106C82.8262 57.7103 82.8262 57.7099 82.8262 57.7096C82.8262 57.7092 82.8262 57.7089 82.8262 57.7085C82.8262 57.7082 82.8262 57.7078 82.8262 57.7075C82.8262 57.7071 82.8262 57.7068 82.8262 57.7064C82.8262 57.7061 82.8262 57.7057 82.8262 57.7054C82.8262 57.705 82.8262 57.7047 82.8262 57.7043C82.8262 57.704 82.8262 57.7036 82.8262 57.7033C82.8262 57.7029 82.8262 57.7025 82.8262 57.7022C82.8262 57.7018 82.8262 57.7015 82.8262 57.7011C82.8262 57.7008 82.8262 57.7004 82.8262 57.7001C82.8262 57.6997 82.8262 57.6994 82.8262 57.699C82.8262 57.6986 82.8262 57.6983 82.8262 57.6979C82.8262 57.6976 82.8262 57.6972 82.8262 57.6969C82.8262 57.6965 82.8262 57.6962 82.8262 57.6958C82.8262 57.6954 82.8262 57.6951 82.8262 57.6947C82.8262 57.6944 82.8262 57.694 82.8262 57.6936C82.8262 57.6933 82.8262 57.6929 82.8262 57.6926C82.8262 57.6922 82.8262 57.6918 82.8262 57.6915C82.8262 57.6911 82.8262 57.6908 82.8262 57.6904C82.8262 57.69 82.8262 57.6897 82.8262 57.6893C82.8262 57.689 82.8262 57.6886 82.8262 57.6882C82.8262 57.6879 82.8262 57.6875 82.8262 57.6871C82.8262 57.6868 82.8262 57.6864 82.8262 57.686C82.8262 57.6857 82.8262 57.6853 82.8262 57.685C82.8262 57.6846 82.8262 57.6842 82.8262 57.6839C82.8262 57.6835 82.8262 57.6831 82.8262 57.6828C82.8262 57.6824 82.8262 57.682 82.8262 57.6817C82.8262 57.6813 82.8262 57.6809 82.8262 57.6806C82.8262 57.6802 82.8262 57.6798 82.8262 57.6794C82.8262 57.6791 82.8262 57.6787 82.8262 57.6783C82.8262 57.678 82.8262 57.6776 82.8262 57.6772C82.8262 57.6769 82.8262 57.6765 82.8262 57.6761C82.8262 57.6758 82.8262 57.6754 82.8262 57.675C82.8262 57.6746 82.8262 57.6743 82.8262 57.6739C82.8262 57.6735 82.8262 57.6732 82.8262 57.6728C82.8262 57.6724 82.8262 57.672 82.8262 57.6717C82.8262 57.6713 82.8262 57.6709 82.8262 57.6705C82.8262 57.6702 82.8262 57.6698 82.8262 57.6694C82.8262 57.669 82.8262 57.6687 82.8262 57.6683C82.8262 57.6679 82.8262 57.6675 82.8262 57.6672C82.8262 57.6668 82.8262 57.6664 82.8262 57.666C82.8262 57.6657 82.8262 57.6653 82.8262 57.6649C82.8262 57.6645 82.8262 57.6641 82.8262 57.6638C82.8262 57.6634 82.8262 57.663 82.8262 57.6626C82.8262 57.6622 82.8262 57.6619 82.8262 57.6615C82.8262 57.6611 82.8262 57.6607 82.8262 57.6603C82.8262 57.66 82.8262 57.6596 82.8262 57.6592C82.8262 57.6588 82.8262 57.6584 82.8262 57.6581C82.8262 57.6577 82.8262 57.6573 82.8262 57.6569C82.8262 57.6565 82.8262 57.6561 82.8262 57.6558C82.8262 57.6554 82.8262 57.655 82.8262 57.6546C82.8262 57.6542 82.8262 57.6538 82.8262 57.6535C82.8262 57.6531 82.8262 57.6527 82.8262 57.6523C82.8262 57.6519 82.8262 57.6515 82.8262 57.6511C82.8262 57.6508 82.8262 57.6504 82.8262 57.65C82.8262 57.6496 82.8262 57.6492 82.8262 57.6488C82.8262 57.6484 82.8262 57.648 82.8262 57.6477C82.8262 57.6473 82.8262 57.6469 82.8262 57.6465C82.8262 57.6461 82.8262 57.6457 82.8262 57.6453C82.8262 57.6449 82.8262 57.6445 82.8262 57.6442C82.8262 57.6438 82.8262 57.6434 82.8262 57.643C82.8262 57.6426 82.8262 57.6422 82.8262 57.6418C82.8262 57.6414 82.8262 57.641 82.8262 57.6406C82.8262 57.6402 82.8262 57.6398 82.8262 57.6394C82.8262 57.6391 82.8262 57.6387 82.8262 57.6383C82.8262 57.6379 82.8262 57.6375 82.8262 57.6371C82.8262 57.6367 82.8262 57.6363 82.8262 57.6359C82.8262 57.6355 82.8262 57.6351 82.8262 57.6347C82.8262 57.6343 82.8262 57.6339 82.8262 57.6335H81.1813ZM82.8262 57.9638V57.9384H81.1813V57.9638H82.8262ZM81.8385 57.1327L80.8477 57.3359L81.1782 58.9473L82.169 58.744L81.8385 57.1327ZM81.7486 57.7738C81.7668 57.8102 81.7788 57.8414 81.7864 57.8633C81.7943 57.8857 81.7996 57.9046 81.8031 57.9181C81.8099 57.9443 81.8131 57.9633 81.8142 57.9705C81.8155 57.9787 81.8159 57.9826 81.8157 57.9807C81.8155 57.9791 81.8151 57.9745 81.8145 57.9662C81.8134 57.9493 81.8122 57.9238 81.8113 57.8882C81.8105 57.8529 81.81 57.8106 81.81 57.7605H80.1651C80.1651 57.8778 80.1673 57.9855 80.1733 58.0756C80.1762 58.12 80.1809 58.173 80.1895 58.227C80.1943 58.2573 80.2125 58.3797 80.2773 58.5094L81.7486 57.7738ZM81.81 57.7605C81.81 57.6184 81.8364 57.3123 81.9044 56.8023L80.2739 56.5849C80.2065 57.091 80.1651 57.4963 80.1651 57.7605H81.81ZM81.8997 56.8333C81.9807 56.3633 82.1209 55.6852 82.3232 54.792L80.7189 54.4288C80.5147 55.3308 80.367 56.0415 80.2787 56.5538L81.8997 56.8333ZM82.3224 54.7953C82.5216 53.9322 82.8142 52.8111 83.2021 51.4283L81.6183 50.9841C81.2271 52.3789 80.927 53.5272 80.7197 54.4255L82.3224 54.7953ZM83.2014 51.4308C83.5877 50.0703 84.093 48.411 84.718 46.4514L83.1509 45.9516C82.5227 47.9212 82.0118 49.5984 81.619 50.9815L83.2014 51.4308ZM84.7152 46.4601C85.5677 43.8858 86.8183 40.7279 88.4721 36.9816L86.9674 36.3173C85.3016 40.0907 84.0287 43.3008 83.1537 45.943L84.7152 46.4601ZM88.4713 36.9834C89.3512 35.0037 90.2395 33.0239 91.1364 31.0441L89.6381 30.3654C88.7396 32.3487 87.8497 34.3321 86.9682 36.3154L88.4713 36.9834ZM90.3109 29.8859C87.6446 30.1343 84.6048 30.1109 81.1869 29.8093L81.0423 31.4478C84.5344 31.7559 87.6763 31.7833 90.4635 31.5237L90.3109 29.8859ZM81.1942 29.81C79.9488 29.6889 78.7113 29.6283 77.4817 29.6283V31.2732C78.6571 31.2732 79.8415 31.3311 81.035 31.4471L81.1942 29.81Z" fill="#111035"/>
</svg>
