<svg width="141" height="90" viewBox="0 0 141 90" fill="none" xmlns="http://www.w3.org/2000/svg">
<rect width="141" height="89.2319" fill="#FF6F00"/>
<path d="M39.3753 51.9805L35.8753 60.4805C35.7503 60.7305 35.5628 60.8555 35.3128 60.8555C35.2295 60.8555 35.1462 60.8451 35.0628 60.8242C34.8962 60.7409 34.7816 60.6263 34.7191 60.4805C34.6566 60.3346 34.6566 60.1784 34.7191 60.0117L38.3128 51.2305C38.0837 51.1471 37.8753 51.1159 37.6878 51.1367C37.542 51.1992 37.4587 51.2305 37.4378 51.2305C37.2712 51.293 37.1149 51.293 36.9691 51.2305C36.8233 51.168 36.7087 51.0638 36.6253 50.918C36.5628 50.7721 36.5524 50.6263 36.5941 50.4805C36.6566 50.3138 36.7608 50.1888 36.9066 50.1055C37.0524 50.0221 37.1878 49.9701 37.3128 49.9492C37.6878 49.8242 38.3233 49.5326 39.2191 49.0742L50.8128 20.7617C50.8753 20.5951 50.9795 20.4805 51.1253 20.418C51.292 20.3555 51.4587 20.3555 51.6253 20.418C51.792 20.5013 51.9066 20.6159 51.9691 20.7617C52.0316 20.9076 52.0316 21.0638 51.9691 21.2305L40.9066 48.168C41.2816 47.9805 41.6878 47.7617 42.1253 47.5117C44.6462 46.1576 47.9795 44.043 52.1253 41.168C55.3753 38.7721 58.5003 35.9492 61.5003 32.6992C64.5212 29.4284 67.0003 26.5326 68.9378 24.0117C70.8962 21.4909 71.9274 20.1367 72.0316 19.9492C72.1358 19.8034 72.2712 19.7201 72.4378 19.6992C72.6045 19.6576 72.7608 19.6888 72.9066 19.793C73.0524 19.8971 73.1358 20.0326 73.1566 20.1992C73.1774 20.3659 73.1462 20.5221 73.0628 20.668C72.9587 20.8555 71.917 22.2305 69.9378 24.793C67.9587 27.3555 65.4378 30.293 62.3753 33.6055C59.3337 36.8971 56.1566 39.7513 52.8441 42.168C49.5733 44.4596 46.8128 46.2617 44.5628 47.5742C42.7712 48.6159 41.3128 49.418 40.1878 49.9805L39.8441 50.7617C40.7399 51.4909 41.7399 52.5013 42.8441 53.793C44.2399 55.4596 45.9274 57.168 47.9066 58.918C49.8858 60.6471 52.2399 61.9492 54.9691 62.8242C57.7191 63.6784 60.9274 63.6471 64.5941 62.7305C64.7608 62.6888 64.917 62.7096 65.0628 62.793C65.2087 62.8763 65.3024 63.0013 65.3441 63.168C65.3858 63.3346 65.3649 63.4909 65.2816 63.6367C65.2191 63.7826 65.0941 63.8867 64.9066 63.9492C63.0316 64.4492 61.2191 64.6992 59.4691 64.6992C56.3649 64.6992 53.4066 63.8971 50.5941 62.293C48.7399 61.1888 47.1045 59.9596 45.6878 58.6055C44.2712 57.2305 43.0108 55.9076 41.9066 54.6367C41.0108 53.6159 40.1983 52.7617 39.4691 52.0742L39.3753 51.9805ZM83.0628 40.3242C81.7712 43.0326 80.5212 45.6888 79.3128 48.293C77.5628 52.0638 76.2608 55.0638 75.4066 57.293C74.7191 59.1471 74.1774 60.6784 73.7816 61.8867C73.4066 63.0742 73.1358 63.9909 72.9691 64.6367C72.8024 65.3034 72.6983 65.7721 72.6566 66.043C72.6358 66.3346 72.6358 66.5013 72.6566 66.543C72.6774 66.6888 72.6462 66.8242 72.5628 66.9492C72.5003 67.0951 72.3962 67.1992 72.2503 67.2617C72.1878 67.2826 72.1149 67.293 72.0316 67.293C71.7816 67.293 71.5837 67.1576 71.4378 66.8867C71.167 65.9909 72.1045 62.6471 74.2503 56.8555C75.1045 54.6263 76.4066 51.6055 78.1566 47.793C79.2816 45.3346 80.4483 42.8451 81.6566 40.3242C80.4691 40.3451 79.292 40.4076 78.1253 40.5117C75.042 40.7826 72.4691 41.1055 70.4066 41.4805C68.3649 41.8555 67.292 42.0638 67.1878 42.1055C67.1253 42.1263 67.0733 42.1367 67.0316 42.1367C66.8858 42.1367 66.7608 42.0951 66.6566 42.0117C66.5524 41.9284 66.4795 41.8138 66.4378 41.668C66.3962 41.4805 66.417 41.3242 66.5003 41.1992C66.5837 41.0534 66.7191 40.9596 66.9066 40.918C67.0108 40.8555 68.1045 40.6367 70.1878 40.2617C72.292 39.8659 74.917 39.5326 78.0628 39.2617C79.4587 39.1367 80.8649 39.0742 82.2816 39.0742C82.7399 38.1159 83.2087 37.1471 83.6878 36.168C85.6045 32.2096 87.2503 28.8555 88.6253 26.1055C90.0003 23.3346 90.7399 21.8555 90.8441 21.668C90.9274 21.5013 91.042 21.3971 91.1878 21.3555C91.3545 21.293 91.5212 21.3034 91.6878 21.3867C91.8337 21.4701 91.9274 21.5951 91.9691 21.7617C92.0316 21.9076 92.0316 22.0638 91.9691 22.2305C91.8649 22.418 91.1253 23.8867 89.7503 26.6367C88.3753 29.3867 86.7295 32.7409 84.8128 36.6992C84.4378 37.4909 84.0524 38.2826 83.6566 39.0742C84.9899 39.0951 86.3233 39.168 87.6566 39.293C92.1149 39.6888 96.0837 39.6992 99.5628 39.3242C100.375 37.5742 101.198 35.8242 102.032 34.0742C104.24 29.4701 106.125 25.6055 107.688 22.4805C109.271 19.3346 110.115 17.668 110.219 17.4805C110.302 17.3138 110.417 17.2096 110.563 17.168C110.73 17.1055 110.896 17.1159 111.063 17.1992C111.209 17.2826 111.302 17.4076 111.344 17.5742C111.407 17.7201 111.396 17.8763 111.313 18.043C111.209 18.2305 110.375 19.8867 108.813 23.0117C107.271 26.1367 105.396 29.9909 103.188 34.5742C102.459 36.1159 101.74 37.6471 101.032 39.168C104.032 38.793 106.219 38.3763 107.594 37.918C107.761 37.8763 107.917 37.8971 108.063 37.9805C108.209 38.043 108.313 38.1576 108.375 38.3242C108.417 38.4909 108.396 38.6576 108.313 38.8242C108.25 38.9701 108.136 39.0638 107.969 39.1055C106.427 39.6055 103.907 40.0638 100.407 40.4805C99.1774 43.1263 97.9899 45.7617 96.8441 48.3867C94.8024 53.0117 93.2503 56.9076 92.1878 60.0742C91.4378 62.4076 90.8337 64.3867 90.3753 66.0117C89.917 67.6576 89.5628 69.0117 89.3128 70.0742C89.0628 71.1367 88.8858 71.9596 88.7816 72.543C88.6983 73.1263 88.6462 73.5326 88.6253 73.7617C88.6253 74.0117 88.6253 74.1471 88.6253 74.168V74.1367L87.4066 74.3867C87.3858 74.3451 87.3753 74.1888 87.3753 73.918C87.3753 73.668 87.417 73.2305 87.5003 72.6055C87.6045 72.0013 87.7816 71.1471 88.0316 70.043C88.2816 68.9596 88.6462 67.5638 89.1253 65.8555C89.6045 64.168 90.2295 62.1159 91.0003 59.6992C92.0628 56.4909 93.6149 52.5742 95.6566 47.9492C96.7399 45.5117 97.8337 43.0742 98.9378 40.6367C95.5837 40.9492 91.7816 40.918 87.5316 40.543C86.0316 40.3971 84.542 40.3242 83.0628 40.3242Z" fill="#111035"/>
<path d="M39.3753 51.9805L40.0117 51.3441L39.0571 50.3895L38.5431 51.6378L39.3753 51.9805ZM35.8753 60.4805L36.6803 60.883L36.695 60.8535L36.7075 60.8231L35.8753 60.4805ZM35.0628 60.8242L34.6603 61.6292L34.7487 61.6734L34.8446 61.6973L35.0628 60.8242ZM34.7191 60.4805L35.5463 60.1259L34.7191 60.4805ZM34.7191 60.0117L33.8861 59.6708L33.8811 59.6832L33.8764 59.6957L34.7191 60.0117ZM38.3128 51.2305L39.1458 51.5714L39.5005 50.7047L38.6204 50.3847L38.3128 51.2305ZM37.6878 51.1367L37.5885 50.2422L37.4559 50.257L37.3333 50.3095L37.6878 51.1367ZM37.4378 51.2305V50.3305H37.2746L37.1218 50.3878L37.4378 51.2305ZM36.6253 50.918L35.7981 51.2725L35.8184 51.3198L35.8439 51.3645L36.6253 50.918ZM36.5941 50.4805L35.7514 50.1645L35.7387 50.1984L35.7287 50.2332L36.5941 50.4805ZM37.3128 49.9492L37.4608 50.837L37.5305 50.8254L37.5974 50.803L37.3128 49.9492ZM39.2191 49.0742L39.629 49.8754L39.9257 49.7237L40.052 49.4153L39.2191 49.0742ZM50.8128 20.7617L51.6457 21.1028L51.6508 21.0903L51.6555 21.0777L50.8128 20.7617ZM51.1253 20.418L50.8093 19.5753L50.7899 19.5826L50.7708 19.5907L51.1253 20.418ZM51.6253 20.418L52.0278 19.613L51.9856 19.5919L51.9414 19.5753L51.6253 20.418ZM51.9691 21.2305L52.8016 21.5724L52.8069 21.5595L52.8118 21.5465L51.9691 21.2305ZM40.9066 48.168L40.0741 47.8261L39.1622 50.0464L41.3091 48.973L40.9066 48.168ZM42.1253 47.5117L41.6994 46.7189L41.689 46.7245L41.6788 46.7303L42.1253 47.5117ZM52.1253 41.168L52.6382 41.9075L52.6489 41.9001L52.6594 41.8924L52.1253 41.168ZM61.5003 32.6992L60.8392 32.0886L60.839 32.0888L61.5003 32.6992ZM68.9378 24.0117L68.2271 23.4596L68.2243 23.4633L68.9378 24.0117ZM72.0316 19.9492L71.2992 19.4261L71.2696 19.4676L71.2448 19.5121L72.0316 19.9492ZM72.4378 19.6992L72.5495 20.5923L72.6034 20.5855L72.6561 20.5723L72.4378 19.6992ZM73.0628 20.668L72.2814 20.2214L72.2761 20.2309L73.0628 20.668ZM62.3753 33.6055L61.7145 32.9945L61.7143 32.9947L62.3753 33.6055ZM52.8441 42.168L53.3605 42.9051L53.3676 42.9001L53.3745 42.895L52.8441 42.168ZM44.5628 47.5742L45.0152 48.3523L45.0163 48.3516L44.5628 47.5742ZM40.1878 49.9805L39.7853 49.1755L39.4949 49.3207L39.3641 49.618L40.1878 49.9805ZM39.8441 50.7617L39.0203 50.3993L38.7442 51.0269L39.2759 51.4597L39.8441 50.7617ZM42.8441 53.793L43.5341 53.2151L43.5282 53.2082L42.8441 53.793ZM47.9066 58.918L47.3104 59.5922L47.3144 59.5957L47.9066 58.918ZM54.9691 62.8242L54.6943 63.6813L54.7021 63.6837L54.9691 62.8242ZM64.5941 62.7305L64.3758 61.8573L64.5941 62.7305ZM65.2816 63.6367L64.5002 63.1902L64.4746 63.2349L64.4544 63.2822L65.2816 63.6367ZM64.9066 63.9492L65.1385 64.8188L65.1651 64.8117L65.1912 64.803L64.9066 63.9492ZM50.5941 62.293L50.1336 63.0662L50.1409 63.0706L50.1482 63.0747L50.5941 62.293ZM45.6878 58.6055L45.061 59.2513L45.066 59.2561L45.6878 58.6055ZM41.9066 54.6367L42.586 54.0464L42.5831 54.0431L41.9066 54.6367ZM39.4691 52.0742L38.8327 52.7106L38.8421 52.72L38.8517 52.729L39.4691 52.0742ZM38.5431 51.6378L35.0431 60.1378L36.7075 60.8231L40.2075 52.3231L38.5431 51.6378ZM35.0704 60.078C35.0612 60.0962 35.0773 60.0558 35.1417 60.0129C35.2118 59.9662 35.2804 59.9555 35.3128 59.9555V61.7555C35.5953 61.7555 35.8826 61.6823 36.1402 61.5106C36.3921 61.3426 36.5644 61.1147 36.6803 60.883L35.0704 60.078ZM35.3128 59.9555C35.3053 59.9555 35.2953 59.9546 35.2811 59.9511L34.8446 61.6973C34.9971 61.7355 35.1537 61.7555 35.3128 61.7555V59.9555ZM35.4653 60.0192C35.4558 60.0145 35.4678 60.0189 35.4883 60.0394C35.5102 60.0613 35.5315 60.0913 35.5463 60.1259L33.8919 60.835C34.0524 61.2096 34.3382 61.4681 34.6603 61.6292L35.4653 60.0192ZM35.5463 60.1259C35.5623 60.1633 35.5722 60.2082 35.5722 60.2539C35.5722 60.2976 35.5632 60.3239 35.5618 60.3277L33.8764 59.6957C33.7432 60.0508 33.7266 60.4494 33.8919 60.835L35.5463 60.1259ZM35.552 60.3526L39.1458 51.5714L37.4799 50.8896L33.8861 59.6708L35.552 60.3526ZM38.6204 50.3847C38.2979 50.2674 37.9477 50.2023 37.5885 50.2422L37.7872 52.0312C37.8029 52.0295 37.8695 52.0269 38.0053 52.0763L38.6204 50.3847ZM37.3333 50.3095C37.2649 50.3388 37.2224 50.3559 37.2 50.3643C37.1878 50.3689 37.192 50.3669 37.2066 50.3626C37.2137 50.3604 37.233 50.3548 37.26 50.349C37.2739 50.346 37.2949 50.3419 37.3209 50.3384C37.3452 50.335 37.3863 50.3305 37.4378 50.3305V52.1305C37.5922 52.1305 37.7197 52.0879 37.7238 52.0867C37.7644 52.0745 37.8025 52.0608 37.832 52.0497C37.8929 52.0269 37.9649 51.9972 38.0424 51.9639L37.3333 50.3095ZM37.1218 50.3878C37.1256 50.3863 37.1519 50.3773 37.1957 50.3773C37.2413 50.3773 37.2863 50.3872 37.3236 50.4032L36.6146 52.0577C37.0002 52.223 37.3987 52.2063 37.7539 52.0732L37.1218 50.3878ZM37.3236 50.4032C37.3404 50.4104 37.3606 50.4226 37.3792 50.4395C37.3974 50.456 37.4056 50.4694 37.4068 50.4714L35.8439 51.3645C36.0183 51.6696 36.2779 51.9134 36.6146 52.0577L37.3236 50.4032ZM37.4526 50.5634C37.4575 50.5749 37.4658 50.5998 37.4684 50.6351C37.4709 50.671 37.4664 50.7034 37.4595 50.7277L35.7287 50.2332C35.6274 50.5878 35.6581 50.9459 35.7981 51.2725L37.4526 50.5634ZM37.4368 50.7965C37.4359 50.7989 37.4289 50.8158 37.4105 50.8379C37.3916 50.8605 37.3704 50.877 37.3531 50.8869L36.4601 49.324C36.1205 49.5181 35.8829 49.8139 35.7514 50.1645L37.4368 50.7965ZM37.3531 50.8869C37.4348 50.8402 37.4688 50.8356 37.4608 50.837L37.1649 49.0615C36.9069 49.1045 36.67 49.2041 36.4601 49.324L37.3531 50.8869ZM37.5974 50.803C38.0449 50.6539 38.7358 50.3324 39.629 49.8754L38.8092 48.273C37.9107 48.7327 37.3307 48.9946 37.0282 49.0954L37.5974 50.803ZM40.052 49.4153L51.6457 21.1028L49.98 20.4207L38.3862 48.7332L40.052 49.4153ZM51.6555 21.0777C51.6527 21.0854 51.639 21.1174 51.6038 21.1562C51.567 21.1967 51.5224 21.227 51.4799 21.2452L50.7708 19.5907C50.3708 19.7622 50.1073 20.08 49.9701 20.4457L51.6555 21.0777ZM51.4414 21.2607C51.4306 21.2647 51.4071 21.2711 51.3753 21.2711C51.3436 21.2711 51.3201 21.2647 51.3093 21.2607L51.9414 19.5753C51.5709 19.4364 51.1797 19.4364 50.8093 19.5753L51.4414 21.2607ZM51.2228 21.223C51.2324 21.2277 51.2204 21.2233 51.1999 21.2028C51.178 21.1809 51.1567 21.1508 51.1419 21.1162L52.7963 20.4072C52.6358 20.0326 52.35 19.7741 52.0278 19.613L51.2228 21.223ZM51.1419 21.1162C51.1259 21.0789 51.116 21.034 51.116 20.9883C51.116 20.9446 51.125 20.9183 51.1264 20.9145L52.8118 21.5465C52.9449 21.1914 52.9616 20.7928 52.7963 20.4072L51.1419 21.1162ZM51.1366 20.8886L40.0741 47.8261L41.7391 48.5099L52.8016 21.5724L51.1366 20.8886ZM41.3091 48.973C41.7016 48.7767 42.1227 48.5498 42.5719 48.2931L41.6788 46.7303C41.253 46.9736 40.8616 47.1842 40.5041 47.363L41.3091 48.973ZM42.5512 48.3046C45.1164 46.9266 48.482 44.7897 52.6382 41.9075L51.6125 40.4284C47.477 43.2962 44.176 45.3885 41.6994 46.7189L42.5512 48.3046ZM52.6594 41.8924C55.9594 39.4597 59.1266 36.5977 62.1617 33.3097L60.839 32.0888C57.8741 35.3008 54.7912 38.0846 51.5913 40.4435L52.6594 41.8924ZM62.1615 33.3098C65.1941 30.0263 67.6923 27.1091 69.6514 24.5602L68.2243 23.4633C66.3083 25.956 63.8483 28.8305 60.8392 32.0886L62.1615 33.3098ZM69.6486 24.5639C70.6283 23.3028 71.3778 22.3313 71.896 21.6507C72.1549 21.3108 72.3582 21.0408 72.5043 20.8423C72.6309 20.6704 72.7575 20.4958 72.8183 20.3863L71.2448 19.5121C71.2536 19.4964 71.2122 19.5614 71.055 19.7749C70.9173 19.9618 70.7208 20.223 70.464 20.5602C69.951 21.2338 69.2057 22.1998 68.2271 23.4596L69.6486 24.5639ZM72.7639 20.4723C72.7551 20.4847 72.7297 20.5151 72.683 20.5438C72.6349 20.5734 72.5865 20.5876 72.5495 20.5923L72.3262 18.8062C71.8919 18.8605 71.5386 19.0911 71.2992 19.4261L72.7639 20.4723ZM72.6561 20.5723C72.6205 20.5813 72.5661 20.5864 72.5035 20.5739C72.4421 20.5616 72.4012 20.538 72.3835 20.5253L73.4297 19.0606C73.0799 18.8108 72.6544 18.7174 72.2196 18.8261L72.6561 20.5723ZM72.3835 20.5253C72.3711 20.5165 72.3407 20.4911 72.312 20.4443C72.2824 20.3963 72.2682 20.3479 72.2635 20.3109L74.0496 20.0876C73.9953 19.6533 73.7648 19.2999 73.4297 19.0606L72.3835 20.5253ZM72.2635 20.3109C72.2626 20.3034 72.2619 20.2867 72.2663 20.2649C72.2706 20.2431 72.2777 20.2279 72.2814 20.2214L73.8443 21.1145C74.0242 20.7996 74.0946 20.4475 74.0496 20.0876L72.2635 20.3109ZM72.2761 20.2309C72.2843 20.2161 72.2417 20.2829 72.0832 20.499C71.944 20.6887 71.7455 20.954 71.4861 21.2964C70.9678 21.9805 70.2146 22.9622 69.2256 24.2428L70.6501 25.3431C71.6402 24.0612 72.3975 23.0742 72.9208 22.3833C73.1823 22.0382 73.3874 21.7644 73.5347 21.5635C73.6627 21.389 73.7893 21.2136 73.8496 21.105L72.2761 20.2309ZM69.2256 24.2428C67.2675 26.778 64.7654 29.6946 61.7145 32.9945L63.0362 34.2164C66.1103 30.8914 68.6498 27.933 70.6501 25.3431L69.2256 24.2428ZM61.7143 32.9947C58.7087 36.2474 55.5748 39.0617 52.3136 41.4409L53.3745 42.895C56.7384 40.4409 59.9587 37.5469 63.0363 34.2163L61.7143 32.9947ZM52.3277 41.4309C49.0677 43.7149 46.3297 45.5016 44.1094 46.7968L45.0163 48.3516C47.296 47.0218 50.0788 45.2044 53.3605 42.9051L52.3277 41.4309ZM44.1105 46.7962C42.3262 47.8336 40.8862 48.6251 39.7853 49.1755L40.5903 50.7855C41.7395 50.2109 43.2162 49.3982 45.0152 48.3523L44.1105 46.7962ZM39.3641 49.618L39.0203 50.3993L40.6679 51.1242L41.0116 50.3429L39.3641 49.618ZM39.2759 51.4597C40.1152 52.1429 41.0762 53.11 42.16 54.3778L43.5282 53.2082C42.4036 51.8926 41.3646 50.8389 40.4122 50.0637L39.2759 51.4597ZM42.1541 54.3708C43.5841 56.0783 45.3045 57.8185 47.3104 59.5922L48.5028 58.2437C46.5503 56.5174 44.8957 54.841 43.5341 53.2151L42.1541 54.3708ZM47.3144 59.5957C49.3941 61.4127 51.8589 62.7722 54.6943 63.6812L55.2439 61.9672C52.6209 61.1263 50.3774 59.8815 48.4987 58.2402L47.3144 59.5957ZM54.7021 63.6837C57.6515 64.5998 61.0346 64.548 64.8124 63.6036L64.3758 61.8573C60.8203 62.7462 57.7866 62.757 55.2361 61.9647L54.7021 63.6837ZM64.8124 63.6036C64.7954 63.6078 64.7615 63.6128 64.7173 63.6069C64.6727 63.601 64.6377 63.5866 64.6163 63.5744L65.5094 62.0115C65.157 61.8102 64.7619 61.7608 64.3758 61.8573L64.8124 63.6036ZM64.6163 63.5744C64.5906 63.5597 64.5548 63.5322 64.5225 63.4892C64.4906 63.4466 64.4763 63.4077 64.471 63.3863L66.2172 62.9497C66.1176 62.5511 65.8736 62.2197 65.5094 62.0115L64.6163 63.5744ZM64.471 63.3863C64.4667 63.3693 64.4617 63.3354 64.4676 63.2912C64.4736 63.2466 64.4879 63.2116 64.5002 63.1902L66.063 64.0832C66.2644 63.7309 66.3137 63.3358 66.2172 62.9497L64.471 63.3863ZM64.4544 63.2822C64.4805 63.2212 64.5211 63.1692 64.5648 63.1328C64.6048 63.0995 64.6315 63.0922 64.622 63.0954L65.1912 64.803C65.558 64.6808 65.921 64.4295 66.1088 63.9912L64.4544 63.2822ZM64.6747 63.0796C62.8672 63.5616 61.1328 63.7992 59.4691 63.7992V65.5992C61.3054 65.5992 63.196 65.3368 65.1385 64.8188L64.6747 63.0796ZM59.4691 63.7992C56.5282 63.7992 53.7227 63.0414 51.04 61.5112L50.1482 63.0747C53.0904 64.7529 56.2017 65.5992 59.4691 65.5992V63.7992ZM51.0546 61.5197C49.2529 60.4468 47.6727 59.2578 46.3097 57.9549L45.066 59.2561C46.5363 60.6615 48.227 61.9308 50.1336 63.0662L51.0546 61.5197ZM46.3147 57.9596C44.9133 56.5995 43.6709 55.2951 42.586 54.0464L41.2272 55.227C42.3507 56.52 43.6291 57.8615 45.061 59.2513L46.3147 57.9596ZM42.5831 54.0431C41.6746 53.0079 40.8421 52.1318 40.0865 51.4194L38.8517 52.729C39.5544 53.3917 40.3469 54.2239 41.2301 55.2303L42.5831 54.0431ZM40.1055 51.4378L40.0117 51.3441L38.7389 52.6169L38.8327 52.7106L40.1055 51.4378ZM83.0628 40.3242V39.4242H82.495L82.2505 39.9368L83.0628 40.3242ZM79.3128 48.293L80.1292 48.6718L80.1292 48.6718L79.3128 48.293ZM75.4066 57.293L74.5661 56.9709L74.5627 56.9801L75.4066 57.293ZM73.7816 61.8867L72.9263 61.6065L72.9234 61.6157L73.7816 61.8867ZM72.9691 64.6367L72.0976 64.4118L72.096 64.4184L72.9691 64.6367ZM72.6566 66.043L71.7671 65.9061L71.7615 65.9423L71.7589 65.9788L72.6566 66.043ZM72.6566 66.543L73.5475 66.4157L73.5269 66.2711L73.4616 66.1405L72.6566 66.543ZM72.5628 66.9492L71.814 66.45L71.7682 66.5187L71.7356 66.5947L72.5628 66.9492ZM72.2503 67.2617L72.5349 68.1155L72.5705 68.1037L72.6049 68.0889L72.2503 67.2617ZM71.4378 66.8867L70.5763 67.1472L70.6025 67.2338L70.6454 67.3134L71.4378 66.8867ZM74.2503 56.8555L73.4099 56.5334L73.4064 56.5428L74.2503 56.8555ZM78.1566 47.793L78.9745 48.1684L78.975 48.1675L78.1566 47.793ZM81.6566 40.3242L82.4682 40.7132L83.0982 39.3988L81.6408 39.4244L81.6566 40.3242ZM78.1253 40.5117L78.2041 41.4083L78.2054 41.4082L78.1253 40.5117ZM70.4066 41.4805L70.2456 40.595L70.244 40.5953L70.4066 41.4805ZM67.1878 42.1055L67.4724 42.9593L67.4975 42.9509L67.5221 42.9411L67.1878 42.1055ZM66.6566 42.0117L66.0944 42.7145L66.6566 42.0117ZM66.4378 41.668L65.5593 41.8632L65.5651 41.8894L65.5725 41.9152L66.4378 41.668ZM66.5003 41.1992L67.2492 41.6984L67.2664 41.6727L67.2818 41.6457L66.5003 41.1992ZM66.9066 40.918L67.1018 41.7965L67.2444 41.7649L67.3696 41.6897L66.9066 40.918ZM70.1878 40.2617L70.3473 41.1475L70.3542 41.1462L70.1878 40.2617ZM78.0628 39.2617L78.14 40.1584L78.1431 40.1581L78.0628 39.2617ZM82.2816 39.0742V39.9742H82.8488L83.0935 39.4625L82.2816 39.0742ZM83.6878 36.168L84.4962 36.5636L84.4979 36.5602L83.6878 36.168ZM88.6253 26.1055L89.4303 26.508L89.4315 26.5055L88.6253 26.1055ZM90.8441 21.668L91.6308 22.105L91.6403 22.088L91.6491 22.0705L90.8441 21.668ZM91.1878 21.3555L91.4351 22.2208L91.4699 22.2109L91.5039 22.1982L91.1878 21.3555ZM91.6878 21.3867L92.1344 20.6053L92.1127 20.5929L92.0903 20.5817L91.6878 21.3867ZM91.9691 21.7617L91.096 21.98L91.1135 22.05L91.1419 22.1162L91.9691 21.7617ZM91.9691 22.2305L92.7558 22.6675L92.7883 22.6091L92.8118 22.5465L91.9691 22.2305ZM84.8128 36.6992L84.0028 36.307L83.9995 36.3139L84.8128 36.6992ZM83.6566 39.0742L82.8516 38.6717L82.2116 39.9518L83.6425 39.9741L83.6566 39.0742ZM87.6566 39.293L87.5726 40.1891L87.577 40.1894L87.6566 39.293ZM99.5628 39.3242L99.6593 40.219L100.165 40.1645L100.379 39.7032L99.5628 39.3242ZM102.032 34.0742L101.22 33.685L101.219 33.6873L102.032 34.0742ZM107.688 22.4805L106.884 22.0758L106.883 22.078L107.688 22.4805ZM110.219 17.4805L111.006 17.9175L111.015 17.9005L111.024 17.883L110.219 17.4805ZM110.563 17.168L110.81 18.0333L110.845 18.0234L110.879 18.0107L110.563 17.168ZM111.063 17.1992L111.509 16.4178L111.488 16.4054L111.465 16.3942L111.063 17.1992ZM111.344 17.5742L110.471 17.7925L110.488 17.8625L110.517 17.9287L111.344 17.5742ZM111.313 18.043L112.1 18.48L112.109 18.463L112.118 18.4455L111.313 18.043ZM108.813 23.0117L108.008 22.6092L108.006 22.6135L108.813 23.0117ZM103.188 34.5742L102.377 34.1836L102.374 34.1894L103.188 34.5742ZM101.032 39.168L100.216 38.788L99.5288 40.2628L101.143 40.061L101.032 39.168ZM107.594 37.918L107.376 37.0448L107.342 37.0532L107.309 37.0642L107.594 37.918ZM108.063 37.9805L107.616 38.7619L107.661 38.7874L107.708 38.8077L108.063 37.9805ZM108.375 38.3242L109.248 38.1059L109.236 38.0562L109.218 38.0082L108.375 38.3242ZM108.313 38.8242L107.508 38.4217L107.496 38.4454L107.486 38.4697L108.313 38.8242ZM107.969 39.1055L107.751 38.2323L107.721 38.2398L107.691 38.2494L107.969 39.1055ZM100.407 40.4805L100.3 39.5868L99.8018 39.6461L99.5904 40.1013L100.407 40.4805ZM96.8441 48.3867L97.6674 48.7502L97.6689 48.7468L96.8441 48.3867ZM92.1878 60.0742L91.3345 59.7879L91.331 59.7988L92.1878 60.0742ZM90.3753 66.0117L89.5091 65.7674L89.5083 65.7703L90.3753 66.0117ZM88.7816 72.543L87.8956 72.3848L87.8929 72.4002L87.8906 72.4157L88.7816 72.543ZM88.6253 73.7617L87.729 73.6802L87.7253 73.7209V73.7617H88.6253ZM88.6253 74.1367H89.5253V73.0334L88.4445 73.2551L88.6253 74.1367ZM87.4066 74.3867L86.6016 74.7892L86.9106 75.4072L87.5874 75.2684L87.4066 74.3867ZM87.5003 72.6055L86.6134 72.4526L86.6105 72.4695L86.6082 72.4865L87.5003 72.6055ZM88.0316 70.043L87.1546 69.8406L87.1538 69.8442L88.0316 70.043ZM89.1253 65.8555L88.2596 65.6096L88.2588 65.6124L89.1253 65.8555ZM91.0003 59.6992L90.1459 59.4163L90.1429 59.4257L91.0003 59.6992ZM95.6566 47.9492L94.8342 47.5837L94.8332 47.5858L95.6566 47.9492ZM98.9378 40.6367L99.7576 41.0081L100.397 39.5969L98.8544 39.7406L98.9378 40.6367ZM87.5316 40.543L87.4445 41.4388L87.4525 41.4395L87.5316 40.543ZM82.2505 39.9368C80.9575 42.6479 79.7062 45.307 78.4964 47.9142L80.1292 48.6718C81.3362 46.0706 82.5848 43.4172 83.8752 40.7116L82.2505 39.9368ZM78.4965 47.9141C76.7431 51.6921 75.4312 54.7136 74.5662 56.9709L76.247 57.615C77.0904 55.414 78.3825 52.4355 80.1292 48.6718L78.4965 47.9141ZM74.5627 56.9801C73.8731 58.8399 73.3271 60.383 72.9263 61.6065L74.6369 62.1669C75.0277 60.9738 75.565 59.4544 76.2504 57.6059L74.5627 56.9801ZM72.9234 61.6157C72.5469 62.8078 72.2704 63.7425 72.0976 64.4118L73.8405 64.8616C74.0012 64.2392 74.2663 63.3406 74.6398 62.1577L72.9234 61.6157ZM72.096 64.4184C71.9296 65.0839 71.8158 65.5894 71.7671 65.9061L73.5461 66.1798C73.5807 65.9549 73.6752 65.5229 73.8422 64.855L72.096 64.4184ZM71.7589 65.9788C71.7479 66.1327 71.741 66.2719 71.741 66.3867C71.741 66.443 71.7426 66.51 71.7493 66.5778C71.7526 66.6108 71.7663 66.7749 71.8516 66.9455L73.4616 66.1405C73.4861 66.1896 73.5014 66.2319 73.5106 66.2608C73.52 66.2906 73.526 66.3155 73.5298 66.3329C73.537 66.3666 73.5396 66.3906 73.5404 66.3987C73.5414 66.4084 73.5414 66.4124 73.5413 66.4088C73.5412 66.4056 73.541 66.3985 73.541 66.3867C73.541 66.3627 73.5417 66.3275 73.5439 66.2791C73.5461 66.2314 73.5495 66.1742 73.5543 66.1071L71.7589 65.9788ZM71.7656 66.6702C71.7613 66.64 71.761 66.5983 71.7718 66.5515C71.7825 66.5051 71.8003 66.4705 71.814 66.45L73.3117 67.4484C73.5152 67.1432 73.6004 66.7855 73.5475 66.4157L71.7656 66.6702ZM71.7356 66.5947C71.746 66.5705 71.7665 66.5353 71.8014 66.5003C71.8364 66.4654 71.8717 66.4448 71.8958 66.4345L72.6049 68.0889C72.9631 67.9354 73.2365 67.662 73.3901 67.3037L71.7356 66.5947ZM71.9657 66.4079C72.0156 66.3913 72.0426 66.393 72.0316 66.393V68.193C72.1872 68.193 72.3601 68.1738 72.5349 68.1155L71.9657 66.4079ZM72.0316 66.393C72.0513 66.393 72.0802 66.3958 72.1143 66.4061C72.1487 66.4165 72.1792 66.4318 72.2039 66.4486C72.2523 66.4818 72.2537 66.5036 72.2303 66.46L70.6454 67.3134C70.9053 67.7961 71.3689 68.193 72.0316 68.193V66.393ZM72.2993 66.6263C72.3043 66.6428 72.2897 66.599 72.2927 66.4547C72.2955 66.3198 72.3126 66.1358 72.3504 65.8957C72.4259 65.415 72.5745 64.77 72.8044 63.95C73.2634 62.313 74.0244 60.0557 75.0943 57.1682L73.4064 56.5428C72.3304 59.4469 71.5498 61.7573 71.0713 63.4641C70.8324 64.316 70.6633 65.0368 70.5722 65.6161C70.4883 66.1498 70.4438 66.7089 70.5763 67.1472L72.2993 66.6263ZM75.0908 57.1775C75.9347 54.9749 77.2276 51.9743 78.9745 48.1684L77.3386 47.4175C75.5856 51.2366 74.2743 54.2777 73.4099 56.5334L75.0908 57.1775ZM78.975 48.1675C80.0977 45.7142 81.2621 43.2294 82.4682 40.7132L80.845 39.9352C79.6344 42.4607 78.4655 44.9551 77.3382 47.4185L78.975 48.1675ZM81.6408 39.4244C80.4322 39.4456 79.2336 39.5092 78.0453 39.6153L78.2054 41.4082C79.3504 41.3059 80.506 41.2445 81.6724 41.2241L81.6408 39.4244ZM78.0466 39.6152C74.9473 39.8874 72.3448 40.2133 70.2456 40.595L70.5676 42.366C72.5934 41.9976 75.1367 41.6777 78.2041 41.4083L78.0466 39.6152ZM70.244 40.5953C69.2223 40.7829 68.4401 40.9294 67.8991 41.0345C67.6291 41.0869 67.4154 41.1297 67.2606 41.1626C67.1837 41.1789 67.1164 41.1939 67.0618 41.207C67.0319 41.2142 66.938 41.2361 66.8536 41.2698L67.5221 42.9411C67.4638 42.9644 67.4262 42.9707 67.4828 42.9571C67.5148 42.9494 67.5643 42.9383 67.6346 42.9233C67.774 42.8937 67.9757 42.8532 68.2422 42.8015C68.7741 42.6982 69.5492 42.553 70.5692 42.3657L70.244 40.5953ZM66.9032 41.2517C66.8994 41.2529 66.9074 41.25 66.9254 41.2464C66.9425 41.243 66.9796 41.2367 67.0316 41.2367V43.0367C67.2094 43.0367 67.365 42.9951 67.4724 42.9593L66.9032 41.2517ZM67.0316 41.2367C67.0452 41.2367 67.0746 41.2388 67.1131 41.2517C67.1526 41.2648 67.189 41.2851 67.2188 41.3089L66.0944 42.7145C66.3733 42.9376 66.7017 43.0367 67.0316 43.0367V41.2367ZM67.2188 41.3089C67.2455 41.3303 67.2673 41.3554 67.2831 41.3801C67.2982 41.4039 67.303 41.4199 67.3032 41.4207L65.5725 41.9152C65.6582 42.2151 65.8249 42.4989 66.0944 42.7145L67.2188 41.3089ZM67.3164 41.4727C67.3136 41.4603 67.3205 41.4824 67.3143 41.5291C67.3075 41.5801 67.2874 41.6411 67.2492 41.6984L65.7515 40.7C65.4967 41.0822 65.48 41.5066 65.5593 41.8632L67.3164 41.4727ZM67.2818 41.6457C67.2581 41.6871 67.2217 41.7283 67.1767 41.7595C67.1341 41.789 67.1031 41.7963 67.1018 41.7965L66.7114 40.0394C66.3155 40.1274 65.9467 40.3541 65.7189 40.7527L67.2818 41.6457ZM67.3696 41.6897C67.2652 41.7524 67.1779 41.7703 67.2418 41.7518C67.2647 41.7452 67.3074 41.7341 67.376 41.718C67.5112 41.6862 67.7114 41.6436 67.9815 41.5896C68.5198 41.4819 69.3072 41.3347 70.3473 41.1475L70.0284 39.376C68.9851 39.5637 68.184 39.7134 67.6285 39.8245C67.3518 39.8799 67.1288 39.9271 66.9646 39.9656C66.8834 39.9847 66.8073 40.0038 66.7423 40.0226C66.7183 40.0295 66.5741 40.0679 66.4435 40.1462L67.3696 41.6897ZM70.3542 41.1462C72.4186 40.7579 75.0115 40.4277 78.14 40.1584L77.9856 38.365C74.8225 38.6374 72.1654 38.9739 70.0215 39.3772L70.3542 41.1462ZM78.1431 40.1581C79.512 40.0355 80.8914 39.9742 82.2816 39.9742V38.1742C80.8384 38.1742 79.4054 38.2379 77.9826 38.3653L78.1431 40.1581ZM83.0935 39.4625C83.5506 38.5067 84.0182 37.5404 84.4962 36.5636L82.8794 35.7724C82.3991 36.7539 81.9292 37.7251 81.4697 38.6859L83.0935 39.4625ZM84.4979 36.5602C86.4135 32.604 88.0576 29.2534 89.4303 26.508L87.8204 25.703C86.4431 28.4575 84.7955 31.8153 82.8778 35.7757L84.4979 36.5602ZM89.4315 26.5055C90.8158 23.716 91.5401 22.2684 91.6308 22.105L90.0573 21.2309C89.9398 21.4426 89.1849 22.9533 87.8191 25.7054L89.4315 26.5055ZM91.6491 22.0705C91.6509 22.0668 91.6377 22.0946 91.5979 22.1308C91.555 22.1698 91.4982 22.2028 91.4351 22.2208L90.9406 20.4901C90.4983 20.6165 90.2075 20.9287 90.0391 21.2655L91.6491 22.0705ZM91.5039 22.1982C91.4764 22.2085 91.4332 22.2179 91.3817 22.2147C91.3313 22.2115 91.2975 22.1978 91.2853 22.1917L92.0903 20.5817C91.7116 20.3924 91.2849 20.3579 90.8718 20.5128L91.5039 22.1982ZM91.2413 22.1681C91.2156 22.1535 91.1798 22.126 91.1475 22.083C91.1156 22.0404 91.1013 22.0014 91.096 21.98L92.8422 21.5434C92.7426 21.1449 92.4986 20.8135 92.1344 20.6053L91.2413 22.1681ZM91.1419 22.1162C91.1259 22.0789 91.116 22.034 91.116 21.9883C91.116 21.9446 91.125 21.9183 91.1264 21.9145L92.8118 22.5465C92.9449 22.1914 92.9616 21.7928 92.7963 21.4072L91.1419 22.1162ZM91.1823 21.7934C91.0656 22.0035 90.3116 23.5017 88.9454 26.2342L90.5553 27.0392C91.939 24.2718 92.6642 22.8324 92.7558 22.6675L91.1823 21.7934ZM88.9454 26.2342C87.5681 28.9887 85.9205 32.3465 84.0028 36.307L85.6229 37.0914C87.5385 33.1352 89.1826 29.7847 90.5553 27.0392L88.9454 26.2342ZM83.9995 36.3139C83.6272 37.0998 83.2446 37.8857 82.8516 38.6717L84.4616 39.4767C84.8602 38.6794 85.2484 37.882 85.6262 37.0845L83.9995 36.3139ZM83.6425 39.9741C84.9524 39.9946 86.2624 40.0662 87.5726 40.189L87.7406 38.3969C86.3841 38.2697 85.0274 38.1955 83.6707 38.1743L83.6425 39.9741ZM87.577 40.1894C92.0786 40.5891 96.1081 40.6018 99.6593 40.219L99.4664 38.4294C96.0593 38.7966 92.1513 38.7885 87.7362 38.3965L87.577 40.1894ZM100.379 39.7032C101.19 37.9559 102.012 36.2085 102.844 34.4612L101.219 33.6873C100.384 35.4399 99.5603 37.1926 98.7465 38.9452L100.379 39.7032ZM102.843 34.4634C105.05 29.8619 106.933 26.0021 108.493 22.883L106.883 22.078C105.317 25.2089 103.43 29.0782 101.22 33.685L102.843 34.4634ZM108.492 22.8851C110.084 19.7223 110.913 18.0838 111.006 17.9175L109.432 17.0434C109.316 17.2522 108.459 18.947 106.884 22.0758L108.492 22.8851ZM111.024 17.883C111.026 17.8793 111.013 17.9071 110.973 17.9433C110.93 17.9823 110.873 18.0153 110.81 18.0333L110.316 16.3026C109.873 16.429 109.582 16.7412 109.414 17.078L111.024 17.883ZM110.879 18.0107C110.851 18.021 110.808 18.0304 110.757 18.0272C110.706 18.024 110.673 18.0103 110.66 18.0042L111.465 16.3942C111.087 16.2049 110.66 16.1704 110.247 16.3253L110.879 18.0107ZM110.616 17.9806C110.591 17.966 110.555 17.9385 110.523 17.8955C110.491 17.8529 110.476 17.8139 110.471 17.7925L112.217 17.3559C112.118 16.9574 111.874 16.626 111.509 16.4178L110.616 17.9806ZM110.517 17.9287C110.493 17.8728 110.481 17.8065 110.485 17.7409C110.489 17.6794 110.506 17.6441 110.508 17.6405L112.118 18.4455C112.297 18.0878 112.357 17.6522 112.171 17.2197L110.517 17.9287ZM110.526 17.6059C110.409 17.816 109.561 19.5023 108.008 22.6092L109.618 23.4142C111.189 20.2711 112.008 18.6449 112.1 18.48L110.526 17.6059ZM108.006 22.6135C106.462 25.7419 104.586 29.5987 102.377 34.1836L103.999 34.9649C106.206 30.383 108.08 26.5315 109.62 23.4099L108.006 22.6135ZM102.374 34.1894C101.644 35.7327 100.925 37.2655 100.216 38.788L101.847 39.548C102.555 38.0288 103.273 36.4991 104.001 34.959L102.374 34.1894ZM101.143 40.061C104.153 39.6848 106.415 39.2598 107.879 38.7718L107.309 37.0642C106.024 37.4928 103.91 37.9011 100.92 38.2749L101.143 40.061ZM107.812 38.7911C107.795 38.7953 107.762 38.8003 107.717 38.7944C107.673 38.7885 107.638 38.7741 107.616 38.7619L108.509 37.199C108.157 36.9977 107.762 36.9483 107.376 37.0448L107.812 38.7911ZM107.708 38.8077C107.666 38.7895 107.621 38.7592 107.584 38.7187C107.549 38.6799 107.536 38.6479 107.533 38.6402L109.218 38.0082C109.081 37.6425 108.817 37.3247 108.417 37.1532L107.708 38.8077ZM107.502 38.5425C107.497 38.5205 107.494 38.492 107.498 38.4626C107.501 38.4342 107.509 38.4197 107.508 38.4217L109.118 39.2267C109.288 38.8854 109.347 38.4993 109.248 38.1059L107.502 38.5425ZM107.486 38.4697C107.507 38.4193 107.547 38.3586 107.61 38.3073C107.671 38.2577 107.726 38.2386 107.751 38.2323L108.187 39.9786C108.601 39.8752 108.957 39.6069 109.14 39.1787L107.486 38.4697ZM107.691 38.2494C106.239 38.7203 103.793 39.1709 100.3 39.5868L100.513 41.3742C104.02 40.9567 106.616 40.4906 108.247 39.9616L107.691 38.2494ZM99.5904 40.1013C98.3583 42.7533 97.1679 45.3951 96.0192 48.0267L97.6689 48.7468C98.8119 46.1283 99.9965 43.4993 101.223 40.8597L99.5904 40.1013ZM96.0207 48.0233C93.973 52.6621 92.4091 56.5855 91.3346 59.7879L93.0411 60.3605C94.0916 57.2296 95.6319 53.3613 97.6674 48.7502L96.0207 48.0233ZM91.331 59.7988C90.579 62.1383 89.9714 64.1285 89.5091 65.7674L91.2415 66.256C91.696 64.6449 92.2966 62.6768 93.0447 60.3496L91.331 59.7988ZM89.5083 65.7703C89.0483 67.4221 88.6906 68.7891 88.4368 69.8681L90.1889 70.2804C90.435 69.2343 90.7857 67.893 91.2423 66.2532L89.5083 65.7703ZM88.4368 69.8681C88.1856 70.9357 88.0041 71.7773 87.8956 72.3848L89.6676 72.7012C89.7674 72.142 89.9401 71.3378 90.1889 70.2804L88.4368 69.8681ZM87.8906 72.4157C87.8075 72.998 87.7522 73.4253 87.729 73.6802L89.5216 73.8432C89.5401 73.6398 89.5891 73.2546 89.6725 72.6702L87.8906 72.4157ZM87.7253 73.7617C87.7253 73.7622 87.7253 73.7627 87.7253 73.7632C87.7253 73.7637 87.7253 73.7642 87.7253 73.7646C87.7253 73.7651 87.7253 73.7656 87.7253 73.7661C87.7253 73.7666 87.7253 73.7671 87.7253 73.7676C87.7253 73.768 87.7253 73.7685 87.7253 73.769C87.7253 73.7695 87.7253 73.77 87.7253 73.7705C87.7253 73.7709 87.7253 73.7714 87.7253 73.7719C87.7253 73.7724 87.7253 73.7729 87.7253 73.7734C87.7253 73.7738 87.7253 73.7743 87.7253 73.7748C87.7253 73.7753 87.7253 73.7758 87.7253 73.7762C87.7253 73.7767 87.7253 73.7772 87.7253 73.7777C87.7253 73.7782 87.7253 73.7786 87.7253 73.7791C87.7253 73.7796 87.7253 73.7801 87.7253 73.7805C87.7253 73.781 87.7253 73.7815 87.7253 73.782C87.7253 73.7824 87.7253 73.7829 87.7253 73.7834C87.7253 73.7839 87.7253 73.7843 87.7253 73.7848C87.7253 73.7853 87.7253 73.7858 87.7253 73.7862C87.7253 73.7867 87.7253 73.7872 87.7253 73.7877C87.7253 73.7881 87.7253 73.7886 87.7253 73.7891C87.7253 73.7895 87.7253 73.79 87.7253 73.7905C87.7253 73.791 87.7253 73.7914 87.7253 73.7919C87.7253 73.7924 87.7253 73.7928 87.7253 73.7933C87.7253 73.7938 87.7253 73.7942 87.7253 73.7947C87.7253 73.7952 87.7253 73.7957 87.7253 73.7961C87.7253 73.7966 87.7253 73.7971 87.7253 73.7975C87.7253 73.798 87.7253 73.7985 87.7253 73.7989C87.7253 73.7994 87.7253 73.7998 87.7253 73.8003C87.7253 73.8008 87.7253 73.8012 87.7253 73.8017C87.7253 73.8022 87.7253 73.8026 87.7253 73.8031C87.7253 73.8036 87.7253 73.804 87.7253 73.8045C87.7253 73.8049 87.7253 73.8054 87.7253 73.8059C87.7253 73.8063 87.7253 73.8068 87.7253 73.8073C87.7253 73.8077 87.7253 73.8082 87.7253 73.8086C87.7253 73.8091 87.7253 73.8095 87.7253 73.81C87.7253 73.8105 87.7253 73.8109 87.7253 73.8114C87.7253 73.8118 87.7253 73.8123 87.7253 73.8128C87.7253 73.8132 87.7253 73.8137 87.7253 73.8141C87.7253 73.8146 87.7253 73.815 87.7253 73.8155C87.7253 73.8159 87.7253 73.8164 87.7253 73.8169C87.7253 73.8173 87.7253 73.8178 87.7253 73.8182C87.7253 73.8187 87.7253 73.8191 87.7253 73.8196C87.7253 73.82 87.7253 73.8205 87.7253 73.8209C87.7253 73.8214 87.7253 73.8218 87.7253 73.8223C87.7253 73.8227 87.7253 73.8232 87.7253 73.8236C87.7253 73.8241 87.7253 73.8245 87.7253 73.825C87.7253 73.8254 87.7253 73.8259 87.7253 73.8263C87.7253 73.8268 87.7253 73.8272 87.7253 73.8277C87.7253 73.8281 87.7253 73.8286 87.7253 73.829C87.7253 73.8295 87.7253 73.8299 87.7253 73.8303C87.7253 73.8308 87.7253 73.8312 87.7253 73.8317C87.7253 73.8321 87.7253 73.8326 87.7253 73.833C87.7253 73.8335 87.7253 73.8339 87.7253 73.8343C87.7253 73.8348 87.7253 73.8352 87.7253 73.8357C87.7253 73.8361 87.7253 73.8366 87.7253 73.837C87.7253 73.8374 87.7253 73.8379 87.7253 73.8383C87.7253 73.8388 87.7253 73.8392 87.7253 73.8396C87.7253 73.8401 87.7253 73.8405 87.7253 73.841C87.7253 73.8414 87.7253 73.8418 87.7253 73.8423C87.7253 73.8427 87.7253 73.8431 87.7253 73.8436C87.7253 73.844 87.7253 73.8445 87.7253 73.8449C87.7253 73.8453 87.7253 73.8458 87.7253 73.8462C87.7253 73.8466 87.7253 73.8471 87.7253 73.8475C87.7253 73.8479 87.7253 73.8484 87.7253 73.8488C87.7253 73.8492 87.7253 73.8497 87.7253 73.8501C87.7253 73.8505 87.7253 73.851 87.7253 73.8514C87.7253 73.8518 87.7253 73.8523 87.7253 73.8527C87.7253 73.8531 87.7253 73.8535 87.7253 73.854C87.7253 73.8544 87.7253 73.8548 87.7253 73.8553C87.7253 73.8557 87.7253 73.8561 87.7253 73.8565C87.7253 73.857 87.7253 73.8574 87.7253 73.8578C87.7253 73.8583 87.7253 73.8587 87.7253 73.8591C87.7253 73.8595 87.7253 73.86 87.7253 73.8604C87.7253 73.8608 87.7253 73.8612 87.7253 73.8617C87.7253 73.8621 87.7253 73.8625 87.7253 73.8629C87.7253 73.8634 87.7253 73.8638 87.7253 73.8642C87.7253 73.8646 87.7253 73.8651 87.7253 73.8655C87.7253 73.8659 87.7253 73.8663 87.7253 73.8667C87.7253 73.8672 87.7253 73.8676 87.7253 73.868C87.7253 73.8684 87.7253 73.8688 87.7253 73.8693C87.7253 73.8697 87.7253 73.8701 87.7253 73.8705C87.7253 73.8709 87.7253 73.8714 87.7253 73.8718C87.7253 73.8722 87.7253 73.8726 87.7253 73.873C87.7253 73.8734 87.7253 73.8739 87.7253 73.8743C87.7253 73.8747 87.7253 73.8751 87.7253 73.8755C87.7253 73.8759 87.7253 73.8763 87.7253 73.8768C87.7253 73.8772 87.7253 73.8776 87.7253 73.878C87.7253 73.8784 87.7253 73.8788 87.7253 73.8792C87.7253 73.8796 87.7253 73.8801 87.7253 73.8805C87.7253 73.8809 87.7253 73.8813 87.7253 73.8817C87.7253 73.8821 87.7253 73.8825 87.7253 73.8829C87.7253 73.8833 87.7253 73.8838 87.7253 73.8842C87.7253 73.8846 87.7253 73.885 87.7253 73.8854C87.7253 73.8858 87.7253 73.8862 87.7253 73.8866C87.7253 73.887 87.7253 73.8874 87.7253 73.8878C87.7253 73.8882 87.7253 73.8886 87.7253 73.889C87.7253 73.8894 87.7253 73.8899 87.7253 73.8903C87.7253 73.8907 87.7253 73.8911 87.7253 73.8915C87.7253 73.8919 87.7253 73.8923 87.7253 73.8927C87.7253 73.8931 87.7253 73.8935 87.7253 73.8939C87.7253 73.8943 87.7253 73.8947 87.7253 73.8951C87.7253 73.8955 87.7253 73.8959 87.7253 73.8963C87.7253 73.8967 87.7253 73.8971 87.7253 73.8975C87.7253 73.8979 87.7253 73.8983 87.7253 73.8987C87.7253 73.8991 87.7253 73.8995 87.7253 73.8999C87.7253 73.9003 87.7253 73.9007 87.7253 73.9011C87.7253 73.9015 87.7253 73.9019 87.7253 73.9023C87.7253 73.9027 87.7253 73.903 87.7253 73.9034C87.7253 73.9038 87.7253 73.9042 87.7253 73.9046C87.7253 73.905 87.7253 73.9054 87.7253 73.9058C87.7253 73.9062 87.7253 73.9066 87.7253 73.907C87.7253 73.9074 87.7253 73.9078 87.7253 73.9082C87.7253 73.9086 87.7253 73.9089 87.7253 73.9093C87.7253 73.9097 87.7253 73.9101 87.7253 73.9105C87.7253 73.9109 87.7253 73.9113 87.7253 73.9117C87.7253 73.9121 87.7253 73.9124 87.7253 73.9128C87.7253 73.9132 87.7253 73.9136 87.7253 73.914C87.7253 73.9144 87.7253 73.9148 87.7253 73.9152C87.7253 73.9155 87.7253 73.9159 87.7253 73.9163C87.7253 73.9167 87.7253 73.9171 87.7253 73.9175C87.7253 73.9179 87.7253 73.9182 87.7253 73.9186C87.7253 73.919 87.7253 73.9194 87.7253 73.9198C87.7253 73.9201 87.7253 73.9205 87.7253 73.9209C87.7253 73.9213 87.7253 73.9217 87.7253 73.9221C87.7253 73.9224 87.7253 73.9228 87.7253 73.9232C87.7253 73.9236 87.7253 73.924 87.7253 73.9243C87.7253 73.9247 87.7253 73.9251 87.7253 73.9255C87.7253 73.9258 87.7253 73.9262 87.7253 73.9266C87.7253 73.927 87.7253 73.9274 87.7253 73.9277C87.7253 73.9281 87.7253 73.9285 87.7253 73.9289C87.7253 73.9292 87.7253 73.9296 87.7253 73.93C87.7253 73.9304 87.7253 73.9307 87.7253 73.9311C87.7253 73.9315 87.7253 73.9319 87.7253 73.9322C87.7253 73.9326 87.7253 73.933 87.7253 73.9333C87.7253 73.9337 87.7253 73.9341 87.7253 73.9345C87.7253 73.9348 87.7253 73.9352 87.7253 73.9356C87.7253 73.9359 87.7253 73.9363 87.7253 73.9367C87.7253 73.9371 87.7253 73.9374 87.7253 73.9378C87.7253 73.9382 87.7253 73.9385 87.7253 73.9389C87.7253 73.9393 87.7253 73.9396 87.7253 73.94C87.7253 73.9404 87.7253 73.9407 87.7253 73.9411C87.7253 73.9415 87.7253 73.9418 87.7253 73.9422C87.7253 73.9426 87.7253 73.9429 87.7253 73.9433C87.7253 73.9436 87.7253 73.944 87.7253 73.9444C87.7253 73.9447 87.7253 73.9451 87.7253 73.9455C87.7253 73.9458 87.7253 73.9462 87.7253 73.9466C87.7253 73.9469 87.7253 73.9473 87.7253 73.9476C87.7253 73.948 87.7253 73.9484 87.7253 73.9487C87.7253 73.9491 87.7253 73.9494 87.7253 73.9498C87.7253 73.9502 87.7253 73.9505 87.7253 73.9509C87.7253 73.9512 87.7253 73.9516 87.7253 73.9519C87.7253 73.9523 87.7253 73.9527 87.7253 73.953C87.7253 73.9534 87.7253 73.9537 87.7253 73.9541C87.7253 73.9544 87.7253 73.9548 87.7253 73.9551C87.7253 73.9555 87.7253 73.9559 87.7253 73.9562C87.7253 73.9566 87.7253 73.9569 87.7253 73.9573C87.7253 73.9576 87.7253 73.958 87.7253 73.9583C87.7253 73.9587 87.7253 73.959 87.7253 73.9594C87.7253 73.9597 87.7253 73.9601 87.7253 73.9604C87.7253 73.9608 87.7253 73.9611 87.7253 73.9615C87.7253 73.9618 87.7253 73.9622 87.7253 73.9625C87.7253 73.9629 87.7253 73.9632 87.7253 73.9636C87.7253 73.9639 87.7253 73.9643 87.7253 73.9646C87.7253 73.965 87.7253 73.9653 87.7253 73.9656C87.7253 73.966 87.7253 73.9663 87.7253 73.9667C87.7253 73.967 87.7253 73.9674 87.7253 73.9677C87.7253 73.9681 87.7253 73.9684 87.7253 73.9687C87.7253 73.9691 87.7253 73.9694 87.7253 73.9698C87.7253 73.9701 87.7253 73.9705 87.7253 73.9708C87.7253 73.9711 87.7253 73.9715 87.7253 73.9718C87.7253 73.9722 87.7253 73.9725 87.7253 73.9728C87.7253 73.9732 87.7253 73.9735 87.7253 73.9739C87.7253 73.9742 87.7253 73.9745 87.7253 73.9749C87.7253 73.9752 87.7253 73.9756 87.7253 73.9759C87.7253 73.9762 87.7253 73.9766 87.7253 73.9769C87.7253 73.9772 87.7253 73.9776 87.7253 73.9779C87.7253 73.9782 87.7253 73.9786 87.7253 73.9789C87.7253 73.9792 87.7253 73.9796 87.7253 73.9799C87.7253 73.9802 87.7253 73.9806 87.7253 73.9809C87.7253 73.9812 87.7253 73.9816 87.7253 73.9819C87.7253 73.9822 87.7253 73.9826 87.7253 73.9829C87.7253 73.9832 87.7253 73.9836 87.7253 73.9839C87.7253 73.9842 87.7253 73.9846 87.7253 73.9849C87.7253 73.9852 87.7253 73.9855 87.7253 73.9859C87.7253 73.9862 87.7253 73.9865 87.7253 73.9869C87.7253 73.9872 87.7253 73.9875 87.7253 73.9878C87.7253 73.9882 87.7253 73.9885 87.7253 73.9888C87.7253 73.9891 87.7253 73.9895 87.7253 73.9898C87.7253 73.9901 87.7253 73.9904 87.7253 73.9908C87.7253 73.9911 87.7253 73.9914 87.7253 73.9917C87.7253 73.9921 87.7253 73.9924 87.7253 73.9927C87.7253 73.993 87.7253 73.9933 87.7253 73.9937C87.7253 73.994 87.7253 73.9943 87.7253 73.9946C87.7253 73.9949 87.7253 73.9953 87.7253 73.9956C87.7253 73.9959 87.7253 73.9962 87.7253 73.9965C87.7253 73.9969 87.7253 73.9972 87.7253 73.9975C87.7253 73.9978 87.7253 73.9981 87.7253 73.9985C87.7253 73.9988 87.7253 73.9991 87.7253 73.9994C87.7253 73.9997 87.7253 74 87.7253 74.0003C87.7253 74.0007 87.7253 74.001 87.7253 74.0013C87.7253 74.0016 87.7253 74.0019 87.7253 74.0022C87.7253 74.0025 87.7253 74.0029 87.7253 74.0032C87.7253 74.0035 87.7253 74.0038 87.7253 74.0041C87.7253 74.0044 87.7253 74.0047 87.7253 74.005C87.7253 74.0054 87.7253 74.0057 87.7253 74.006C87.7253 74.0063 87.7253 74.0066 87.7253 74.0069C87.7253 74.0072 87.7253 74.0075 87.7253 74.0078C87.7253 74.0081 87.7253 74.0084 87.7253 74.0088C87.7253 74.0091 87.7253 74.0094 87.7253 74.0097C87.7253 74.01 87.7253 74.0103 87.7253 74.0106C87.7253 74.0109 87.7253 74.0112 87.7253 74.0115C87.7253 74.0118 87.7253 74.0121 87.7253 74.0124C87.7253 74.0127 87.7253 74.013 87.7253 74.0133C87.7253 74.0136 87.7253 74.0139 87.7253 74.0142C87.7253 74.0145 87.7253 74.0148 87.7253 74.0151C87.7253 74.0154 87.7253 74.0157 87.7253 74.016C87.7253 74.0163 87.7253 74.0166 87.7253 74.0169C87.7253 74.0172 87.7253 74.0175 87.7253 74.0178C87.7253 74.0181 87.7253 74.0184 87.7253 74.0187C87.7253 74.019 87.7253 74.0193 87.7253 74.0196C87.7253 74.0199 87.7253 74.0202 87.7253 74.0205C87.7253 74.0208 87.7253 74.0211 87.7253 74.0214C87.7253 74.0217 87.7253 74.022 87.7253 74.0223C87.7253 74.0226 87.7253 74.0229 87.7253 74.0232C87.7253 74.0235 87.7253 74.0238 87.7253 74.024C87.7253 74.0243 87.7253 74.0246 87.7253 74.0249C87.7253 74.0252 87.7253 74.0255 87.7253 74.0258C87.7253 74.0261 87.7253 74.0264 87.7253 74.0267C87.7253 74.027 87.7253 74.0272 87.7253 74.0275C87.7253 74.0278 87.7253 74.0281 87.7253 74.0284C87.7253 74.0287 87.7253 74.029 87.7253 74.0293C87.7253 74.0296 87.7253 74.0298 87.7253 74.0301C87.7253 74.0304 87.7253 74.0307 87.7253 74.031C87.7253 74.0313 87.7253 74.0316 87.7253 74.0318C87.7253 74.0321 87.7253 74.0324 87.7253 74.0327C87.7253 74.033 87.7253 74.0333 87.7253 74.0335C87.7253 74.0338 87.7253 74.0341 87.7253 74.0344C87.7253 74.0347 87.7253 74.035 87.7253 74.0352C87.7253 74.0355 87.7253 74.0358 87.7253 74.0361C87.7253 74.0364 87.7253 74.0366 87.7253 74.0369C87.7253 74.0372 87.7253 74.0375 87.7253 74.0378C87.7253 74.038 87.7253 74.0383 87.7253 74.0386C87.7253 74.0389 87.7253 74.0391 87.7253 74.0394C87.7253 74.0397 87.7253 74.04 87.7253 74.0402C87.7253 74.0405 87.7253 74.0408 87.7253 74.0411C87.7253 74.0413 87.7253 74.0416 87.7253 74.0419C87.7253 74.0422 87.7253 74.0424 87.7253 74.0427C87.7253 74.043 87.7253 74.0433 87.7253 74.0435C87.7253 74.0438 87.7253 74.0441 87.7253 74.0443C87.7253 74.0446 87.7253 74.0449 87.7253 74.0452C87.7253 74.0454 87.7253 74.0457 87.7253 74.046C87.7253 74.0462 87.7253 74.0465 87.7253 74.0468C87.7253 74.0471 87.7253 74.0473 87.7253 74.0476C87.7253 74.0479 87.7253 74.0481 87.7253 74.0484C87.7253 74.0487 87.7253 74.0489 87.7253 74.0492C87.7253 74.0495 87.7253 74.0497 87.7253 74.05C87.7253 74.0503 87.7253 74.0505 87.7253 74.0508C87.7253 74.051 87.7253 74.0513 87.7253 74.0516C87.7253 74.0518 87.7253 74.0521 87.7253 74.0524C87.7253 74.0526 87.7253 74.0529 87.7253 74.0531C87.7253 74.0534 87.7253 74.0537 87.7253 74.0539C87.7253 74.0542 87.7253 74.0545 87.7253 74.0547C87.7253 74.055 87.7253 74.0552 87.7253 74.0555C87.7253 74.0558 87.7253 74.056 87.7253 74.0563C87.7253 74.0565 87.7253 74.0568 87.7253 74.057C87.7253 74.0573 87.7253 74.0576 87.7253 74.0578C87.7253 74.0581 87.7253 74.0583 87.7253 74.0586C87.7253 74.0588 87.7253 74.0591 87.7253 74.0594C87.7253 74.0596 87.7253 74.0599 87.7253 74.0601C87.7253 74.0604 87.7253 74.0606 87.7253 74.0609C87.7253 74.0611 87.7253 74.0614 87.7253 74.0616C87.7253 74.0619 87.7253 74.0621 87.7253 74.0624C87.7253 74.0626 87.7253 74.0629 87.7253 74.0631C87.7253 74.0634 87.7253 74.0636 87.7253 74.0639C87.7253 74.0641 87.7253 74.0644 87.7253 74.0646C87.7253 74.0649 87.7253 74.0651 87.7253 74.0654C87.7253 74.0656 87.7253 74.0659 87.7253 74.0661C87.7253 74.0664 87.7253 74.0666 87.7253 74.0669C87.7253 74.0671 87.7253 74.0674 87.7253 74.0676C87.7253 74.0678 87.7253 74.0681 87.7253 74.0683C87.7253 74.0686 87.7253 74.0688 87.7253 74.0691C87.7253 74.0693 87.7253 74.0696 87.7253 74.0698C87.7253 74.07 87.7253 74.0703 87.7253 74.0705C87.7253 74.0708 87.7253 74.071 87.7253 74.0712C87.7253 74.0715 87.7253 74.0717 87.7253 74.072C87.7253 74.0722 87.7253 74.0724 87.7253 74.0727C87.7253 74.0729 87.7253 74.0732 87.7253 74.0734C87.7253 74.0736 87.7253 74.0739 87.7253 74.0741C87.7253 74.0744 87.7253 74.0746 87.7253 74.0748C87.7253 74.0751 87.7253 74.0753 87.7253 74.0755C87.7253 74.0758 87.7253 74.076 87.7253 74.0762C87.7253 74.0765 87.7253 74.0767 87.7253 74.0769C87.7253 74.0772 87.7253 74.0774 87.7253 74.0776C87.7253 74.0779 87.7253 74.0781 87.7253 74.0783C87.7253 74.0786 87.7253 74.0788 87.7253 74.079C87.7253 74.0793 87.7253 74.0795 87.7253 74.0797C87.7253 74.08 87.7253 74.0802 87.7253 74.0804C87.7253 74.0807 87.7253 74.0809 87.7253 74.0811C87.7253 74.0813 87.7253 74.0816 87.7253 74.0818C87.7253 74.082 87.7253 74.0822 87.7253 74.0825C87.7253 74.0827 87.7253 74.0829 87.7253 74.0832C87.7253 74.0834 87.7253 74.0836 87.7253 74.0838C87.7253 74.0841 87.7253 74.0843 87.7253 74.0845C87.7253 74.0847 87.7253 74.085 87.7253 74.0852C87.7253 74.0854 87.7253 74.0856 87.7253 74.0858C87.7253 74.0861 87.7253 74.0863 87.7253 74.0865C87.7253 74.0867 87.7253 74.087 87.7253 74.0872C87.7253 74.0874 87.7253 74.0876 87.7253 74.0878C87.7253 74.0881 87.7253 74.0883 87.7253 74.0885C87.7253 74.0887 87.7253 74.0889 87.7253 74.0892C87.7253 74.0894 87.7253 74.0896 87.7253 74.0898C87.7253 74.09 87.7253 74.0902 87.7253 74.0905C87.7253 74.0907 87.7253 74.0909 87.7253 74.0911C87.7253 74.0913 87.7253 74.0915 87.7253 74.0917C87.7253 74.092 87.7253 74.0922 87.7253 74.0924C87.7253 74.0926 87.7253 74.0928 87.7253 74.093C87.7253 74.0932 87.7253 74.0935 87.7253 74.0937C87.7253 74.0939 87.7253 74.0941 87.7253 74.0943C87.7253 74.0945 87.7253 74.0947 87.7253 74.0949C87.7253 74.0951 87.7253 74.0954 87.7253 74.0956C87.7253 74.0958 87.7253 74.096 87.7253 74.0962C87.7253 74.0964 87.7253 74.0966 87.7253 74.0968C87.7253 74.097 87.7253 74.0972 87.7253 74.0974C87.7253 74.0976 87.7253 74.0979 87.7253 74.0981C87.7253 74.0983 87.7253 74.0985 87.7253 74.0987C87.7253 74.0989 87.7253 74.0991 87.7253 74.0993C87.7253 74.0995 87.7253 74.0997 87.7253 74.0999C87.7253 74.1001 87.7253 74.1003 87.7253 74.1005C87.7253 74.1007 87.7253 74.1009 87.7253 74.1011C87.7253 74.1013 87.7253 74.1015 87.7253 74.1017C87.7253 74.1019 87.7253 74.1021 87.7253 74.1023C87.7253 74.1025 87.7253 74.1027 87.7253 74.1029C87.7253 74.1031 87.7253 74.1033 87.7253 74.1035C87.7253 74.1037 87.7253 74.1039 87.7253 74.1041C87.7253 74.1043 87.7253 74.1045 87.7253 74.1047C87.7253 74.1049 87.7253 74.1051 87.7253 74.1053C87.7253 74.1055 87.7253 74.1057 87.7253 74.1059C87.7253 74.1061 87.7253 74.1063 87.7253 74.1064C87.7253 74.1066 87.7253 74.1068 87.7253 74.107C87.7253 74.1072 87.7253 74.1074 87.7253 74.1076C87.7253 74.1078 87.7253 74.108 87.7253 74.1082C87.7253 74.1084 87.7253 74.1086 87.7253 74.1088C87.7253 74.1089 87.7253 74.1091 87.7253 74.1093C87.7253 74.1095 87.7253 74.1097 87.7253 74.1099C87.7253 74.1101 87.7253 74.1103 87.7253 74.1105C87.7253 74.1106 87.7253 74.1108 87.7253 74.111C87.7253 74.1112 87.7253 74.1114 87.7253 74.1116C87.7253 74.1118 87.7253 74.1119 87.7253 74.1121C87.7253 74.1123 87.7253 74.1125 87.7253 74.1127C87.7253 74.1129 87.7253 74.113 87.7253 74.1132C87.7253 74.1134 87.7253 74.1136 87.7253 74.1138C87.7253 74.114 87.7253 74.1141 87.7253 74.1143C87.7253 74.1145 87.7253 74.1147 87.7253 74.1149C87.7253 74.115 87.7253 74.1152 87.7253 74.1154C87.7253 74.1156 87.7253 74.1158 87.7253 74.1159C87.7253 74.1161 87.7253 74.1163 87.7253 74.1165C87.7253 74.1167 87.7253 74.1168 87.7253 74.117C87.7253 74.1172 87.7253 74.1174 87.7253 74.1175C87.7253 74.1177 87.7253 74.1179 87.7253 74.1181C87.7253 74.1182 87.7253 74.1184 87.7253 74.1186C87.7253 74.1188 87.7253 74.1189 87.7253 74.1191C87.7253 74.1193 87.7253 74.1195 87.7253 74.1196C87.7253 74.1198 87.7253 74.12 87.7253 74.1202C87.7253 74.1203 87.7253 74.1205 87.7253 74.1207C87.7253 74.1208 87.7253 74.121 87.7253 74.1212C87.7253 74.1213 87.7253 74.1215 87.7253 74.1217C87.7253 74.1219 87.7253 74.122 87.7253 74.1222C87.7253 74.1224 87.7253 74.1225 87.7253 74.1227C87.7253 74.1229 87.7253 74.123 87.7253 74.1232C87.7253 74.1234 87.7253 74.1235 87.7253 74.1237C87.7253 74.1239 87.7253 74.124 87.7253 74.1242C87.7253 74.1244 87.7253 74.1245 87.7253 74.1247C87.7253 74.1249 87.7253 74.125 87.7253 74.1252C87.7253 74.1253 87.7253 74.1255 87.7253 74.1257C87.7253 74.1258 87.7253 74.126 87.7253 74.1262C87.7253 74.1263 87.7253 74.1265 87.7253 74.1266C87.7253 74.1268 87.7253 74.127 87.7253 74.1271C87.7253 74.1273 87.7253 74.1274 87.7253 74.1276C87.7253 74.1277 87.7253 74.1279 87.7253 74.1281C87.7253 74.1282 87.7253 74.1284 87.7253 74.1285C87.7253 74.1287 87.7253 74.1289 87.7253 74.129C87.7253 74.1292 87.7253 74.1293 87.7253 74.1295C87.7253 74.1296 87.7253 74.1298 87.7253 74.1299C87.7253 74.1301 87.7253 74.1302 87.7253 74.1304C87.7253 74.1306 87.7253 74.1307 87.7253 74.1309C87.7253 74.131 87.7253 74.1312 87.7253 74.1313C87.7253 74.1315 87.7253 74.1316 87.7253 74.1318C87.7253 74.1319 87.7253 74.1321 87.7253 74.1322C87.7253 74.1324 87.7253 74.1325 87.7253 74.1327C87.7253 74.1328 87.7253 74.133 87.7253 74.1331C87.7253 74.1333 87.7253 74.1334 87.7253 74.1336C87.7253 74.1337 87.7253 74.1339 87.7253 74.134C87.7253 74.1341 87.7253 74.1343 87.7253 74.1344C87.7253 74.1346 87.7253 74.1347 87.7253 74.1349C87.7253 74.135 87.7253 74.1352 87.7253 74.1353C87.7253 74.1354 87.7253 74.1356 87.7253 74.1357C87.7253 74.1359 87.7253 74.136 87.7253 74.1362C87.7253 74.1363 87.7253 74.1364 87.7253 74.1366C87.7253 74.1367 87.7253 74.1369 87.7253 74.137C87.7253 74.1372 87.7253 74.1373 87.7253 74.1374C87.7253 74.1376 87.7253 74.1377 87.7253 74.1378C87.7253 74.138 87.7253 74.1381 87.7253 74.1383C87.7253 74.1384 87.7253 74.1385 87.7253 74.1387C87.7253 74.1388 87.7253 74.1389 87.7253 74.1391C87.7253 74.1392 87.7253 74.1394 87.7253 74.1395C87.7253 74.1396 87.7253 74.1398 87.7253 74.1399C87.7253 74.14 87.7253 74.1402 87.7253 74.1403C87.7253 74.1404 87.7253 74.1406 87.7253 74.1407C87.7253 74.1408 87.7253 74.141 87.7253 74.1411C87.7253 74.1412 87.7253 74.1414 87.7253 74.1415C87.7253 74.1416 87.7253 74.1417 87.7253 74.1419C87.7253 74.142 87.7253 74.1421 87.7253 74.1423C87.7253 74.1424 87.7253 74.1425 87.7253 74.1426C87.7253 74.1428 87.7253 74.1429 87.7253 74.143C87.7253 74.1432 87.7253 74.1433 87.7253 74.1434C87.7253 74.1435 87.7253 74.1437 87.7253 74.1438C87.7253 74.1439 87.7253 74.144 87.7253 74.1442C87.7253 74.1443 87.7253 74.1444 87.7253 74.1445C87.7253 74.1447 87.7253 74.1448 87.7253 74.1449C87.7253 74.145 87.7253 74.1452 87.7253 74.1453C87.7253 74.1454 87.7253 74.1455 87.7253 74.1456C87.7253 74.1458 87.7253 74.1459 87.7253 74.146C87.7253 74.1461 87.7253 74.1462 87.7253 74.1464C87.7253 74.1465 87.7253 74.1466 87.7253 74.1467C87.7253 74.1468 87.7253 74.147 87.7253 74.1471C87.7253 74.1472 87.7253 74.1473 87.7253 74.1474C87.7253 74.1475 87.7253 74.1477 87.7253 74.1478C87.7253 74.1479 87.7253 74.148 87.7253 74.1481C87.7253 74.1482 87.7253 74.1483 87.7253 74.1485C87.7253 74.1486 87.7253 74.1487 87.7253 74.1488C87.7253 74.1489 87.7253 74.149 87.7253 74.1491C87.7253 74.1493 87.7253 74.1494 87.7253 74.1495C87.7253 74.1496 87.7253 74.1497 87.7253 74.1498C87.7253 74.1499 87.7253 74.15 87.7253 74.1501C87.7253 74.1503 87.7253 74.1504 87.7253 74.1505C87.7253 74.1506 87.7253 74.1507 87.7253 74.1508C87.7253 74.1509 87.7253 74.151 87.7253 74.1511C87.7253 74.1512 87.7253 74.1513 87.7253 74.1514C87.7253 74.1515 87.7253 74.1516 87.7253 74.1518C87.7253 74.1519 87.7253 74.152 87.7253 74.1521C87.7253 74.1522 87.7253 74.1523 87.7253 74.1524C87.7253 74.1525 87.7253 74.1526 87.7253 74.1527C87.7253 74.1528 87.7253 74.1529 87.7253 74.153C87.7253 74.1531 87.7253 74.1532 87.7253 74.1533C87.7253 74.1534 87.7253 74.1535 87.7253 74.1536C87.7253 74.1537 87.7253 74.1538 87.7253 74.1539C87.7253 74.154 87.7253 74.1541 87.7253 74.1542C87.7253 74.1543 87.7253 74.1544 87.7253 74.1545C87.7253 74.1546 87.7253 74.1547 87.7253 74.1548C87.7253 74.1549 87.7253 74.155 87.7253 74.1551C87.7253 74.1552 87.7253 74.1553 87.7253 74.1554C87.7253 74.1555 87.7253 74.1555 87.7253 74.1556C87.7253 74.1557 87.7253 74.1558 87.7253 74.1559C87.7253 74.156 87.7253 74.1561 87.7253 74.1562C87.7253 74.1563 87.7253 74.1564 87.7253 74.1565C87.7253 74.1566 87.7253 74.1567 87.7253 74.1568C87.7253 74.1568 87.7253 74.1569 87.7253 74.157C87.7253 74.1571 87.7253 74.1572 87.7253 74.1573C87.7253 74.1574 87.7253 74.1575 87.7253 74.1576C87.7253 74.1576 87.7253 74.1577 87.7253 74.1578C87.7253 74.1579 87.7253 74.158 87.7253 74.1581C87.7253 74.1582 87.7253 74.1582 87.7253 74.1583C87.7253 74.1584 87.7253 74.1585 87.7253 74.1586C87.7253 74.1587 87.7253 74.1588 87.7253 74.1588C87.7253 74.1589 87.7253 74.159 87.7253 74.1591C87.7253 74.1592 87.7253 74.1593 87.7253 74.1593C87.7253 74.1594 87.7253 74.1595 87.7253 74.1596C87.7253 74.1597 87.7253 74.1597 87.7253 74.1598C87.7253 74.1599 87.7253 74.16 87.7253 74.1601C87.7253 74.1601 87.7253 74.1602 87.7253 74.1603C87.7253 74.1604 87.7253 74.1605 87.7253 74.1605C87.7253 74.1606 87.7253 74.1607 87.7253 74.1608C87.7253 74.1608 87.7253 74.1609 87.7253 74.161C87.7253 74.1611 87.7253 74.1611 87.7253 74.1612C87.7253 74.1613 87.7253 74.1614 87.7253 74.1614C87.7253 74.1615 87.7253 74.1616 87.7253 74.1617C87.7253 74.1617 87.7253 74.1618 87.7253 74.1619C87.7253 74.1619 87.7253 74.162 87.7253 74.1621C87.7253 74.1622 87.7253 74.1622 87.7253 74.1623C87.7253 74.1624 87.7253 74.1624 87.7253 74.1625C87.7253 74.1626 87.7253 74.1627 87.7253 74.1627C87.7253 74.1628 87.7253 74.1629 87.7253 74.1629C87.7253 74.163 87.7253 74.1631 87.7253 74.1631C87.7253 74.1632 87.7253 74.1633 87.7253 74.1633C87.7253 74.1634 87.7253 74.1635 87.7253 74.1635C87.7253 74.1636 87.7253 74.1637 87.7253 74.1637C87.7253 74.1638 87.7253 74.1638 87.7253 74.1639C87.7253 74.164 87.7253 74.164 87.7253 74.1641C87.7253 74.1642 87.7253 74.1642 87.7253 74.1643C87.7253 74.1643 87.7253 74.1644 87.7253 74.1645C87.7253 74.1645 87.7253 74.1646 87.7253 74.1646C87.7253 74.1647 87.7253 74.1648 87.7253 74.1648C87.7253 74.1649 87.7253 74.1649 87.7253 74.165C87.7253 74.1651 87.7253 74.1651 87.7253 74.1652C87.7253 74.1652 87.7253 74.1653 87.7253 74.1653C87.7253 74.1654 87.7253 74.1655 87.7253 74.1655C87.7253 74.1656 87.7253 74.1656 87.7253 74.1657C87.7253 74.1657 87.7253 74.1658 87.7253 74.1658C87.7253 74.1659 87.7253 74.1659 87.7253 74.166C87.7253 74.1661 87.7253 74.1661 87.7253 74.1662C87.7253 74.1662 87.7253 74.1663 87.7253 74.1663C87.7253 74.1664 87.7253 74.1664 87.7253 74.1665C87.7253 74.1665 87.7253 74.1666 87.7253 74.1666C87.7253 74.1667 87.7253 74.1667 87.7253 74.1668C87.7253 74.1668 87.7253 74.1669 87.7253 74.1669C87.7253 74.167 87.7253 74.167 87.7253 74.1671C87.7253 74.1671 87.7253 74.1671 87.7253 74.1672C87.7253 74.1672 87.7253 74.1673 87.7253 74.1673C87.7253 74.1674 87.7253 74.1674 87.7253 74.1675C87.7253 74.1675 87.7253 74.1675 87.7253 74.1676C87.7253 74.1676 87.7253 74.1677 87.7253 74.1677C87.7253 74.1678 87.7253 74.1678 87.7253 74.1678C87.7253 74.1679 87.7253 74.1679 87.7253 74.168H89.5253C89.5253 74.1679 89.5253 74.1679 89.5253 74.1678C89.5253 74.1678 89.5253 74.1678 89.5253 74.1677C89.5253 74.1677 89.5253 74.1676 89.5253 74.1676C89.5253 74.1675 89.5253 74.1675 89.5253 74.1675C89.5253 74.1674 89.5253 74.1674 89.5253 74.1673C89.5253 74.1673 89.5253 74.1672 89.5253 74.1672C89.5253 74.1671 89.5253 74.1671 89.5253 74.1671C89.5253 74.167 89.5253 74.167 89.5253 74.1669C89.5253 74.1669 89.5253 74.1668 89.5253 74.1668C89.5253 74.1667 89.5253 74.1667 89.5253 74.1666C89.5253 74.1666 89.5253 74.1665 89.5253 74.1665C89.5253 74.1664 89.5253 74.1664 89.5253 74.1663C89.5253 74.1663 89.5253 74.1662 89.5253 74.1662C89.5253 74.1661 89.5253 74.1661 89.5253 74.166C89.5253 74.1659 89.5253 74.1659 89.5253 74.1658C89.5253 74.1658 89.5253 74.1657 89.5253 74.1657C89.5253 74.1656 89.5253 74.1656 89.5253 74.1655C89.5253 74.1655 89.5253 74.1654 89.5253 74.1653C89.5253 74.1653 89.5253 74.1652 89.5253 74.1652C89.5253 74.1651 89.5253 74.1651 89.5253 74.165C89.5253 74.1649 89.5253 74.1649 89.5253 74.1648C89.5253 74.1648 89.5253 74.1647 89.5253 74.1646C89.5253 74.1646 89.5253 74.1645 89.5253 74.1645C89.5253 74.1644 89.5253 74.1643 89.5253 74.1643C89.5253 74.1642 89.5253 74.1642 89.5253 74.1641C89.5253 74.164 89.5253 74.164 89.5253 74.1639C89.5253 74.1638 89.5253 74.1638 89.5253 74.1637C89.5253 74.1637 89.5253 74.1636 89.5253 74.1635C89.5253 74.1635 89.5253 74.1634 89.5253 74.1633C89.5253 74.1633 89.5253 74.1632 89.5253 74.1631C89.5253 74.1631 89.5253 74.163 89.5253 74.1629C89.5253 74.1629 89.5253 74.1628 89.5253 74.1627C89.5253 74.1627 89.5253 74.1626 89.5253 74.1625C89.5253 74.1624 89.5253 74.1624 89.5253 74.1623C89.5253 74.1622 89.5253 74.1622 89.5253 74.1621C89.5253 74.162 89.5253 74.1619 89.5253 74.1619C89.5253 74.1618 89.5253 74.1617 89.5253 74.1617C89.5253 74.1616 89.5253 74.1615 89.5253 74.1614C89.5253 74.1614 89.5253 74.1613 89.5253 74.1612C89.5253 74.1611 89.5253 74.1611 89.5253 74.161C89.5253 74.1609 89.5253 74.1608 89.5253 74.1608C89.5253 74.1607 89.5253 74.1606 89.5253 74.1605C89.5253 74.1605 89.5253 74.1604 89.5253 74.1603C89.5253 74.1602 89.5253 74.1601 89.5253 74.1601C89.5253 74.16 89.5253 74.1599 89.5253 74.1598C89.5253 74.1597 89.5253 74.1597 89.5253 74.1596C89.5253 74.1595 89.5253 74.1594 89.5253 74.1593C89.5253 74.1593 89.5253 74.1592 89.5253 74.1591C89.5253 74.159 89.5253 74.1589 89.5253 74.1588C89.5253 74.1588 89.5253 74.1587 89.5253 74.1586C89.5253 74.1585 89.5253 74.1584 89.5253 74.1583C89.5253 74.1582 89.5253 74.1582 89.5253 74.1581C89.5253 74.158 89.5253 74.1579 89.5253 74.1578C89.5253 74.1577 89.5253 74.1576 89.5253 74.1576C89.5253 74.1575 89.5253 74.1574 89.5253 74.1573C89.5253 74.1572 89.5253 74.1571 89.5253 74.157C89.5253 74.1569 89.5253 74.1568 89.5253 74.1568C89.5253 74.1567 89.5253 74.1566 89.5253 74.1565C89.5253 74.1564 89.5253 74.1563 89.5253 74.1562C89.5253 74.1561 89.5253 74.156 89.5253 74.1559C89.5253 74.1558 89.5253 74.1557 89.5253 74.1556C89.5253 74.1555 89.5253 74.1555 89.5253 74.1554C89.5253 74.1553 89.5253 74.1552 89.5253 74.1551C89.5253 74.155 89.5253 74.1549 89.5253 74.1548C89.5253 74.1547 89.5253 74.1546 89.5253 74.1545C89.5253 74.1544 89.5253 74.1543 89.5253 74.1542C89.5253 74.1541 89.5253 74.154 89.5253 74.1539C89.5253 74.1538 89.5253 74.1537 89.5253 74.1536C89.5253 74.1535 89.5253 74.1534 89.5253 74.1533C89.5253 74.1532 89.5253 74.1531 89.5253 74.153C89.5253 74.1529 89.5253 74.1528 89.5253 74.1527C89.5253 74.1526 89.5253 74.1525 89.5253 74.1524C89.5253 74.1523 89.5253 74.1522 89.5253 74.1521C89.5253 74.152 89.5253 74.1519 89.5253 74.1518C89.5253 74.1516 89.5253 74.1515 89.5253 74.1514C89.5253 74.1513 89.5253 74.1512 89.5253 74.1511C89.5253 74.151 89.5253 74.1509 89.5253 74.1508C89.5253 74.1507 89.5253 74.1506 89.5253 74.1505C89.5253 74.1504 89.5253 74.1503 89.5253 74.1501C89.5253 74.15 89.5253 74.1499 89.5253 74.1498C89.5253 74.1497 89.5253 74.1496 89.5253 74.1495C89.5253 74.1494 89.5253 74.1493 89.5253 74.1491C89.5253 74.149 89.5253 74.1489 89.5253 74.1488C89.5253 74.1487 89.5253 74.1486 89.5253 74.1485C89.5253 74.1483 89.5253 74.1482 89.5253 74.1481C89.5253 74.148 89.5253 74.1479 89.5253 74.1478C89.5253 74.1477 89.5253 74.1475 89.5253 74.1474C89.5253 74.1473 89.5253 74.1472 89.5253 74.1471C89.5253 74.147 89.5253 74.1468 89.5253 74.1467C89.5253 74.1466 89.5253 74.1465 89.5253 74.1464C89.5253 74.1462 89.5253 74.1461 89.5253 74.146C89.5253 74.1459 89.5253 74.1458 89.5253 74.1456C89.5253 74.1455 89.5253 74.1454 89.5253 74.1453C89.5253 74.1452 89.5253 74.145 89.5253 74.1449C89.5253 74.1448 89.5253 74.1447 89.5253 74.1445C89.5253 74.1444 89.5253 74.1443 89.5253 74.1442C89.5253 74.144 89.5253 74.1439 89.5253 74.1438C89.5253 74.1437 89.5253 74.1435 89.5253 74.1434C89.5253 74.1433 89.5253 74.1432 89.5253 74.143C89.5253 74.1429 89.5253 74.1428 89.5253 74.1426C89.5253 74.1425 89.5253 74.1424 89.5253 74.1423C89.5253 74.1421 89.5253 74.142 89.5253 74.1419C89.5253 74.1417 89.5253 74.1416 89.5253 74.1415C89.5253 74.1414 89.5253 74.1412 89.5253 74.1411C89.5253 74.141 89.5253 74.1408 89.5253 74.1407C89.5253 74.1406 89.5253 74.1404 89.5253 74.1403C89.5253 74.1402 89.5253 74.14 89.5253 74.1399C89.5253 74.1398 89.5253 74.1396 89.5253 74.1395C89.5253 74.1394 89.5253 74.1392 89.5253 74.1391C89.5253 74.1389 89.5253 74.1388 89.5253 74.1387C89.5253 74.1385 89.5253 74.1384 89.5253 74.1383C89.5253 74.1381 89.5253 74.138 89.5253 74.1378C89.5253 74.1377 89.5253 74.1376 89.5253 74.1374C89.5253 74.1373 89.5253 74.1372 89.5253 74.137C89.5253 74.1369 89.5253 74.1367 89.5253 74.1366C89.5253 74.1364 89.5253 74.1363 89.5253 74.1362C89.5253 74.136 89.5253 74.1359 89.5253 74.1357C89.5253 74.1356 89.5253 74.1354 89.5253 74.1353C89.5253 74.1352 89.5253 74.135 89.5253 74.1349C89.5253 74.1347 89.5253 74.1346 89.5253 74.1344C89.5253 74.1343 89.5253 74.1341 89.5253 74.134C89.5253 74.1339 89.5253 74.1337 89.5253 74.1336C89.5253 74.1334 89.5253 74.1333 89.5253 74.1331C89.5253 74.133 89.5253 74.1328 89.5253 74.1327C89.5253 74.1325 89.5253 74.1324 89.5253 74.1322C89.5253 74.1321 89.5253 74.1319 89.5253 74.1318C89.5253 74.1316 89.5253 74.1315 89.5253 74.1313C89.5253 74.1312 89.5253 74.131 89.5253 74.1309C89.5253 74.1307 89.5253 74.1306 89.5253 74.1304C89.5253 74.1302 89.5253 74.1301 89.5253 74.1299C89.5253 74.1298 89.5253 74.1296 89.5253 74.1295C89.5253 74.1293 89.5253 74.1292 89.5253 74.129C89.5253 74.1289 89.5253 74.1287 89.5253 74.1285C89.5253 74.1284 89.5253 74.1282 89.5253 74.1281C89.5253 74.1279 89.5253 74.1277 89.5253 74.1276C89.5253 74.1274 89.5253 74.1273 89.5253 74.1271C89.5253 74.127 89.5253 74.1268 89.5253 74.1266C89.5253 74.1265 89.5253 74.1263 89.5253 74.1262C89.5253 74.126 89.5253 74.1258 89.5253 74.1257C89.5253 74.1255 89.5253 74.1253 89.5253 74.1252C89.5253 74.125 89.5253 74.1249 89.5253 74.1247C89.5253 74.1245 89.5253 74.1244 89.5253 74.1242C89.5253 74.124 89.5253 74.1239 89.5253 74.1237C89.5253 74.1235 89.5253 74.1234 89.5253 74.1232C89.5253 74.123 89.5253 74.1229 89.5253 74.1227C89.5253 74.1225 89.5253 74.1224 89.5253 74.1222C89.5253 74.122 89.5253 74.1219 89.5253 74.1217C89.5253 74.1215 89.5253 74.1213 89.5253 74.1212C89.5253 74.121 89.5253 74.1208 89.5253 74.1207C89.5253 74.1205 89.5253 74.1203 89.5253 74.1202C89.5253 74.12 89.5253 74.1198 89.5253 74.1196C89.5253 74.1195 89.5253 74.1193 89.5253 74.1191C89.5253 74.1189 89.5253 74.1188 89.5253 74.1186C89.5253 74.1184 89.5253 74.1182 89.5253 74.1181C89.5253 74.1179 89.5253 74.1177 89.5253 74.1175C89.5253 74.1174 89.5253 74.1172 89.5253 74.117C89.5253 74.1168 89.5253 74.1167 89.5253 74.1165C89.5253 74.1163 89.5253 74.1161 89.5253 74.1159C89.5253 74.1158 89.5253 74.1156 89.5253 74.1154C89.5253 74.1152 89.5253 74.115 89.5253 74.1149C89.5253 74.1147 89.5253 74.1145 89.5253 74.1143C89.5253 74.1141 89.5253 74.114 89.5253 74.1138C89.5253 74.1136 89.5253 74.1134 89.5253 74.1132C89.5253 74.113 89.5253 74.1129 89.5253 74.1127C89.5253 74.1125 89.5253 74.1123 89.5253 74.1121C89.5253 74.1119 89.5253 74.1118 89.5253 74.1116C89.5253 74.1114 89.5253 74.1112 89.5253 74.111C89.5253 74.1108 89.5253 74.1106 89.5253 74.1105C89.5253 74.1103 89.5253 74.1101 89.5253 74.1099C89.5253 74.1097 89.5253 74.1095 89.5253 74.1093C89.5253 74.1091 89.5253 74.1089 89.5253 74.1088C89.5253 74.1086 89.5253 74.1084 89.5253 74.1082C89.5253 74.108 89.5253 74.1078 89.5253 74.1076C89.5253 74.1074 89.5253 74.1072 89.5253 74.107C89.5253 74.1068 89.5253 74.1066 89.5253 74.1064C89.5253 74.1063 89.5253 74.1061 89.5253 74.1059C89.5253 74.1057 89.5253 74.1055 89.5253 74.1053C89.5253 74.1051 89.5253 74.1049 89.5253 74.1047C89.5253 74.1045 89.5253 74.1043 89.5253 74.1041C89.5253 74.1039 89.5253 74.1037 89.5253 74.1035C89.5253 74.1033 89.5253 74.1031 89.5253 74.1029C89.5253 74.1027 89.5253 74.1025 89.5253 74.1023C89.5253 74.1021 89.5253 74.1019 89.5253 74.1017C89.5253 74.1015 89.5253 74.1013 89.5253 74.1011C89.5253 74.1009 89.5253 74.1007 89.5253 74.1005C89.5253 74.1003 89.5253 74.1001 89.5253 74.0999C89.5253 74.0997 89.5253 74.0995 89.5253 74.0993C89.5253 74.0991 89.5253 74.0989 89.5253 74.0987C89.5253 74.0985 89.5253 74.0983 89.5253 74.0981C89.5253 74.0979 89.5253 74.0976 89.5253 74.0974C89.5253 74.0972 89.5253 74.097 89.5253 74.0968C89.5253 74.0966 89.5253 74.0964 89.5253 74.0962C89.5253 74.096 89.5253 74.0958 89.5253 74.0956C89.5253 74.0954 89.5253 74.0951 89.5253 74.0949C89.5253 74.0947 89.5253 74.0945 89.5253 74.0943C89.5253 74.0941 89.5253 74.0939 89.5253 74.0937C89.5253 74.0935 89.5253 74.0932 89.5253 74.093C89.5253 74.0928 89.5253 74.0926 89.5253 74.0924C89.5253 74.0922 89.5253 74.092 89.5253 74.0917C89.5253 74.0915 89.5253 74.0913 89.5253 74.0911C89.5253 74.0909 89.5253 74.0907 89.5253 74.0905C89.5253 74.0902 89.5253 74.09 89.5253 74.0898C89.5253 74.0896 89.5253 74.0894 89.5253 74.0892C89.5253 74.0889 89.5253 74.0887 89.5253 74.0885C89.5253 74.0883 89.5253 74.0881 89.5253 74.0878C89.5253 74.0876 89.5253 74.0874 89.5253 74.0872C89.5253 74.087 89.5253 74.0867 89.5253 74.0865C89.5253 74.0863 89.5253 74.0861 89.5253 74.0858C89.5253 74.0856 89.5253 74.0854 89.5253 74.0852C89.5253 74.085 89.5253 74.0847 89.5253 74.0845C89.5253 74.0843 89.5253 74.0841 89.5253 74.0838C89.5253 74.0836 89.5253 74.0834 89.5253 74.0832C89.5253 74.0829 89.5253 74.0827 89.5253 74.0825C89.5253 74.0822 89.5253 74.082 89.5253 74.0818C89.5253 74.0816 89.5253 74.0813 89.5253 74.0811C89.5253 74.0809 89.5253 74.0807 89.5253 74.0804C89.5253 74.0802 89.5253 74.08 89.5253 74.0797C89.5253 74.0795 89.5253 74.0793 89.5253 74.079C89.5253 74.0788 89.5253 74.0786 89.5253 74.0783C89.5253 74.0781 89.5253 74.0779 89.5253 74.0776C89.5253 74.0774 89.5253 74.0772 89.5253 74.0769C89.5253 74.0767 89.5253 74.0765 89.5253 74.0762C89.5253 74.076 89.5253 74.0758 89.5253 74.0755C89.5253 74.0753 89.5253 74.0751 89.5253 74.0748C89.5253 74.0746 89.5253 74.0744 89.5253 74.0741C89.5253 74.0739 89.5253 74.0736 89.5253 74.0734C89.5253 74.0732 89.5253 74.0729 89.5253 74.0727C89.5253 74.0724 89.5253 74.0722 89.5253 74.072C89.5253 74.0717 89.5253 74.0715 89.5253 74.0712C89.5253 74.071 89.5253 74.0708 89.5253 74.0705C89.5253 74.0703 89.5253 74.07 89.5253 74.0698C89.5253 74.0696 89.5253 74.0693 89.5253 74.0691C89.5253 74.0688 89.5253 74.0686 89.5253 74.0683C89.5253 74.0681 89.5253 74.0678 89.5253 74.0676C89.5253 74.0674 89.5253 74.0671 89.5253 74.0669C89.5253 74.0666 89.5253 74.0664 89.5253 74.0661C89.5253 74.0659 89.5253 74.0656 89.5253 74.0654C89.5253 74.0651 89.5253 74.0649 89.5253 74.0646C89.5253 74.0644 89.5253 74.0641 89.5253 74.0639C89.5253 74.0636 89.5253 74.0634 89.5253 74.0631C89.5253 74.0629 89.5253 74.0626 89.5253 74.0624C89.5253 74.0621 89.5253 74.0619 89.5253 74.0616C89.5253 74.0614 89.5253 74.0611 89.5253 74.0609C89.5253 74.0606 89.5253 74.0604 89.5253 74.0601C89.5253 74.0599 89.5253 74.0596 89.5253 74.0594C89.5253 74.0591 89.5253 74.0588 89.5253 74.0586C89.5253 74.0583 89.5253 74.0581 89.5253 74.0578C89.5253 74.0576 89.5253 74.0573 89.5253 74.057C89.5253 74.0568 89.5253 74.0565 89.5253 74.0563C89.5253 74.056 89.5253 74.0558 89.5253 74.0555C89.5253 74.0552 89.5253 74.055 89.5253 74.0547C89.5253 74.0545 89.5253 74.0542 89.5253 74.0539C89.5253 74.0537 89.5253 74.0534 89.5253 74.0531C89.5253 74.0529 89.5253 74.0526 89.5253 74.0524C89.5253 74.0521 89.5253 74.0518 89.5253 74.0516C89.5253 74.0513 89.5253 74.051 89.5253 74.0508C89.5253 74.0505 89.5253 74.0503 89.5253 74.05C89.5253 74.0497 89.5253 74.0495 89.5253 74.0492C89.5253 74.0489 89.5253 74.0487 89.5253 74.0484C89.5253 74.0481 89.5253 74.0479 89.5253 74.0476C89.5253 74.0473 89.5253 74.0471 89.5253 74.0468C89.5253 74.0465 89.5253 74.0462 89.5253 74.046C89.5253 74.0457 89.5253 74.0454 89.5253 74.0452C89.5253 74.0449 89.5253 74.0446 89.5253 74.0443C89.5253 74.0441 89.5253 74.0438 89.5253 74.0435C89.5253 74.0433 89.5253 74.043 89.5253 74.0427C89.5253 74.0424 89.5253 74.0422 89.5253 74.0419C89.5253 74.0416 89.5253 74.0413 89.5253 74.0411C89.5253 74.0408 89.5253 74.0405 89.5253 74.0402C89.5253 74.04 89.5253 74.0397 89.5253 74.0394C89.5253 74.0391 89.5253 74.0389 89.5253 74.0386C89.5253 74.0383 89.5253 74.038 89.5253 74.0378C89.5253 74.0375 89.5253 74.0372 89.5253 74.0369C89.5253 74.0366 89.5253 74.0364 89.5253 74.0361C89.5253 74.0358 89.5253 74.0355 89.5253 74.0352C89.5253 74.035 89.5253 74.0347 89.5253 74.0344C89.5253 74.0341 89.5253 74.0338 89.5253 74.0335C89.5253 74.0333 89.5253 74.033 89.5253 74.0327C89.5253 74.0324 89.5253 74.0321 89.5253 74.0318C89.5253 74.0316 89.5253 74.0313 89.5253 74.031C89.5253 74.0307 89.5253 74.0304 89.5253 74.0301C89.5253 74.0298 89.5253 74.0296 89.5253 74.0293C89.5253 74.029 89.5253 74.0287 89.5253 74.0284C89.5253 74.0281 89.5253 74.0278 89.5253 74.0275C89.5253 74.0272 89.5253 74.027 89.5253 74.0267C89.5253 74.0264 89.5253 74.0261 89.5253 74.0258C89.5253 74.0255 89.5253 74.0252 89.5253 74.0249C89.5253 74.0246 89.5253 74.0243 89.5253 74.024C89.5253 74.0238 89.5253 74.0235 89.5253 74.0232C89.5253 74.0229 89.5253 74.0226 89.5253 74.0223C89.5253 74.022 89.5253 74.0217 89.5253 74.0214C89.5253 74.0211 89.5253 74.0208 89.5253 74.0205C89.5253 74.0202 89.5253 74.0199 89.5253 74.0196C89.5253 74.0193 89.5253 74.019 89.5253 74.0187C89.5253 74.0184 89.5253 74.0181 89.5253 74.0178C89.5253 74.0175 89.5253 74.0172 89.5253 74.0169C89.5253 74.0166 89.5253 74.0163 89.5253 74.016C89.5253 74.0157 89.5253 74.0154 89.5253 74.0151C89.5253 74.0148 89.5253 74.0145 89.5253 74.0142C89.5253 74.0139 89.5253 74.0136 89.5253 74.0133C89.5253 74.013 89.5253 74.0127 89.5253 74.0124C89.5253 74.0121 89.5253 74.0118 89.5253 74.0115C89.5253 74.0112 89.5253 74.0109 89.5253 74.0106C89.5253 74.0103 89.5253 74.01 89.5253 74.0097C89.5253 74.0094 89.5253 74.0091 89.5253 74.0088C89.5253 74.0084 89.5253 74.0081 89.5253 74.0078C89.5253 74.0075 89.5253 74.0072 89.5253 74.0069C89.5253 74.0066 89.5253 74.0063 89.5253 74.006C89.5253 74.0057 89.5253 74.0054 89.5253 74.005C89.5253 74.0047 89.5253 74.0044 89.5253 74.0041C89.5253 74.0038 89.5253 74.0035 89.5253 74.0032C89.5253 74.0029 89.5253 74.0025 89.5253 74.0022C89.5253 74.0019 89.5253 74.0016 89.5253 74.0013C89.5253 74.001 89.5253 74.0007 89.5253 74.0003C89.5253 74 89.5253 73.9997 89.5253 73.9994C89.5253 73.9991 89.5253 73.9988 89.5253 73.9985C89.5253 73.9981 89.5253 73.9978 89.5253 73.9975C89.5253 73.9972 89.5253 73.9969 89.5253 73.9965C89.5253 73.9962 89.5253 73.9959 89.5253 73.9956C89.5253 73.9953 89.5253 73.9949 89.5253 73.9946C89.5253 73.9943 89.5253 73.994 89.5253 73.9937C89.5253 73.9933 89.5253 73.993 89.5253 73.9927C89.5253 73.9924 89.5253 73.9921 89.5253 73.9917C89.5253 73.9914 89.5253 73.9911 89.5253 73.9908C89.5253 73.9904 89.5253 73.9901 89.5253 73.9898C89.5253 73.9895 89.5253 73.9891 89.5253 73.9888C89.5253 73.9885 89.5253 73.9882 89.5253 73.9878C89.5253 73.9875 89.5253 73.9872 89.5253 73.9869C89.5253 73.9865 89.5253 73.9862 89.5253 73.9859C89.5253 73.9855 89.5253 73.9852 89.5253 73.9849C89.5253 73.9846 89.5253 73.9842 89.5253 73.9839C89.5253 73.9836 89.5253 73.9832 89.5253 73.9829C89.5253 73.9826 89.5253 73.9822 89.5253 73.9819C89.5253 73.9816 89.5253 73.9812 89.5253 73.9809C89.5253 73.9806 89.5253 73.9802 89.5253 73.9799C89.5253 73.9796 89.5253 73.9792 89.5253 73.9789C89.5253 73.9786 89.5253 73.9782 89.5253 73.9779C89.5253 73.9776 89.5253 73.9772 89.5253 73.9769C89.5253 73.9766 89.5253 73.9762 89.5253 73.9759C89.5253 73.9756 89.5253 73.9752 89.5253 73.9749C89.5253 73.9745 89.5253 73.9742 89.5253 73.9739C89.5253 73.9735 89.5253 73.9732 89.5253 73.9728C89.5253 73.9725 89.5253 73.9722 89.5253 73.9718C89.5253 73.9715 89.5253 73.9711 89.5253 73.9708C89.5253 73.9705 89.5253 73.9701 89.5253 73.9698C89.5253 73.9694 89.5253 73.9691 89.5253 73.9687C89.5253 73.9684 89.5253 73.9681 89.5253 73.9677C89.5253 73.9674 89.5253 73.967 89.5253 73.9667C89.5253 73.9663 89.5253 73.966 89.5253 73.9656C89.5253 73.9653 89.5253 73.965 89.5253 73.9646C89.5253 73.9643 89.5253 73.9639 89.5253 73.9636C89.5253 73.9632 89.5253 73.9629 89.5253 73.9625C89.5253 73.9622 89.5253 73.9618 89.5253 73.9615C89.5253 73.9611 89.5253 73.9608 89.5253 73.9604C89.5253 73.9601 89.5253 73.9597 89.5253 73.9594C89.5253 73.959 89.5253 73.9587 89.5253 73.9583C89.5253 73.958 89.5253 73.9576 89.5253 73.9573C89.5253 73.9569 89.5253 73.9566 89.5253 73.9562C89.5253 73.9559 89.5253 73.9555 89.5253 73.9551C89.5253 73.9548 89.5253 73.9544 89.5253 73.9541C89.5253 73.9537 89.5253 73.9534 89.5253 73.953C89.5253 73.9527 89.5253 73.9523 89.5253 73.9519C89.5253 73.9516 89.5253 73.9512 89.5253 73.9509C89.5253 73.9505 89.5253 73.9502 89.5253 73.9498C89.5253 73.9494 89.5253 73.9491 89.5253 73.9487C89.5253 73.9484 89.5253 73.948 89.5253 73.9476C89.5253 73.9473 89.5253 73.9469 89.5253 73.9466C89.5253 73.9462 89.5253 73.9458 89.5253 73.9455C89.5253 73.9451 89.5253 73.9447 89.5253 73.9444C89.5253 73.944 89.5253 73.9436 89.5253 73.9433C89.5253 73.9429 89.5253 73.9426 89.5253 73.9422C89.5253 73.9418 89.5253 73.9415 89.5253 73.9411C89.5253 73.9407 89.5253 73.9404 89.5253 73.94C89.5253 73.9396 89.5253 73.9393 89.5253 73.9389C89.5253 73.9385 89.5253 73.9382 89.5253 73.9378C89.5253 73.9374 89.5253 73.9371 89.5253 73.9367C89.5253 73.9363 89.5253 73.9359 89.5253 73.9356C89.5253 73.9352 89.5253 73.9348 89.5253 73.9345C89.5253 73.9341 89.5253 73.9337 89.5253 73.9333C89.5253 73.933 89.5253 73.9326 89.5253 73.9322C89.5253 73.9319 89.5253 73.9315 89.5253 73.9311C89.5253 73.9307 89.5253 73.9304 89.5253 73.93C89.5253 73.9296 89.5253 73.9292 89.5253 73.9289C89.5253 73.9285 89.5253 73.9281 89.5253 73.9277C89.5253 73.9274 89.5253 73.927 89.5253 73.9266C89.5253 73.9262 89.5253 73.9258 89.5253 73.9255C89.5253 73.9251 89.5253 73.9247 89.5253 73.9243C89.5253 73.924 89.5253 73.9236 89.5253 73.9232C89.5253 73.9228 89.5253 73.9224 89.5253 73.9221C89.5253 73.9217 89.5253 73.9213 89.5253 73.9209C89.5253 73.9205 89.5253 73.9201 89.5253 73.9198C89.5253 73.9194 89.5253 73.919 89.5253 73.9186C89.5253 73.9182 89.5253 73.9179 89.5253 73.9175C89.5253 73.9171 89.5253 73.9167 89.5253 73.9163C89.5253 73.9159 89.5253 73.9155 89.5253 73.9152C89.5253 73.9148 89.5253 73.9144 89.5253 73.914C89.5253 73.9136 89.5253 73.9132 89.5253 73.9128C89.5253 73.9124 89.5253 73.9121 89.5253 73.9117C89.5253 73.9113 89.5253 73.9109 89.5253 73.9105C89.5253 73.9101 89.5253 73.9097 89.5253 73.9093C89.5253 73.9089 89.5253 73.9086 89.5253 73.9082C89.5253 73.9078 89.5253 73.9074 89.5253 73.907C89.5253 73.9066 89.5253 73.9062 89.5253 73.9058C89.5253 73.9054 89.5253 73.905 89.5253 73.9046C89.5253 73.9042 89.5253 73.9038 89.5253 73.9034C89.5253 73.903 89.5253 73.9027 89.5253 73.9023C89.5253 73.9019 89.5253 73.9015 89.5253 73.9011C89.5253 73.9007 89.5253 73.9003 89.5253 73.8999C89.5253 73.8995 89.5253 73.8991 89.5253 73.8987C89.5253 73.8983 89.5253 73.8979 89.5253 73.8975C89.5253 73.8971 89.5253 73.8967 89.5253 73.8963C89.5253 73.8959 89.5253 73.8955 89.5253 73.8951C89.5253 73.8947 89.5253 73.8943 89.5253 73.8939C89.5253 73.8935 89.5253 73.8931 89.5253 73.8927C89.5253 73.8923 89.5253 73.8919 89.5253 73.8915C89.5253 73.8911 89.5253 73.8907 89.5253 73.8903C89.5253 73.8899 89.5253 73.8894 89.5253 73.889C89.5253 73.8886 89.5253 73.8882 89.5253 73.8878C89.5253 73.8874 89.5253 73.887 89.5253 73.8866C89.5253 73.8862 89.5253 73.8858 89.5253 73.8854C89.5253 73.885 89.5253 73.8846 89.5253 73.8842C89.5253 73.8838 89.5253 73.8833 89.5253 73.8829C89.5253 73.8825 89.5253 73.8821 89.5253 73.8817C89.5253 73.8813 89.5253 73.8809 89.5253 73.8805C89.5253 73.8801 89.5253 73.8796 89.5253 73.8792C89.5253 73.8788 89.5253 73.8784 89.5253 73.878C89.5253 73.8776 89.5253 73.8772 89.5253 73.8768C89.5253 73.8763 89.5253 73.8759 89.5253 73.8755C89.5253 73.8751 89.5253 73.8747 89.5253 73.8743C89.5253 73.8739 89.5253 73.8734 89.5253 73.873C89.5253 73.8726 89.5253 73.8722 89.5253 73.8718C89.5253 73.8714 89.5253 73.8709 89.5253 73.8705C89.5253 73.8701 89.5253 73.8697 89.5253 73.8693C89.5253 73.8688 89.5253 73.8684 89.5253 73.868C89.5253 73.8676 89.5253 73.8672 89.5253 73.8667C89.5253 73.8663 89.5253 73.8659 89.5253 73.8655C89.5253 73.8651 89.5253 73.8646 89.5253 73.8642C89.5253 73.8638 89.5253 73.8634 89.5253 73.8629C89.5253 73.8625 89.5253 73.8621 89.5253 73.8617C89.5253 73.8612 89.5253 73.8608 89.5253 73.8604C89.5253 73.86 89.5253 73.8595 89.5253 73.8591C89.5253 73.8587 89.5253 73.8583 89.5253 73.8578C89.5253 73.8574 89.5253 73.857 89.5253 73.8565C89.5253 73.8561 89.5253 73.8557 89.5253 73.8553C89.5253 73.8548 89.5253 73.8544 89.5253 73.854C89.5253 73.8535 89.5253 73.8531 89.5253 73.8527C89.5253 73.8523 89.5253 73.8518 89.5253 73.8514C89.5253 73.851 89.5253 73.8505 89.5253 73.8501C89.5253 73.8497 89.5253 73.8492 89.5253 73.8488C89.5253 73.8484 89.5253 73.8479 89.5253 73.8475C89.5253 73.8471 89.5253 73.8466 89.5253 73.8462C89.5253 73.8458 89.5253 73.8453 89.5253 73.8449C89.5253 73.8445 89.5253 73.844 89.5253 73.8436C89.5253 73.8431 89.5253 73.8427 89.5253 73.8423C89.5253 73.8418 89.5253 73.8414 89.5253 73.841C89.5253 73.8405 89.5253 73.8401 89.5253 73.8396C89.5253 73.8392 89.5253 73.8388 89.5253 73.8383C89.5253 73.8379 89.5253 73.8374 89.5253 73.837C89.5253 73.8366 89.5253 73.8361 89.5253 73.8357C89.5253 73.8352 89.5253 73.8348 89.5253 73.8343C89.5253 73.8339 89.5253 73.8335 89.5253 73.833C89.5253 73.8326 89.5253 73.8321 89.5253 73.8317C89.5253 73.8312 89.5253 73.8308 89.5253 73.8303C89.5253 73.8299 89.5253 73.8295 89.5253 73.829C89.5253 73.8286 89.5253 73.8281 89.5253 73.8277C89.5253 73.8272 89.5253 73.8268 89.5253 73.8263C89.5253 73.8259 89.5253 73.8254 89.5253 73.825C89.5253 73.8245 89.5253 73.8241 89.5253 73.8236C89.5253 73.8232 89.5253 73.8227 89.5253 73.8223C89.5253 73.8218 89.5253 73.8214 89.5253 73.8209C89.5253 73.8205 89.5253 73.82 89.5253 73.8196C89.5253 73.8191 89.5253 73.8187 89.5253 73.8182C89.5253 73.8178 89.5253 73.8173 89.5253 73.8169C89.5253 73.8164 89.5253 73.8159 89.5253 73.8155C89.5253 73.815 89.5253 73.8146 89.5253 73.8141C89.5253 73.8137 89.5253 73.8132 89.5253 73.8128C89.5253 73.8123 89.5253 73.8118 89.5253 73.8114C89.5253 73.8109 89.5253 73.8105 89.5253 73.81C89.5253 73.8095 89.5253 73.8091 89.5253 73.8086C89.5253 73.8082 89.5253 73.8077 89.5253 73.8073C89.5253 73.8068 89.5253 73.8063 89.5253 73.8059C89.5253 73.8054 89.5253 73.8049 89.5253 73.8045C89.5253 73.804 89.5253 73.8036 89.5253 73.8031C89.5253 73.8026 89.5253 73.8022 89.5253 73.8017C89.5253 73.8012 89.5253 73.8008 89.5253 73.8003C89.5253 73.7998 89.5253 73.7994 89.5253 73.7989C89.5253 73.7985 89.5253 73.798 89.5253 73.7975C89.5253 73.7971 89.5253 73.7966 89.5253 73.7961C89.5253 73.7957 89.5253 73.7952 89.5253 73.7947C89.5253 73.7942 89.5253 73.7938 89.5253 73.7933C89.5253 73.7928 89.5253 73.7924 89.5253 73.7919C89.5253 73.7914 89.5253 73.791 89.5253 73.7905C89.5253 73.79 89.5253 73.7895 89.5253 73.7891C89.5253 73.7886 89.5253 73.7881 89.5253 73.7877C89.5253 73.7872 89.5253 73.7867 89.5253 73.7862C89.5253 73.7858 89.5253 73.7853 89.5253 73.7848C89.5253 73.7843 89.5253 73.7839 89.5253 73.7834C89.5253 73.7829 89.5253 73.7824 89.5253 73.782C89.5253 73.7815 89.5253 73.781 89.5253 73.7805C89.5253 73.7801 89.5253 73.7796 89.5253 73.7791C89.5253 73.7786 89.5253 73.7782 89.5253 73.7777C89.5253 73.7772 89.5253 73.7767 89.5253 73.7762C89.5253 73.7758 89.5253 73.7753 89.5253 73.7748C89.5253 73.7743 89.5253 73.7738 89.5253 73.7734C89.5253 73.7729 89.5253 73.7724 89.5253 73.7719C89.5253 73.7714 89.5253 73.7709 89.5253 73.7705C89.5253 73.77 89.5253 73.7695 89.5253 73.769C89.5253 73.7685 89.5253 73.768 89.5253 73.7676C89.5253 73.7671 89.5253 73.7666 89.5253 73.7661C89.5253 73.7656 89.5253 73.7651 89.5253 73.7646C89.5253 73.7642 89.5253 73.7637 89.5253 73.7632C89.5253 73.7627 89.5253 73.7622 89.5253 73.7617H87.7253ZM89.5253 74.168V74.1367H87.7253V74.168H89.5253ZM88.4445 73.2551L87.2257 73.5051L87.5874 75.2684L88.8062 75.0184L88.4445 73.2551ZM88.2116 73.9842C88.2313 74.0238 88.2444 74.0576 88.2526 74.0811C88.261 74.1053 88.2667 74.1255 88.2705 74.1399C88.2776 74.1675 88.2809 74.1871 88.2819 74.1936C88.2831 74.2013 88.2833 74.204 88.2829 74.2001C88.2825 74.1967 88.2819 74.1896 88.2812 74.1784C88.2796 74.1556 88.2781 74.1226 88.277 74.0777C88.2759 74.0332 88.2753 73.9802 88.2753 73.918H86.4753C86.4753 74.0612 86.478 74.1909 86.4851 74.2981C86.4887 74.351 86.4942 74.4125 86.5039 74.4744C86.5096 74.5102 86.5301 74.6461 86.6016 74.7892L88.2116 73.9842ZM88.2753 73.918C88.2753 73.7348 88.3088 73.3515 88.3924 72.7244L86.6082 72.4865C86.5252 73.1094 86.4753 73.6012 86.4753 73.918H88.2753ZM88.3873 72.7584C88.4874 72.1773 88.6605 71.3411 88.9094 70.2417L87.1538 69.8442C86.9027 70.9532 86.7216 71.8253 86.6134 72.4526L88.3873 72.7584ZM88.9085 70.2453C89.1541 69.1812 89.5146 67.8003 89.9919 66.0985L88.2588 65.6124C87.7778 67.3273 87.4091 68.7381 87.1546 69.8406L88.9085 70.2453ZM89.9911 66.1013C90.4668 64.4261 91.0887 62.3839 91.8578 59.9727L90.1429 59.4257C89.3703 61.8479 88.7422 63.9098 88.2596 65.6096L89.9911 66.1013ZM91.8547 59.9822C92.9049 56.8109 94.4448 52.9229 96.4799 48.3127L94.8332 47.5858C92.785 52.2256 91.2208 56.1708 90.146 59.4163L91.8547 59.9822ZM96.479 48.3147C97.5615 45.8792 98.6544 43.4436 99.7576 41.0081L98.118 40.2654C97.013 42.7048 95.9184 45.1442 94.8342 47.5837L96.479 48.3147ZM98.8544 39.7406C95.5663 40.0469 91.8201 40.0179 87.6107 39.6465L87.4525 41.4395C91.743 41.8181 95.601 41.8515 99.0213 41.5328L98.8544 39.7406ZM87.6187 39.6472C86.0903 39.4986 84.5716 39.4242 83.0628 39.4242V41.2242C84.5124 41.2242 85.9729 41.2957 87.4445 41.4387L87.6187 39.6472Z" fill="#111035"/>
</svg>
