<svg width="1440" height="628" viewBox="0 0 1440 628" fill="none" xmlns="http://www.w3.org/2000/svg">
<path d="M1440 149V0H0V627.168L363 627.168L483 627.168L1440 149Z" fill="#111035"/>
<circle cx="1039.09" cy="179.09" r="9.08957" fill="#FF6F00"/>
<circle cx="1073.21" cy="179.09" r="9.08957" fill="#FF6F00"/>
<circle cx="1107.32" cy="179.09" r="9.08957" fill="#FF6F00"/>
<circle cx="1141.44" cy="179.09" r="9.08957" fill="#FF6F00"/>
<circle cx="1175.56" cy="179.09" r="9.08957" fill="#FF6F00"/>
<circle cx="1209.68" cy="179.09" r="9.08957" fill="#FF6F00"/>
<circle cx="1243.79" cy="179.09" r="9.08957" fill="#FF6F00"/>
<circle cx="1277.91" cy="179.09" r="9.08957" fill="#FF6F00"/>
<circle cx="1039.09" cy="213.207" r="9.08957" fill="#FF6F00"/>
<circle cx="1073.21" cy="213.207" r="9.08957" fill="#FF6F00"/>
<circle cx="1107.32" cy="213.207" r="9.08957" fill="#FF6F00"/>
<circle cx="1141.44" cy="213.207" r="9.08957" fill="#FF6F00"/>
<circle cx="1175.56" cy="213.207" r="9.08957" fill="#FF6F00"/>
<circle cx="1209.68" cy="213.207" r="9.08957" fill="#FF6F00"/>
<circle cx="1243.79" cy="213.207" r="9.08957" fill="#FF6F00"/>
<circle cx="1277.91" cy="213.207" r="9.08957" fill="#FF6F00"/>
<circle cx="1039.09" cy="247.324" r="9.08957" fill="#FF6F00"/>
<circle cx="1073.21" cy="247.324" r="9.08957" fill="#FF6F00"/>
<circle cx="1107.32" cy="247.324" r="9.08957" fill="#FF6F00"/>
<circle cx="1141.44" cy="247.324" r="9.08957" fill="#FF6F00"/>
<circle cx="1175.56" cy="247.324" r="9.08957" fill="#FF6F00"/>
<circle cx="1209.68" cy="247.324" r="9.08957" fill="#FF6F00"/>
<circle cx="1243.79" cy="247.324" r="9.08957" fill="#FF6F00"/>
<circle cx="1277.91" cy="247.324" r="9.08957" fill="#FF6F00"/>
<circle cx="1039.09" cy="281.441" r="9.08957" fill="#FF6F00"/>
<circle cx="1073.21" cy="281.441" r="9.08957" fill="#FF6F00"/>
<circle cx="1107.32" cy="281.441" r="9.08957" fill="#FF6F00"/>
<circle cx="1141.44" cy="281.441" r="9.08957" fill="#FF6F00"/>
<circle cx="1175.56" cy="281.441" r="9.08957" fill="#FF6F00"/>
<circle cx="1209.68" cy="281.441" r="9.08957" fill="#FF6F00"/>
<circle cx="1243.79" cy="281.441" r="9.08957" fill="#FF6F00"/>
<circle cx="1277.91" cy="281.441" r="9.08957" fill="#FF6F00"/>
<circle cx="1039.09" cy="315.558" r="9.08957" fill="#FF6F00"/>
<circle cx="1073.21" cy="315.558" r="9.08957" fill="#FF6F00"/>
<circle cx="1107.32" cy="315.558" r="9.08957" fill="#FF6F00"/>
<circle cx="1141.44" cy="315.558" r="9.08957" fill="#FF6F00"/>
<circle cx="1175.56" cy="315.558" r="9.08957" fill="#FF6F00"/>
<circle cx="1209.68" cy="315.558" r="9.08957" fill="#FF6F00"/>
<circle cx="1243.79" cy="315.558" r="9.08957" fill="#FF6F00"/>
<circle cx="1277.91" cy="315.558" r="9.08957" fill="#FF6F00"/>
<circle cx="1039.09" cy="349.676" r="9.08957" fill="#FF6F00"/>
<circle cx="1073.21" cy="349.676" r="9.08957" fill="#FF6F00"/>
<circle cx="1107.32" cy="349.676" r="9.08957" fill="#FF6F00"/>
<circle cx="1141.44" cy="349.676" r="9.08957" fill="#FF6F00"/>
<circle cx="1175.56" cy="349.676" r="9.08957" fill="#FF6F00"/>
<circle cx="1209.68" cy="349.676" r="9.08957" fill="#FF6F00"/>
<circle cx="1243.79" cy="349.676" r="9.08957" fill="#FF6F00"/>
<circle cx="1277.91" cy="349.676" r="9.08957" fill="#FF6F00"/>
<path d="M1030 353.633L1287 225.633V573H1030V353.633Z" fill="#FF6F00"/>
</svg>
