<svg width="183" height="117" viewBox="0 0 183 117" fill="none" xmlns="http://www.w3.org/2000/svg">
<circle cx="9.12487" cy="9.12487" r="9.12487" fill="#FF6F00"/>
<circle cx="41.9745" cy="9.12487" r="9.12487" fill="#FF6F00"/>
<circle cx="74.8241" cy="9.12487" r="9.12487" fill="#FF6F00"/>
<circle cx="107.674" cy="9.12487" r="9.12487" fill="#FF6F00"/>
<circle cx="140.523" cy="9.12487" r="9.12487" fill="#FF6F00"/>
<circle cx="173.373" cy="9.12487" r="9.12487" fill="#FF6F00"/>
<circle cx="9.12487" cy="41.9745" r="9.12487" fill="#FF6F00"/>
<circle cx="41.9745" cy="41.9745" r="9.12487" fill="#FF6F00"/>
<circle cx="74.8241" cy="41.9745" r="9.12487" fill="#FF6F00"/>
<circle cx="107.674" cy="41.9745" r="9.12487" fill="#FF6F00"/>
<circle cx="140.523" cy="41.9745" r="9.12487" fill="#FF6F00"/>
<circle cx="173.373" cy="41.9745" r="9.12487" fill="#FF6F00"/>
<circle cx="9.12487" cy="74.8238" r="9.12487" fill="#FF6F00"/>
<circle cx="41.9745" cy="74.8238" r="9.12487" fill="#FF6F00"/>
<circle cx="74.8241" cy="74.8238" r="9.12487" fill="#FF6F00"/>
<circle cx="107.674" cy="74.8238" r="9.12487" fill="#FF6F00"/>
<circle cx="140.523" cy="74.8238" r="9.12487" fill="#FF6F00"/>
<circle cx="173.373" cy="74.8238" r="9.12487" fill="#FF6F00"/>
<circle cx="9.12487" cy="107.673" r="9.12487" fill="#FF6F00"/>
<circle cx="41.9745" cy="107.673" r="9.12487" fill="#FF6F00"/>
<circle cx="74.8241" cy="107.673" r="9.12487" fill="#FF6F00"/>
<circle cx="107.674" cy="107.673" r="9.12487" fill="#FF6F00"/>
<circle cx="140.523" cy="107.673" r="9.12487" fill="#FF6F00"/>
<circle cx="173.373" cy="107.673" r="9.12487" fill="#FF6F00"/>
</svg>
